<?xml version="1.0" encoding="UTF-8"?><svg id="Layer_2" xmlns="http://www.w3.org/2000/svg" width="100%" height="100%" viewBox="0 0 699.99 530.7"><defs><style>.cls-1{fill:black;}</style></defs><g id="Layer_1-2"><path class="cls-1" d="M566.4,373.67c-30.23-10.08-70.86-25.55-116.02-41.87,27.19-47.11,48.83-100.78,63.05-159.06h-148.98v-53.59h182.5v-29.92h-182.5V0h-74.53c-13.05,0-13.05,12.89-13.05,12.89v76.41H92.33v29.92h184.61v53.59H124.52v29.92h295.62c-10.41,36.04-24.69,70.85-42.58,103.83-95.94-31.56-198.28-57.19-262.58-41.41-41.09,10.16-67.58,28.2-83.2,47.11-71.41,86.72-20.23,218.44,130.62,218.44,89.14-.08,175.08-49.77,241.64-131.48,99.3,47.66,295.94,129.45,295.94,129.45v-116.64s-24.69-1.95-133.59-38.36h0ZM148.35,480.16c-117.58,0-152.34-92.42-94.22-143.05,19.38-17.11,54.84-25.47,73.75-27.34,69.84-6.87,134.53,19.69,210.86,56.87-53.75,69.92-122.11,113.52-190.39,113.52h0Z"/></g></svg>