<?xml version="1.0" encoding="UTF-8"?><svg id="Layer_2" xmlns="http://www.w3.org/2000/svg" width="100%" height="100%" viewBox="0 0 1406.27 913.56"><defs><style>.cls-1{fill:white;}</style></defs><g id="Layer_1-2"><path class="cls-1" d="M286.39,378.02c28.71,0,49.88,16.02,60.9,43.5h2.32c17.11-29.21,37.99-43.5,64.38-43.5,43.5,0,69.88,36.54,69.88,95.4v143.39c0,4.35-3.19,7.54-7.54,7.54h-46.4c-4.35,0-7.54-3.19-7.54-7.54v-138.75c0-28.13-11.02-43.79-31.61-43.79-22.62,0-34.51,18.27-34.51,51.91v130.64c0,4.35-3.19,7.54-7.54,7.54h-46.4c-4.35,0-7.54-3.19-7.54-7.54v-138.75c0-28.13-11.02-43.79-31.61-43.79-22.62,0-34.51,18.27-34.51,51.91v130.64c0,4.35-3.19,7.54-7.54,7.54h-46.4c-4.35,0-7.54-3.19-7.54-7.54v-226.04c0-4.35,3.19-7.54,7.54-7.54h38.28c4.35,0,7.18,2.9,8.12,7.54l5.8,28.42h2.32c10.44-26.39,30.45-41.18,57.13-41.18Z"/><path class="cls-1" d="M709.15,390.78v226.04c0,4.35-3.19,7.54-7.54,7.54h-38.28c-4.64,0-7.1-2.9-8.12-7.54l-5.8-28.42h-2.32c-10.44,26.97-30.74,41.18-58,41.18-43.5,0-70.17-35.67-70.17-93.95v-144.84c0-4.35,3.19-7.54,7.54-7.54h46.4c4.35,0,7.54,3.19,7.54,7.54v140.21c0,27.55,11.02,42.63,31.9,42.63,23.2,0,35.38-17.4,35.38-50.75v-132.09c0-4.35,3.19-7.54,7.54-7.54h46.4c4.35,0,7.54,3.19,7.54,7.54Z"/><path class="cls-1" d="M860.49,451.53c-2.9-15.95-15.08-25.23-31.61-25.23s-27.55,8.7-27.55,21.46c0,11.89,8.7,19.57,26.68,24.07l33.93,8.41c42.05,10.44,60.03,34.51,60.03,70.46,0,45.53-38.86,78.87-90.76,78.87-47.27,0-86.7-24.65-93.66-77.13-.58-4.64,1.74-7.83,6.38-8.7l40.02-7.54c5.22-1.01,8.12,1.16,9.28,7.54,4.06,25.37,17.98,37.55,37.99,37.55,18.27,0,31.03-9.57,31.03-25.08s-8.99-23.27-27.84-27.84l-25.23-6.09c-51.04-12.32-67.57-37.12-67.57-70.75,0-47.12,38.86-73.51,87.28-73.51s79.16,25.81,87.86,63.07c1.16,5.22-.58,8.41-5.8,9.28l-41.76,6.96c-4.64.8-8.12-1.16-8.7-5.8Z"/><path class="cls-1" d="M981.1,292.33c19.72,0,35.96,13.34,35.96,35.96s-16.24,35.96-35.96,35.96-35.96-13.92-35.96-35.96,16.24-35.96,35.96-35.96ZM950.36,616.82v-226.04c0-4.35,3.19-7.54,7.54-7.54h46.4c4.35,0,7.54,3.19,7.54,7.54v226.04c0,4.35-3.19,7.54-7.54,7.54h-46.4c-4.35,0-7.54-3.19-7.54-7.54Z"/><path class="cls-1" d="M1238.88,548.67c-10.44,52.2-48.72,80.9-93.37,80.9-59.74,0-104.39-54.23-104.39-125.85s44.66-125.71,104.39-125.71c44.66,0,82.93,28.71,93.37,80.9.87,4.93-1.45,8.12-6.09,8.99l-42.05,7.54c-4.64.87-7.54-1.16-8.7-6.09-6.38-29.29-19.14-42.34-36.54-42.34-26.68,0-40.6,27.26-40.6,76.7s13.92,76.84,40.6,76.84c17.4,0,30.16-13.05,36.54-42.34,1.16-4.93,4.06-6.96,8.7-6.09l42.05,7.54c4.64.87,6.96,4.06,6.09,8.99Z"/><path class="cls-1" d="M951.63,745.55c2.91,6.66,11.31,6.66,24.35,4.06,34.79-7.53,78.86-8.11,86.39,2.32,7.25,10.72-8.7,51.85-27.54,81.98-6.96,11.59-9.86,18.83-4.06,24.33,1.45,1.74,3.48,2.32,5.8,2.61,6.96,0,15.95-6.95,24.35-14.77,18.26-15.93,32.47-36.21,40.3-59.09,7.83-22.02,11.6-53.01,3.48-64.89-7.83-11.3-38.27-18.83-61.75-18.54-24.64,0-48.42,6.08-69.87,17.38-13.34,7.24-25.5,15.35-21.45,24.62h0Z"/><path class="cls-1" d="M308.3,733.39c2,6.09,6.67,13.61,13.63,22.3,89.01,109.79,232.23,157.87,370.52,157.87,120.9,0,237.74-36.5,311.96-100.81,12.76-11.3,19.42-20.28,19.42-27.23,0-2.9-1.16-5.22-3.19-7.53-6.38-6.66-15.95-1.74-27.54,4.34-69,36.21-175.11,61.12-287.89,61.12-127.28,0-263.54-31.57-366.75-114.71-9.86-7.82-20.58-15.64-27.83-9.85-2.61,2.03-4.97,6.39-2.32,14.48h0Z"/><path class="cls-1" d="M69.3,251.56C27.84,251.56,0,222.27,0,179.06c0-52.05,40.89-85.4,105.84-85.4,9.28,0,17.4.51,24.07,1.96v-6.02c0-29.58-10.87-43.79-32.91-43.79-17.4,0-28.85,9.64-34.07,28.13-1.45,5.29-4.35,7.83-9.28,6.96l-40.31-6.96c-4.93-.87-7.54-4.93-6.09-10.44C17.98,22.69,51.62,0,101.2,0c58.87,0,90.18,32.48,90.18,93.01v145.79c0,4.35-3.19,7.54-7.54,7.54h-38.28c-4.5,0-7.1-2.9-8.12-7.54l-5.8-27.26h-2.32c-10.44,25.16-31.32,40.02-60.03,40.02ZM92.79,205.74c24.07,0,37.12-22.04,37.12-62.35v-15.3c-4.93-.87-10.15-1.45-15.37-1.45-31.61,0-51.33,17.62-51.33,45.45,0,20.59,11.6,33.64,29.58,33.64Z"/><path class="cls-1" d="M347.66,0c28.71,0,49.88,16.02,60.9,43.5h2.32C427.98,14.28,448.86,0,475.25,0c43.5,0,69.88,36.54,69.88,95.4v143.39c0,4.35-3.19,7.54-7.54,7.54h-46.4c-4.35,0-7.54-3.19-7.54-7.54V100.04c0-28.13-11.02-43.79-31.61-43.79-22.62,0-34.51,18.27-34.51,51.91v130.64c0,4.35-3.19,7.54-7.54,7.54h-46.4c-4.35,0-7.54-3.19-7.54-7.54V100.04c0-28.13-11.02-43.79-31.61-43.79-22.62,0-34.51,18.27-34.51,51.91v130.64c0,4.35-3.19,7.54-7.54,7.54h-46.4c-4.35,0-7.54-3.19-7.54-7.54V12.76c0-4.35,3.19-7.54,7.54-7.54h38.28c4.35,0,7.18,2.9,8.12,7.54l5.8,28.42h2.32C300.97,14.79,320.98,0,347.66,0Z"/><path class="cls-1" d="M641.08,251.56c-41.47,0-69.3-29.29-69.3-72.49,0-52.05,40.89-85.4,105.84-85.4,9.28,0,17.4.51,24.07,1.96v-6.02c0-29.58-10.87-43.79-32.91-43.79-17.4,0-28.85,9.64-34.07,28.13-1.45,5.29-4.35,7.83-9.28,6.96l-40.31-6.96c-4.93-.87-7.54-4.93-6.09-10.44C589.76,22.69,623.39,0,672.98,0,731.85,0,763.16,32.48,763.16,93.01v145.79c0,4.35-3.19,7.54-7.54,7.54h-38.28c-4.5,0-7.1-2.9-8.12-7.54l-5.8-27.26h-2.32c-10.44,25.16-31.32,40.02-60.03,40.02ZM664.57,205.74c24.07,0,37.12-22.04,37.12-62.35v-15.3c-4.93-.87-10.15-1.45-15.37-1.45-31.61,0-51.33,17.62-51.33,45.45,0,20.59,11.6,33.64,29.58,33.64Z"/><path class="cls-1" d="M788.95,204c0-4.06,1.16-7.54,3.48-11.02l94.39-139.04h-88.01c-4.35,0-7.54-3.19-7.54-7.54V12.76c0-4.35,3.19-7.54,7.54-7.54h152.53c4.35,0,7.54,3.19,7.54,7.54v34.8c0,4.06-.87,7.25-3.48,11.02l-95.33,139.04h95.91c4.64,0,7.54,3.19,7.54,7.54v33.64c0,4.35-3.19,7.54-7.54,7.54h-159.49c-4.35,0-7.54-3.19-7.54-7.54v-34.8Z"/><path class="cls-1" d="M975.1,125.78c0-71.91,44.95-125.78,104.39-125.78s104.97,53.86,104.97,125.78-45.24,125.71-104.97,125.71-104.39-53.86-104.39-125.71ZM1079.49,202.26c26.39,0,41.18-27.26,41.18-76.48s-14.79-76.55-41.18-76.55-40.6,27.26-40.6,76.55,14.5,76.48,40.6,76.48Z"/><path class="cls-1" d="M1334.64,0c44.37,0,71.62,36.54,71.62,95.4v143.39c0,4.35-3.19,7.54-7.54,7.54h-46.4c-4.35,0-7.54-3.19-7.54-7.54V100.04c0-28.13-11.89-43.79-33.35-43.79-23.49,0-36.25,18.27-36.25,51.91v130.64c0,4.35-3.19,7.54-7.54,7.54h-46.4c-4.35,0-7.54-3.19-7.54-7.54V12.76c0-4.35,3.19-7.54,7.54-7.54h38.28c4.35,0,7.18,2.9,8.12,7.54l5.8,28.42h2.32c10.44-26.32,31.32-41.18,58.87-41.18Z"/></g></svg>