<?xml version="1.0" encoding="UTF-8"?><svg id="Layer_2" xmlns="http://www.w3.org/2000/svg" width="100%" height="100%" viewBox="0 0 366.95 368.43"><defs><style>.cls-1{fill:white;}</style></defs><g id="svg9"><path class="cls-1" d="M242.87,40.22c2.33-1.4,4.76-2.89,7.27-4.2,6.53-3.36,13.8-5.04,21.17-4.66,5.32.28,10.17,1.77,13.9,5.69,3.54,3.64,4.85,8.11,5.22,12.96.09,1.03.09,2.05.09,3.17v48.31c0,4.2-.56,4.76-4.76,4.76h-11.38c-.75,0-1.49,0-2.24-.09-1.12-.09-2.05-1.03-2.24-2.15-.19-1.03-.19-2.05-.19-3.08v-43.18c.09-1.77-.09-3.45-.56-5.13-.75-2.89-3.36-4.94-6.34-5.13-5.5-.37-11.01.75-16.04,3.08-.75.19-1.21.93-1.12,1.68v49.06c0,.93,0,1.77-.19,2.7,0,1.31-1.03,2.24-2.33,2.24h0c-1.4.09-2.8.09-4.29.09h-9.89c-3.45,0-4.2-.84-4.2-4.29v-44.12c0-1.59-.09-3.26-.47-4.85-.65-3.17-3.36-5.41-6.53-5.6-5.6-.37-11.29.75-16.32,3.17-.75.19-1.21,1.03-1.03,1.77v49.71c0,3.45-.75,4.2-4.2,4.2h-12.5c-3.26,0-4.1-.93-4.1-4.1V37.51c0-.75.09-1.49.28-2.24.37-1.12,1.49-1.77,2.61-1.77h11.66c1.68,0,2.7,1.03,3.26,2.61.47,1.31.75,2.52,1.21,3.92.93,0,1.49-.65,2.15-1.03,5.13-3.17,10.54-5.88,16.6-7,4.66-.93,9.33-.93,13.99,0,4.38.93,8.3,3.54,10.82,7.27.19.28.37.47.56.65-.09.09,0,.09.09.28Z"/><path class="cls-1" d="M105.02,43.76c.65-.19,1.21-.56,1.59-1.12,1.68-1.68,3.45-3.26,5.32-4.76,4.85-3.73,10.91-5.6,16.97-5.13,2.42.09,3.26.84,3.45,3.17.19,3.17.09,6.44.09,9.61.09,1.31,0,2.52-.19,3.82-.37,1.68-1.03,2.33-2.7,2.52-1.31.09-2.52,0-3.82-.09-6.25-.56-12.31.65-18.19,2.61-1.31.47-1.31,1.4-1.31,2.42v44.77c0,.84,0,1.59-.09,2.42-.09,1.21-1.03,2.15-2.24,2.15-.65.09-1.4.09-2.05.09h-12.12c-.65,0-1.4,0-2.05-.09-1.21-.09-2.15-1.12-2.24-2.33-.09-.75-.09-1.49-.09-2.24v-63.42c0-4.29.47-4.76,4.76-4.76h8.95c2.42,0,3.54.84,4.2,3.17.65,2.33,1.21,4.66,1.77,7.18Z"/><path class="cls-1" d="M141.39,69.69v-33.11c.09-2.24.93-3.08,3.17-3.17,4.85-.09,9.7-.09,14.55,0,2.15,0,2.8.65,2.98,2.8.09.84.09,1.59.09,2.42v62.12c0,1.03-.09,2.05-.19,3.08-.09,1.21-1.03,2.05-2.24,2.15-.56.09-1.03.09-1.59.09h-12.96c-.47,0-.84,0-1.31-.09-1.31-.09-2.42-1.12-2.52-2.42-.09-.75-.09-1.49-.09-2.24.09-10.35.09-20.99.09-31.62Z"/><path class="cls-1" d="M152.21.02c1.49-.09,2.98.19,4.38.65,5.04,1.68,7.65,6.06,7.18,11.75-.37,4.85-4.01,8.77-8.86,9.51-2.05.37-4.2.37-6.25,0-5.32-1.03-9.23-4.94-8.86-11.66C140.37,3.66,144.75.02,152.21.02Z"/><path class="cls-1" d="M71.54,62.04c-.37-4.85-1.68-9.61-3.64-13.99-3.82-8.02-9.7-13.9-18.65-15.95-10.26-2.24-19.49,0-27.89,6.25-.56.56-1.21,1.03-1.96,1.4-.19-.09-.37-.19-.37-.28-.28-.93-.47-1.87-.75-2.8-.75-2.33-1.68-3.17-4.2-3.17-2.8,0-5.69.09-8.49,0-2.15-.09-4.1.19-5.6,1.87,0,32.64,0,65.38.09,97.93,1.21,1.96,3.08,2.33,5.22,2.24,3.36-.09,6.72,0,10.07,0q5.88,0,5.88-5.78v-26.58c0-.65-.28-1.4.37-1.96,4.66,3.64,10.35,5.88,16.23,6.44,8.21.84,15.67-1.21,21.92-6.81,4.57-4.2,7.93-9.61,9.7-15.58,2.52-7.65,2.7-15.39,2.05-23.22ZM49.25,81.35c-.65,2.89-2.15,5.5-4.29,7.46-2.42,2.05-5.41,3.26-8.58,3.26-4.76.28-9.42-.75-13.62-2.98-1.03-.47-1.68-1.49-1.59-2.61v-16.88c0-5.6.09-11.19,0-16.79-.09-1.31.65-2.42,1.87-2.89,5.13-2.42,10.45-3.54,16.04-2.42,3.92.56,7.27,3.08,8.86,6.72,1.4,2.98,2.24,6.25,2.42,9.51.56,5.97.56,11.94-1.12,17.63Z"/><path class="cls-1" d="M324.57,75.75c7,1.31,14.18,1.4,21.17.28,4.1-.56,8.02-1.77,11.66-3.73,4.2-2.42,7.27-5.78,8.58-10.45,3.26-11.75-1.77-23.6-13.99-27.98-5.97-1.96-12.31-2.61-18.56-1.77-14.74,1.68-24.34,9.79-28.73,23.88-3.08,9.61-2.7,19.4-.19,29.1,3.26,12.4,11.47,19.77,23.88,22.38,7.09,1.59,14.27,1.31,21.36.19,3.73-.65,7.46-1.59,11.01-2.98,2.15-.84,3.26-2.15,3.17-4.57-.09-2.24,0-4.57,0-6.9,0-2.8-1.12-3.64-3.82-2.98-2.7.65-5.32,1.21-8.02,1.77-5.78,1.21-11.75,1.21-17.53.19-7.93-1.59-13.06-8.39-12.59-16.79.84.09,1.77.19,2.61.37ZM322.24,61.48c.28-2.24.93-4.38,1.77-6.44,2.8-6.81,8.67-9.14,14.64-8.77,1.68.09,3.36.47,4.94,1.12,2.42,1.03,4.01,3.26,4.29,5.88.28,1.59.19,3.26-.28,4.85-1.12,3.36-3.82,4.76-7.09,5.41-1.96.47-4.01.65-6.06.47-3.64,0-7.37-.28-11.01-.84q-1.4-.19-1.21-1.68Z"/><path class="cls-1" d="M39.29,229.18c.59-1.96,1.18-3.82,1.77-5.79,4.51-15.2,9.02-30.3,13.53-45.5l.59-1.77c.49-1.77,2.16-2.84,3.92-2.84h14.91c3.73,0,4.51,1.08,3.24,4.61l-5.88,15.59c-6.57,17.06-13.14,34.23-19.71,51.29-.2.59-.49,1.18-.69,1.77-.69,2.06-2.75,3.43-4.9,3.24-4.31-.1-8.63-.1-12.95,0-3.04.1-4.81-1.27-5.88-4.02-2.45-6.47-5-13.04-7.45-19.52-5.88-15.4-11.87-30.79-17.75-46.29-.59-1.18-.98-2.55-1.27-3.82-.29-1.96.39-2.94,2.35-2.94,5.59-.1,11.18,0,16.67,0,2.35,0,3.43,1.57,4.02,3.63,1.08,3.73,2.16,7.55,3.33,11.28,4.02,13.63,7.94,27.36,11.96,40.99-.1.1,0,.1.2.1Z"/><path class="cls-1" d="M108.73,211.53v35.3c-.2,1.96-1.08,2.84-3.04,2.94-5.3.1-10.49.1-15.79,0-1.96,0-2.84-.98-3.04-2.84-.1-.59-.1-1.27-.1-1.86v-67.86c.1-3.04.88-3.92,3.92-3.92h14.12c3.04,0,3.92.88,3.92,3.92v34.32h0Z"/><path class="cls-1" d="M97.84,138.08c1.96-.2,3.92.2,5.79.98,3.82,1.47,6.47,5,6.67,9.12.78,8.92-5.2,13.44-13.14,13.24-1.08,0-2.16-.2-3.24-.39-6.08-1.47-9.22-6.18-8.63-12.95.49-5.39,4.71-9.41,10.49-9.9.69-.1,1.37-.2,2.06-.1Z"/><path class="cls-1" d="M365.37,205.45v.39c-.39-.39-.59-.98-.39-1.47v-.78s0-.1.1-.1h-.1v-.98h.2c0-.1-.1-.1-.1-.2-.2-1.86-.59-3.73-1.08-5.49-3.63-12.95-11.77-21.48-25.01-24.81-6.18-1.47-12.45-1.67-18.73-.69-13.24,1.96-22.75,9.02-27.36,21.58-4.51,11.96-4.41,25.11.1,37.07,3.92,10.89,11.77,17.75,23.05,20.59,5.98,1.47,12.26,1.86,18.44.98,20.59-2.45,29.13-18.04,30.5-31.58h-.1v-1.37c-.1-.59-.2-1.08.39-1.47v.2c0-.1.1-.29.2-.39v-11.28c0-.1-.1-.1-.1-.2ZM341.84,224.08c-.59,2.06-1.47,3.92-2.75,5.69-2.16,3.04-5.59,5-9.32,5.3-1.86.2-3.73.2-5.59-.2-4.12-.78-7.55-3.53-9.22-7.36-1.47-3.04-2.35-6.37-2.65-9.71-.49-5.79-.59-11.57.78-17.26.49-2.26,1.47-4.51,2.65-6.47,2.16-3.53,5.88-5.79,10-6.08,1.86-.2,3.73-.2,5.59.2,3.92.78,7.16,3.33,8.92,6.96,1.67,3.43,2.65,7.26,2.84,11.08.1,1.77.2,3.53.1,5.3.29,4.31-.2,8.53-1.37,12.55Z"/><path class="cls-1" d="M193.46,138.76h-13.63c-3.73,0-4.41.69-4.41,4.41v31.77c0,.69.29,1.37-.2,2.06-.88-.1-1.37-.69-2.06-1.08-10.2-5.98-20.89-7.06-31.68-2.06-7.55,3.53-12.26,9.91-15.3,17.46-2.94,7.26-3.63,14.91-3.43,22.65,0,7.26,1.67,14.42,4.9,20.89,3.73,7.16,9.12,12.65,16.97,15,10.69,3.33,20.69,1.67,29.81-5.1.69-.39,1.08-1.08,1.96-1.27.49,1.08.88,2.26,1.08,3.43.39,1.57,1.77,2.65,3.43,2.65h2.35c3.53,0,6.96.1,10.4,0,2.75,0,3.53-.88,3.63-3.73v-103.36c-.1-3.04-.88-3.73-3.82-3.73ZM175.51,210.94v17.85c.2,1.18-.49,2.26-1.57,2.75-4.71,2.65-10.1,3.73-15.4,2.94-4.51-.49-8.43-3.24-10.49-7.26-1.57-3.14-2.45-6.47-2.75-9.91-.78-6.18-.29-12.45,1.18-18.44.49-1.67,1.08-3.24,1.96-4.81,2.06-3.82,5.98-6.28,10.3-6.57,5.2-.49,10.4.49,15.1,2.65,1.18.39,1.86,1.57,1.77,2.84-.2,6.08-.1,11.96-.1,17.95h0Z"/><path class="cls-1" d="M252.69,218.69c5.69-.39,11.38-1.47,16.48-4.22,5.2-2.55,8.83-7.36,9.9-13.04.69-3.53.69-7.26-.1-10.79-2.06-8.83-7.65-14.32-16.08-17.16-4.71-1.47-9.71-2.06-14.61-1.86-16.48.39-29.03,8.73-34.13,25.2-3.43,10.89-2.94,21.97.39,32.85,3.43,11.18,11.28,17.95,22.46,20.99,4.81,1.18,9.81,1.67,14.71,1.47,7.16-.1,14.32-1.47,21.08-4.02,2.84-1.08,3.53-2.06,3.53-5.1v-7.06c-.1-2.84-1.27-3.82-4.12-3.14-2.16.59-4.22,1.08-6.37,1.57-6.57,1.57-13.44,1.86-20.1.69-6.67-1.27-11.18-5.1-12.95-11.77-.49-1.96-.88-3.92-1.08-5.98.49,0,.98,0,1.37.2,6.47,1.18,13.04,1.67,19.61,1.18ZM232.2,203c.69-3.82,1.57-7.55,3.92-10.69,3.63-4.81,8.63-6.18,14.32-5.59.49,0,.88.2,1.37.2,6.86,1.08,8.53,6.57,7.26,11.87-.98,3.92-4.22,5.39-7.85,6.08-1.96.39-4.02.59-6.08.49-4.02-.1-7.94-.39-11.87-.98-.88-.1-1.27-.49-1.08-1.37h0Z"/><path class="cls-1" d="M189.3,368.43c-3.51-.09-7.03-.09-10.54,0-4.83-.26-9.67-.44-14.5-.79-12.83-.97-25.57-2.9-38.05-5.8-43.15-10.02-81.02-30.14-114.06-59.4-3.08-2.72-5.98-5.54-8.96-8.35-.7-.62-1.32-1.49-1.67-2.37-.53-1.23-.26-2.55.62-3.51.88-.97,2.28-1.32,3.51-.79.79.35,1.58.7,2.28,1.14,31.55,19.51,65.99,33.74,102.11,42.18,12.13,2.81,24.34,5.01,36.64,6.59,17.66,2.2,35.5,2.99,53.25,2.37,9.58-.26,19.07-1.14,28.56-2.37,22.14-2.81,44.02-7.82,65.2-14.85,11.16-3.69,22.06-7.91,32.69-12.83,1.58-.88,3.51-1.14,5.27-.7,2.9.7,4.66,3.69,3.95,6.59-.09.35-.26.79-.44,1.14-.7,1.32-1.67,2.46-2.9,3.34-10.11,7.91-21,14.85-32.51,20.65-21.7,10.98-44.9,18.81-68.81,23.29-13.8,2.46-27.68,3.95-41.65,4.48Z"/><path class="cls-1" d="M340.36,282.76c5.8.18,11.51.53,17.14,2.02,1.58.44,3.08.97,4.57,1.67,2.02.79,3.34,2.72,3.6,4.83.35,2.46.44,5.01.26,7.56-1.14,15.03-5.8,29.53-13.53,42.44-2.81,4.66-6.24,8.88-10.19,12.57-.79.79-1.76,1.41-2.81,1.76-1.67.44-2.72-.44-2.81-2.11.09-.88.26-1.76.62-2.64,3.08-8.26,6.06-16.43,8.44-24.96,1.41-4.66,2.37-9.4,2.99-14.24.18-1.76.26-3.51.09-5.27-.09-2.99-2.02-5.54-4.92-6.41-2.72-.88-5.54-1.41-8.44-1.58-8.08-.35-16.17,0-24.17,1.05l-10.63,1.32c-1.14.09-2.2,0-2.81-1.05s-.35-2.11.26-3.16c.7-.97,1.58-1.85,2.64-2.46,6.5-4.66,13.8-7.47,21.53-9.31,5.98-1.23,12.04-1.85,18.19-2.02Z"/></g></svg>