<?xml version="1.0" encoding="UTF-8"?><svg id="Layer_2" xmlns="http://www.w3.org/2000/svg" width="100%" height="100%" viewBox="0 0 293.49 77.27"><defs><style>.cls-1{fill:currentColor;}</style></defs><g id="Layer_1-2"><path class="cls-1" d="M257.43,23.8C132.6,83.21,55.12,33.5,5.53,3.31c-3.07-1.9-8.28.44-3.76,5.64,16.52,20.03,70.67,68.32,141.35,68.32s112.8-38.59,118.06-45.32c5.23-6.68,1.54-10.36-3.75-8.15h0ZM292.49,4.44c-3.35-4.37-20.38-5.18-31.1-3.86-10.74,1.28-26.85,7.84-25.45,11.78.72,1.48,2.19.81,9.56.15,7.4-.74,28.11-3.35,32.43,2.29,4.34,5.68-6.61,32.75-8.61,37.12-1.93,4.37.74,5.49,4.37,2.58,3.58-2.91,10.05-10.43,14.4-21.08,4.32-10.71,6.95-25.65,4.4-28.97h0Z"/></g></svg>