<?xml version="1.0" encoding="UTF-8"?><svg id="Layer_2" xmlns="http://www.w3.org/2000/svg" width="100%" height="100%" viewBox="0 0 666.67 667.12"><defs><style>.cls-1{fill:curretColor;}</style></defs><g id="app-store"><path id="primary" class="cls-1" d="M666.67,500.45c0,18.41-14.92,33.33-33.33,33.33h-50.67l46.33,83.67c8.99,16.02,3.33,36.29-12.67,45.33-4.98,2.82-10.61,4.32-16.33,4.33-12.03-.02-23.11-6.52-29-17l-190.33-342.67c-9.2-16.02-3.68-36.46,12.33-45.67s36.46-3.68,45.67,12.33l107,193h87.67c18.41,0,33.33,14.92,33.33,33.33ZM366.67,467.12h-169.33L430.67,50.12c9.2-16.02,3.68-36.46-12.33-45.67s-36.46-3.68-45.67,12.33h0l-39.33,68.33-37.67-66.67c-9.2-16.02-29.65-21.54-45.67-12.33s-21.54,29.65-12.33,45.67l57.67,102L121,467.12H33.33c-18.41,0-33.33,14.92-33.33,33.33s14.92,33.33,33.33,33.33h50.67l-46.33,83.67c-8.99,16.02-3.33,36.29,12.67,45.33,4.98,2.82,10.61,4.32,16.33,4.33,12.03-.02,23.11-6.52,29-17l64.67-116.33h206.33c18.41,0,33.33-14.92,33.33-33.33s-14.92-33.33-33.33-33.33Z"/></g></svg>