<?xml version="1.0" encoding="UTF-8"?><svg id="Layer_2" xmlns="http://www.w3.org/2000/svg" width="100%" height="100%" viewBox="0 0 120.38 51.06"><defs><style>.cls-1{fill:black;}</style></defs><g id="Artwork"><path class="cls-1" d="M22.75,6.59c1.42-1.77,2.38-4.15,2.13-6.59-2.07.1-4.61,1.37-6.07,3.14-1.32,1.52-2.48,4-2.18,6.33,2.33.2,4.66-1.16,6.12-2.89"/><path class="cls-1" d="M24.85,9.93c-3.38-.2-6.26,1.92-7.87,1.92s-4.09-1.82-6.76-1.77c-3.48.05-6.71,2.02-8.48,5.15-3.63,6.26-.96,15.55,2.57,20.66,1.72,2.52,3.78,5.3,6.51,5.2,2.57-.1,3.58-1.67,6.71-1.67s4.04,1.67,6.76,1.62c2.83-.05,4.59-2.53,6.31-5.05,1.97-2.88,2.77-5.65,2.83-5.81-.05-.05-5.45-2.12-5.5-8.33-.05-5.2,4.24-7.67,4.44-7.83-2.42-3.58-6.21-3.99-7.52-4.09"/><path class="cls-1" d="M54.3,2.89c7.35,0,12.47,5.07,12.47,12.44s-5.22,12.5-12.65,12.5h-8.14v12.94h-5.88V2.89h14.2ZM45.98,22.89h6.75c5.12,0,8.03-2.76,8.03-7.53s-2.91-7.51-8.01-7.51h-6.77v15.04Z"/><path class="cls-1" d="M68.3,32.92c0-4.83,3.7-7.8,10.27-8.17l7.56-.45v-2.13c0-3.07-2.07-4.91-5.54-4.91-3.28,0-5.33,1.57-5.83,4.04h-5.36c.31-4.99,4.57-8.66,11.39-8.66s10.97,3.54,10.97,9.08v19.03h-5.43v-4.54h-.13c-1.6,3.07-5.09,5.01-8.72,5.01-5.41,0-9.19-3.36-9.19-8.32ZM86.13,30.43v-2.18l-6.8.42c-3.39.24-5.3,1.73-5.3,4.1s2,3.99,5.04,3.99c3.96,0,7.06-2.73,7.06-6.33Z"/><path class="cls-1" d="M96.91,50.93v-4.59c.42.1,1.36.1,1.84.1,2.63,0,4.04-1.1,4.91-3.94,0-.05.5-1.68.5-1.71l-9.98-27.65h6.14l6.98,22.47h.1l6.98-22.47h5.99l-10.34,29.06c-2.36,6.7-5.09,8.85-10.82,8.85-.47,0-1.89-.05-2.31-.13Z"/></g></svg>