<?xml version="1.0" encoding="UTF-8"?><svg id="Layer_2" xmlns="http://www.w3.org/2000/svg" width="100%" height="100%" viewBox="0 0 192.37 244.92"><defs><style>.cls-1{fill:white;fill-rule:evenodd;}</style></defs><g id="Artwork"><g id="Glyph"><path class="cls-1" d="M183.35.04c-.87.08-8.6,1.45-9.53,1.64l-107,21.59h-.04c-2.79.6-4.98,1.59-6.67,3.01-2.04,1.71-3.17,4.13-3.6,6.95-.09.6-.24,1.82-.24,3.62v133.92c0,3.13-.25,6.17-2.37,8.76s-4.74,3.37-7.81,3.99c-2.33.47-4.66.94-6.99,1.41-8.84,1.78-14.59,2.99-19.8,5.01-4.98,1.93-8.71,4.39-11.68,7.51-5.89,6.17-8.28,14.54-7.46,22.38.7,6.69,3.71,13.09,8.88,17.82,3.49,3.2,7.85,5.63,12.99,6.66,5.33,1.07,11.01.7,19.31-.98,4.42-.89,8.56-2.28,12.5-4.61,3.9-2.3,7.24-5.37,9.85-9.11,2.62-3.75,4.31-7.92,5.24-12.35.96-4.57,1.19-8.7,1.19-13.26v-116.15c0-6.22,1.76-7.86,6.78-9.08,0,0,88.94-17.94,93.09-18.75,5.79-1.11,8.52.54,8.52,6.61v79.29c0,3.14-.03,6.32-2.17,8.92-2.12,2.59-4.74,3.37-7.81,3.99l-6.99,1.41c-8.84,1.78-14.59,2.99-19.8,5.01-4.98,1.93-8.71,4.39-11.68,7.51-5.89,6.17-8.49,14.54-7.67,22.38.7,6.69,3.92,13.09,9.09,17.82,3.49,3.2,7.85,5.56,12.99,6.6,5.33,1.07,11.01.69,19.31-.98,4.42-.89,8.56-2.22,12.5-4.55,3.9-2.3,7.24-5.37,9.85-9.11,2.62-3.75,4.31-7.92,5.24-12.35.96-4.57,1-8.7,1-13.26V9.5c.02-6.16-3.23-9.96-9.02-9.46Z"/></g></g></svg>