<?xml version="1.0" encoding="UTF-8"?><svg id="Layer_2" xmlns="http://www.w3.org/2000/svg" width="100%" height="100%" viewBox="0 0 696 588"><defs><style>.cls-1{fill:currentColor;fill-rule:evenodd;}</style></defs><g id="Layer_1-2"><path id="Combined-Shape" class="cls-1" d="M171,0c92,0,166,59,166,137v451s-29-123-169-123c-90,0-145.33,49.07-145.33,49.07-12.52,9.05-22.67,3.86-22.67-11.6V88C0,46,82,0,171,0ZM525,0c89,0,171,46,171,88h0v414.47c0,15.46-10.15,20.65-22.67,11.6,0,0-55.33-49.07-145.33-49.07-140,0-169,123-169,123h0V137C359,59,433,0,525,0Z"/></g></svg>