<?xml version="1.0" encoding="UTF-8"?><svg id="Layer_2" xmlns="http://www.w3.org/2000/svg" width="100%" height="100%" viewBox="0 0 211.21 232"><defs><style>.cls-1{fill:black;}</style></defs><g id="Livello_1"><path class="cls-1" d="M131.21,147.9c-.4-3.6-1.6-6.2-4-8.6-4.5-4.7-12.4-7.8-21.7-7.8s-17.2,3-21.7,7.8c-2.3,2.5-3.6,5-4,8.6-.8,7-.3,13,.5,22.7.8,9.2,2.3,21.5,4.2,33.9,1.4,8.9,2.5,13.7,3.5,17.1,1.7,5.6,7.8,10.4,17.5,10.4s15.9-4.9,17.5-10.4c1-3.4,2.1-8.2,3.5-17.1,1.9-12.5,3.4-24.7,4.2-33.9.9-9.7,1.3-15.7.5-22.7Z"/><path class="cls-1" d="M130.11,96.9c0,13.6-11,24.6-24.6,24.6s-24.6-11-24.6-24.6,11-24.6,24.6-24.6,24.6,11.1,24.6,24.6Z"/><path class="cls-1" d="M105.21,0C47.81.2.81,46.8,0,104.2c-.6,46.5,29.1,86.3,70.6,100.9,1,.4,2-.5,1.9-1.5-.5-3.6-1.1-7.2-1.5-10.8-.2-1.3-1-2.3-2.1-2.9-32.8-14.3-55.7-47.2-55.3-85.3C14.11,54.6,54.91,13.9,104.81,13.5c51.1-.4,92.8,41,92.8,92,0,37.7-22.8,70.1-55.3,84.4-1.2.5-2,1.6-2.1,2.9-.5,3.6-1,7.2-1.5,10.8-.2,1.1.9,1.9,1.9,1.5,41.1-14.4,70.6-53.6,70.6-99.6C211.01,47.3,163.51-.1,105.21,0Z"/><path class="cls-1" d="M102.81,35c-37.4,1.4-67.4,32.3-67.9,69.7-.3,24.6,12,46.4,30.9,59.3.9.6,2.2-.1,2.2-1.2-.3-4.3-.3-8.1-.1-12.1.1-1.3-.4-2.5-1.4-3.4-11.5-10.8-18.5-26.2-18.1-43.2.8-30,24.9-54.4,54.9-55.6,32.6-1.3,59.4,24.9,59.4,57.1,0,16.4-7,31.2-18.1,41.7-.9.9-1.4,2.1-1.4,3.4.2,3.9.1,7.7-.1,12-.1,1.1,1.2,1.9,2.2,1.2,18.6-12.7,30.9-34.2,30.9-58.4.1-39.8-33.2-72.1-73.4-70.5Z"/></g></svg>