<?xml version="1.0" encoding="UTF-8"?><svg id="Layer_2" xmlns="http://www.w3.org/2000/svg" width="100%" height="100%" viewBox="0 0 351.2 243.86"><defs><style>.cls-1{fill:white;fill-rule:evenodd;}</style></defs><g id="Layer_1-2" image-rendering="optimizeQuality" shape-rendering="geometricPrecision" text-rendering="geometricPrecision"><path class="cls-1" d="M4.86,112.25s7.96-1.32,11.24,2.11c3.28,3.42,1.13,10.51-3.22,10.63-4.36.11-8.38.92-11.24-2.11-2.86-3.04-2.09-9.13,3.23-10.63ZM91.25,160.61c-.77.08-1.58-.27-2.41-.86-5.71-7.95-7.76-35.14-10.38-36.76-2.72-1.68-12.55,15.07-32.11,13.27-8.18-.76-16.5-6.05-21.41-9.73.46-6.18.54-20.6,12.72-15.91,7.4,2.85,20.08,10.68,31.21-3.38,12.3-15.54,19.09-11.02,23.17-7.65,4.07,3.38,1.36,20.95,7.43,16.04,6.07-4.91,30.58-35.4,30.58-35.4,0,0,18.98-19.14,21.89.98,2.9,20.12,15.28,42.42,18.56,41.78,3.28-.63,41.45-78.22,46.92-83.23,5.46-5.01,23.87-4.35,22.99,8.49-.87,12.84-2.75,92.66-2.75,92.66,0,0-2.16,22.49,1.36,10.47,1.46-4.98,3.03-9.48,4.98-14.73,9.42-30.16,25.47-81.69,33.47-108.24,1.54-5.34,3.09-10.67,4.65-16h0c.4-1.65.88-3.27,1.43-4.87.67-2.25,1.12-3.74,1.26-4.13.36-.99,1.36-1.75,2.77-2.31,1.42-.89,2.93-.94,4.65-.98,4.44-.4,10.14.18,15.28,1.64,1.49.06,3.12.54,4.66,1.64l.22.14.11.08c.32.22.84.66,1.44,1.39.02.02.04.05.06.08.25.3.5.66.76,1.08,2.87,4.2,4.63,11.96,2.86,25.71-4.4,34.3-7.81,104.88-7.81,104.88,0,0-.68,3.37,6.39-11.49.25-.52.56-.96.85-1.44,4.37-5.21,16.11-8.27,24.25-8.21,3.43.42,6.31,1.28,8.02,2.36,3.22,4.89,1.32,22.94,1.32,22.94-6.77.63-19.69,4.27-24.26,4.95-4.58.68-11.53,30.41-21.2,27.36-9.67-3.04-31.21-16.55-31.21-18.41,0-1.62,1.7-21.36,2.14-26.46.03-.35.06-.68.09-1.01l.02-.2h0c.31-4.01.03-5.76-1.82-1.75-1.59,3.45-8.54,25.5-16.27,49.51-.82,2.1-15.44,46.36-17.36,51.75-2.29,6.26-4.21,11.05-5.55,13.53-2.02,2.74-4.75,4.46-8.56,3.31-9.5-2.87-21.52-15.99-21.64-19.25-.23-18.37.89-117.12-3.56-108.89-4.57,8.44-40.1,67-40.1,67-.6.1-1.04.08-1.56.13-2.52-.28-6.41-1.09-7.49-3.5-.06-.14-.14-.27-.19-.42l-.2-.59c-.49-1.61-.68-3.36-1.11-4.8-1.59-5.36-4.13-13.05-6.8-20.88-4.09-13.34-8.3-26.98-9-28.48-1.36-2.95-3.33-1.71-5.1,0-7.93,6.72-24.78,36.42-39.99,38.04l1.34-1.25h0Z"/></g></svg>