<?xml version="1.0" encoding="UTF-8"?><svg id="Layer_2" xmlns="http://www.w3.org/2000/svg" width="100%" height="100%" viewBox="0 0 800 494.75"><defs><style>.cls-1{fill:currentColor;}</style></defs><g id="Layer_1-2"><path class="cls-1" d="M400.25,426.15l399.75-249.22v67.58l-399.75,250.25L0,244.35v-67.45l400.25,249.25ZM400.25,113.53c-90.23,0-169.53,45.45-214.97,115.62,3.78-3.65,5.85-5.85,9.63-8.47,112.37-93.5,274.48-72.27,362.75,45.45l58.6-37.5c-46.47-68.1-126.3-115.1-216.03-115.1h.03ZM400.25,229.15c-46.88.13-90.88,22.77-118.23,60.68,20.57-15.1,45.57-23.3,71.22-23.18,43.35,0,81.9,22.13,107.68,59.63l56-34.78c-24.22-38.68-67.58-62.37-116.67-62.37v.03ZM129.95,127.73C294.68-2.1,527.47,33.2,651.7,205.98l.9,1.05,60.8-37.5C644.4,63.67,526.55,0,400.25,0S154.67,66.53,87.1,169.53c12.1-13.8,27.47-30.08,42.85-41.8h0Z"/></g></svg>