<?xml version="1.0" encoding="UTF-8"?><svg id="Layer_2" xmlns="http://www.w3.org/2000/svg" width="100%" height="100%" viewBox="0 0 16.58 24"><defs><style>.cls-1{fill:currentColor;}</style></defs><g id="Layer_1-2"><path class="cls-1" d="M16.51,6.41l-.13-.67c-.12-.6-.39-1.16-1-1.38-.2-.07-.42-.1-.57-.24-.15-.14-.2-.37-.23-.57-.07-.38-.12-.76-.19-1.13-.06-.33-.1-.69-.25-.99-.19-.4-.6-.63-1-.79-.2-.08-.41-.14-.63-.19-1-.26-2.05-.36-3.08-.42-1.23-.07-2.47-.05-3.7.06-.91.08-1.88.18-2.75.5-.32.12-.65.26-.89.5-.3.3-.39.77-.18,1.15.15.27.41.46.69.58.36.16.74.28,1.12.37,1.07.24,2.19.33,3.29.37,1.22.05,2.44,0,3.65-.12.3-.03.6-.07.9-.12.35-.05.58-.51.47-.83-.12-.38-.46-.53-.83-.47-.47.07-.96.11-1.38.15-1.18.08-2.36.08-3.54,0-.39-.03-.77-.06-1.16-.11-.09,0-.18-.03-.26-.04-.24-.04-.48-.08-.72-.13-.11-.03-.11-.19,0-.21h0c.28-.06.56-.11.84-.15h0c.13,0,.26-.03.39-.05,1.14-.12,2.28-.16,3.43-.12.67.02,1.35.07,2.02.14l.23.03c.27.04.53.09.8.14.39.09.89.11,1.07.54.06.14.08.29.11.43l.32,1.48c.03.13-.05.25-.18.28,0,0-.01,0-.02,0h0s-.08.01-.11.01c-1.57.2-3.16.3-4.74.3-1.57,0-3.14-.1-4.7-.3-.14-.02-.29-.04-.42-.06-.33-.05-.65-.11-.97-.16-.39-.07-.77-.03-1.12.16-.29.16-.53.4-.68.7-.15.32-.2.66-.27,1-.07.34-.18.71-.13,1.06.09.75.61,1.36,1.37,1.5,3.74.67,7.56.79,11.34.38.27-.03.5.16.53.43,0,.03,0,.07,0,.1l-.07.7-1.02,9.91c-.04.41-.05.83-.12,1.24-.12.64-.55,1.03-1.18,1.17-.58.13-1.16.2-1.76.2-.66,0-1.31-.02-1.97-.02-.7,0-1.56-.06-2.1-.58-.48-.46-.54-1.17-.61-1.79l-.73-7.01-.32-3.09c-.04-.35-.29-.69-.68-.68-.34.02-.72.3-.68.68l.23,2.19.95,9.11c.15,1.34,1.17,2.07,2.45,2.27.74.12,1.5.14,2.26.16.97.02,1.94.05,2.89-.12,1.41-.26,2.47-1.2,2.62-2.66.34-3.33.68-6.66,1.02-9.99l.22-2.09c.02-.21.18-.39.39-.43.4-.08.79-.21,1.07-.52.45-.49.55-1.12.39-1.77h0ZM15.03,7.19c-.15.14-.36.2-.58.23-2.42.36-4.87.54-7.31.46-1.75-.06-3.48-.25-5.21-.5-.17-.02-.35-.05-.47-.18-.22-.24-.11-.71-.05-.99.05-.26.15-.61.46-.65.48-.06,1.05.15,1.53.22.58.09,1.16.16,1.74.21,2.48.23,5,.19,7.47-.14.45-.06.9-.13,1.34-.21.4-.07.84-.21,1.08.21.17.28.19.66.16.97,0,.14-.07.27-.17.36h0ZM8.87,11.09c-.86.37-1.84.79-3.11.79-.53,0-1.06-.07-1.57-.22l.88,9c.06.78.72,1.38,1.5,1.38,0,0,1.24.07,1.66.07.45,0,1.79-.07,1.79-.07.78,0,1.43-.6,1.5-1.38l.94-9.95c-.42-.15-.87-.23-1.32-.24-.83,0-1.49.28-2.26.61Z"/></g></svg>