<?xml version="1.0" encoding="UTF-8"?><svg id="Layer_2" xmlns="http://www.w3.org/2000/svg" width="100%" height="100%" viewBox="0 0 219.77 292.86"><defs><style>.cls-1{fill:white;}</style></defs><g id="Layer_1-2"><path class="cls-1" d="M219.73,197.24c.36-4.35-5.44-5.99-7.44-2.18-19.96,39.2-52.07,66.96-89.64,69.31-30.3,1.81-56.98-17.24-67.32-47.72-9.98-29.58-9.79-54.98-3.63-89.64,9.26-51.9,42.64-107.78,94.9-105.42,21.96.91,32.48,13.97,32.48,35.57,0,25.95-14.52,38.1-14.52,47.91,0,2.91,2.54,5.99,7.44,5.99,19.96,0,43.55-23.59,43.55-55.53S189.61,0,143.53,0C67.5,0,0,71.31,0,169.29c0,78.02,46.27,123.57,112.87,123.57,23.95,0,57.34-14.15,84.2-45.55,24.67-28.47,22.67-50.07,22.67-50.07Z"/></g></svg>