<?xml version="1.0" encoding="UTF-8"?><svg id="Layer_2" xmlns="http://www.w3.org/2000/svg" width="100%" height="100%" viewBox="0 0 30.19 44.03"><defs><style>.cls-1{fill:black;}</style></defs><g id="Layer_1-2"><path class="cls-1" d="M25.51,13.79c.5.5,1.33.5,1.8,0l2.5-2.6c.53-.5.5-1.4-.06-1.94-1.96-1.71-4.25-3.02-6.72-3.84l.79-3.8c.17-.83-.45-1.61-1.28-1.61h-4.84c-.62,0-1.16.45-1.28,1.06l-.7,3.38c-6.44.33-11.9,3.6-11.9,10.3,0,5.8,4.51,8.29,9.28,10,4.51,1.72,6.9,2.36,6.9,4.78s-2.38,3.95-5.9,3.95c-3.2,0-6.56-1.07-9.16-3.68-.51-.51-1.33-.51-1.84,0,0,0,0,0,0,0l-2.7,2.7c-.53.53-.53,1.39,0,1.92,2.1,2.07,4.76,3.57,7.79,4.4l-.74,3.57c-.17.83.44,1.6,1.27,1.61l4.85.04c.63,0,1.18-.44,1.3-1.06l.7-3.39c7.75-.52,12.47-4.79,12.47-11.02,0-5.74-4.7-8.16-10.4-10.13-3.26-1.21-6.08-2.04-6.08-4.53s2.63-3.38,5.27-3.38c3.36,0,6.59,1.39,8.7,3.29l-.02-.02Z"/></g></svg>