<?xml version="1.0" encoding="UTF-8"?><svg id="Layer_2" xmlns="http://www.w3.org/2000/svg" width="100%" height="100%" viewBox="0 0 366.23 371.1"><defs><style>.cls-1{fill:currentColor;}</style></defs><g id="Layer_1-2"><path id="a" class="cls-1" d="M163.47,0c-40.64,0-76.75,26.13-89.34,64.72l-.03.17c-25.96,5.52-48.33,21.85-61.5,44.89-20.32,35.2-15.75,79.53,11.38,109.73l.13.11c-8.2,25.24-5.25,52.78,8.12,75.71,20.32,35.2,61,53.4,100.72,45.01l.16-.06c17.76,19.72,43.09,30.93,69.63,30.82,40.64,0,76.75-26.13,89.33-64.72l.03-.17c25.96-5.52,48.33-21.85,61.5-44.89,20.32-35.2,15.75-79.53-11.38-109.73l-.12-.1c8.2-25.25,5.24-52.79-8.14-75.72-20.32-35.2-61.01-53.4-100.72-45.01l-.16.06C215.34,11.1,190.01-.11,163.47,0h0ZM163.47,24.12h0s-.12.13-.12.13c16.29,0,31.93,5.6,44.49,15.96l-75.86,43.8c-.97.56-1.83,1.23-2.59,1.99-2.32,2.25-3.66,5.39-3.66,8.76v100.03l-31.66-18.25-.02-82.64c-.01-8,1.39-15.9,4.05-23.37l-.22-.05c9.57-26.97,35.3-46.31,65.59-46.35h0ZM254.26,53.05c23.49.52,46.17,12.93,58.83,34.78h0s-.17-.04-.17-.04c8.14,14.1,11.12,30.46,8.43,46.51l-75.86-43.8c-.97-.56-1.98-.97-3.01-1.25-3.11-.89-6.51-.48-9.43,1.21l-86.63,50.01-.03-36.54,71.56-41.33c6.92-4.01,14.46-6.75,22.27-8.18l-.06-.22c4.69-.87,9.42-1.25,14.11-1.15h0ZM69.59,91.46v87.6c0,1.12.15,2.21.43,3.24.79,3.14,2.84,5.86,5.76,7.55l86.63,50.01-31.63,18.3-71.57-41.31c-6.93-3.99-13.07-9.15-18.21-15.19l-.16.16c-18.57-21.77-22.45-53.73-7.35-79.98h0l.04.17c8.14-14.1,20.82-24.86,36.06-30.55h0ZM235.43,112.93l71.57,41.31c6.93,3.99,13.07,9.15,18.21,15.19l.16-.16c18.57,21.77,22.45,53.73,7.35,79.98h0l-.04-.17c-8.14,14.1-20.82,24.86-36.06,30.55v-87.6c0-1.12-.15-2.21-.43-3.24-.79-3.14-2.84-5.86-5.76-7.55l-86.63-50.01,31.63-18.3ZM183.1,143.1l36.76,21.22v42.45l-36.76,21.22-36.76-21.23v-42.45l36.76-21.22ZM240.49,176.31l31.66,18.25v82.64c.02,8-1.38,15.89-4.04,23.37l.22.05c-9.57,26.97-35.3,46.31-65.59,46.35h0s.12-.13.12-.13c-16.29,0-31.93-5.6-44.49-15.96l75.86-43.8c.97-.56,1.83-1.23,2.59-1.99,2.32-2.25,3.66-5.39,3.66-8.76v-100.03ZM219.8,230.63l.03,36.54-71.56,41.33c-6.92,4.01-14.46,6.75-22.27,8.18l.06.22c-28.14,5.2-57.75-7.42-72.94-33.63h0s.17.04.17.04c-8.14-14.1-11.12-30.46-8.43-46.51l75.86,43.8c.97.56,1.98.97,3.01,1.25,3.11.89,6.51.48,9.43-1.21l86.63-50.01Z"/></g></svg>