<?xml version="1.0" encoding="UTF-8"?><svg id="Layer_2" xmlns="http://www.w3.org/2000/svg" width="100%" height="100%" viewBox="0 0 741.44 731.14"><defs><style>.cls-1{fill:currentColor;}</style></defs><g id="Layer_1-2"><g id="Layer_2-2"><path class="cls-1" d="M737.61,313.71C681.14-44.26,200.17-117,37.21,205.78c-112.75,230.26,43.38,500.8,298.3,524.55-1.97,1.1,94.68,1.73,45.26-2.56-19.07-1.53-47.99-7.96-70.51-15.67C19.13,609.5,20.17,207.3,311.66,106.47c191.79-67.84,407.36,68.69,426.3,270.13.77,9.1,1.38,11.3,2.55,9.2,2.16-3.85.3-49.94-2.9-72.09Z"/><path class="cls-1" d="M680.45,390.19c-65.99,71.42-190.3,29.92-201.3-65.68-7.61-52.66,27.86-105.19,78.43-123.99C182.23,28.27-2.95,625.76,413.94,684.75c169.35,14.11,308.51-137.14,276.89-303.18-.42-.68-5.09,3.2-10.38,8.62Z"/></g></g></svg>