<?xml version="1.0" encoding="UTF-8"?><svg id="Layer_2" xmlns="http://www.w3.org/2000/svg" width="100%" height="100%" viewBox="0 0 947.01 947.05"><defs><style>.cls-1{fill:white;}</style></defs><g id="svg2"><g id="g8"><path id="path10" class="cls-1" d="M218.23,0c11.96,2.59,19.77,12.55,25.59,22.69,8.15,14.24,14.15,30.29,18.87,46.33,11.84,40.27,18.76,83.31,23.53,126.68.01.15.13.25.28.25.15.01.27-.09.29-.24,5.43-37.16,12.4-74.72,25.88-108.19,1.93-4.81,4.48-9.81,7.67-15,21.44-34.99,39.96,2.16,46.75,20.49,6.09,16.47,11.24,35.01,15.43,55.64,7.05,34.77,12.41,72.27,16.08,112.47,1.27,13.91,2.6,30.81,3.99,50.75.01.16.13.28.29.29s.31-.09.33-.25c5.89-27.25,34.41-140.21,81.23-120.09,9.44,4.07,18.16,14.33,23.84,23.37,18.08,28.73,28.01,63.73,35.81,96.91.03.11.13.19.24.17.12-.01.2-.09.21-.21,3.76-61.39,10.37-123.12,24.28-182.07,3.36-14.24,19.77-79.44,43.53-71.16,8.56,2.97,14.96,13.39,18.8,21.52,5.25,11.13,9.57,22.91,12.96,35.32,7.13,26.17,12.52,52.85,16.16,80.01.03.16.16.28.32.28s.29-.12.31-.28c4.8-43.33,11.87-86.75,23.71-127.29,4.49-15.37,10.45-30.17,17.88-44.39,2.28-4.36,5.64-9.11,10.08-14.23,4.43-5.09,9.85-8.36,16.29-9.79h4.36c7.01,1.63,12.87,5.41,17.56,11.37,6.67,8.47,11.96,17.51,15.89,27.12,13.69,33.41,21.56,69.05,27.43,105.09.01.12.12.2.24.2s.23-.08.24-.2c2.61-16.25,6.37-32.23,11.29-47.89,3.05-9.77,7.99-22.29,15.29-29.55,15.95-15.81,28.61,15.33,32.09,25.87,6.07,18.36,10.67,37.93,13.81,58.71,4.39,29,7.39,57.2,9.01,84.61,3.84,64.77,2.64,128.65-3.6,191.65-2.45,24.8-6.37,49.24-11.76,73.32-2.01,9.03-4.77,18.48-8.28,28.33-3.61,10.13-15.99,39.47-31.37,23.75-2.93-3-5.27-6.23-7-9.68-5.59-11.16-9.75-22.77-12.48-34.84-.04-.19-.21-.32-.4-.31-.2.01-.35.17-.37.36-3.41,32.24-8.49,63.49-15.25,93.77-4.6,20.6-10.36,39.65-17.25,57.13-5.43,13.76-17.2,38.41-33.45,42.04-37.11,8.28-58.71-98.17-63.17-121.27-.01-.07-.07-.12-.13-.11-.08,0-.13.05-.13.12-3.99,58.49-10.61,117.89-24.35,174.36-3.67,15.09-18.59,71.03-39.65,68.85-26.29-2.73-41.77-83.39-45.52-104.03-.03-.15-.15-.24-.29-.24s-.27.11-.28.25c-4.89,44.19-12.29,89.47-23.57,130.16-7.45,26.89-17.49,55.83-33.93,78.65-5.25,7.29-11.35,12.77-18.28,16.43-17.85,9.41-34.99-5.12-44.33-19.11-8.25-12.36-15.11-26.04-20.57-41.04-19.2-52.64-28.99-109.35-34.91-165.28,0-.07-.05-.11-.12-.12-.07,0-.12.04-.13.11-1.89,9.11-4.27,19.77-7.12,31.99-3.28,14.04-23.19,94.44-51.39,66.47-7.81-7.75-13.29-20.12-17.39-31.47-3.79-10.53-6.92-20.85-9.4-30.95-13.85-56.44-20.53-116-24.45-174.99,0-.11-.09-.2-.2-.2-.11-.01-.21.07-.23.17-5.12,27.36-12.01,54.97-22.61,80.96-5.24,12.84-12.88,27.67-23.85,36.03-24.19,18.41-43.35-20.95-49.97-37.65-6.76-17.03-12.37-35.35-16.81-54.95-7.05-31.17-12.32-63.23-15.79-96.15-.01-.17-.16-.31-.33-.32-.17-.01-.33.09-.37.27-3.47,13.92-8.2,28.44-16.05,40.51-1.33,2.04-3.24,4.01-5.71,5.93-17.47,13.57-30.6-28.59-33.31-38.28-9.87-35.27-14.77-71.96-17.75-108.97-5.17-64.69-5.21-129.25-.13-193.68,2.23-28.09,5.65-54.32,10.28-78.65,3.55-18.68,7.91-36.91,15.36-53.6,2.83-6.32,7.39-14.51,13.61-17.93,24.31-13.35,38.69,68.57,40.76,80.48.03.12.13.21.25.2.12,0,.23-.09.24-.21,4.28-28.71,10.65-56.44,19.11-83.2,4.35-13.77,9.75-26.36,16.2-37.75C194.11,12.61,201.92,2.72,213.83,0h4.4Z"/><path id="path12" class="cls-1" d="M27.29,395.57c-15.08,0-27.29-49.53-27.29-110.64s12.21-110.64,27.29-110.64,27.29,49.53,27.29,110.64-12.21,110.64-27.29,110.64h0Z"/><path id="path14" class="cls-1" d="M919.73,395.57c-15.07,0-27.28-49.53-27.28-110.64s12.21-110.64,27.28-110.64,27.28,49.53,27.28,110.64-12.21,110.64-27.28,110.64Z"/></g></g></svg>