<?xml version="1.0" encoding="UTF-8"?><svg id="Layer_2" xmlns="http://www.w3.org/2000/svg" width="100%" height="100%" viewBox="0 0 325.26 246.52"><defs><style>.cls-1{fill:white;}</style></defs><g id="Layer_1-2" image-rendering="optimizeQuality" shape-rendering="geometricPrecision" text-rendering="geometricPrecision"><path class="cls-1" d="M275.53,20.64C254.15,10.86,231.59,3.93,208.41,0c-3.16,5.67-6.02,11.51-8.57,17.48-12.33-1.86-24.78-2.8-37.25-2.8-12.45,0-24.96.95-37.25,2.78-2.51-5.93-5.43-11.8-8.59-17.45-23.18,3.96-45.74,10.91-67.13,20.68C7.14,83.52-4.37,144.79,1.38,205.19c24.87,18.37,52.71,32.35,82.31,41.31,6.64-8.96,12.58-18.5,17.63-28.42-9.63-3.59-18.92-8.02-27.77-13.25,2.33-1.69,4.6-3.43,6.8-5.12,25.73,12.08,53.84,18.39,82.28,18.39s56.55-6.3,82.28-18.39c2.23,1.82,4.5,3.56,6.8,5.12-8.87,5.24-18.18,9.69-27.82,13.29,5.07,9.95,10.96,19.45,17.63,28.4,29.62-8.94,57.48-22.91,82.36-41.3h0c6.75-70.04-11.54-130.75-48.35-184.57h0ZM108.6,168.05c-16.04,0-29.29-14.56-29.29-32.46s12.79-32.59,29.24-32.59,29.6,14.68,29.32,32.59c-.28,17.91-12.92,32.46-29.27,32.46h0ZM216.66,168.05c-16.07,0-29.27-14.56-29.27-32.46s12.79-32.59,29.27-32.59,29.52,14.68,29.24,32.59-12.89,32.46-29.24,32.46Z"/></g></svg>