<?xml version="1.0" encoding="UTF-8"?><svg id="Layer_2" xmlns="http://www.w3.org/2000/svg" width="100%" height="100%" viewBox="0 0 1033.14 564.98"><defs><style>.cls-1{fill:white;}</style></defs><g id="Layer_1-2"><path class="cls-1" d="M945.02,304.38h0s-4.76,0-4.76,0c-1.17,0-2.27.35-3.33,1.44-1.32,1.34-1.52,3.07-1.2,4.75,3.86,20.61,5.85,40.73,6.5,59.7h-59.77c-1.35,0-2.47.48-3.36,1.36-.94.93-1.52,2.11-1.52,4.06v17.15c0,3.41,2.36,5.32,5.19,5.32h59.44c-.44,13.11-1.47,25.43-2.87,36.45-1.07,8.44-2.34,16.35-3.69,23.54-.26,2.06.29,3.35,1.28,4.46,1.19,1.19,2.57,1.47,4.21,1.47h5.93s9.22,0,9.22,0c2.35,0,4.09-1.08,5.13-2.15,1.54-1.58,1.8-3.27,1.97-4.24,1.21-7.03,2.36-14.74,3.32-22.94,1.3-11.07,2.25-23.44,2.66-36.6h58.57c2.84,0,5.19-1.91,5.19-5.32v-17.15c0-1.94-.57-3.13-1.51-4.06-.89-.88-2.01-1.36-3.36-1.36h-58.87c-.36-11.34-1.16-23.08-2.52-35.11-.92-8.1-2.08-16.32-3.52-24.61-.29-1.69-.88-3.37-2.61-4.71-1.15-.89-2.74-1.46-3.82-1.46h-8.04s-.02,0-.03,0h-1.6s-2.22,0-2.22,0Z"/><path class="cls-1" d="M549.89,0c-38.79,0-76.72,4.76-113.3,13.94-30.61,7.68-59.89,18.45-87.61,32.09-10.26,5.05-19.94,10.33-29.13,15.79-17.91,10.64-34.22,22-49.51,34.35-11.84,9.57-22.53,19.28-31.78,28.44-6.17,6.11-11.86,12.06-17.84,18.74-.54.61-1.05,1.17-1.58,1.76-.94,1.05-2.07,2.67-1.51,4.9.18.72.58,1.37,1.13,1.9,1.03.9,2.22,1.12,3.3,1.04,1.28-.1,2.71-.85,3.52-1.46.54-.41,1.06-.88,1.55-1.38,1.83-1.88,3.52-3.74,5.29-5.57,3.18-3.29,6.42-6.53,9.76-9.76,12.62-12.22,28.39-25.55,45.58-37.76,9.31-6.61,19.09-13.02,29.74-19.27,8.74-5.13,25.21-14.35,46-23.3,18.43-7.93,36.32-14.09,53.13-18.86,12.14-3.45,24.7-6.46,37.38-8.89,11.25-2.16,22.63-3.89,34.08-5.23,17.59-2.05,35.14-3.01,52.69-3.01,40.72,0,82.3,5.48,122.24,16.66,14.43,4.04,28.49,8.76,42.2,14.16,17.78,7.01,34.14,14.71,51.61,24.51,32.19,18.04,60.87,39.98,86.71,66.05,12.55,12.67,23.41,25.43,32.79,37.91,11.7,15.57,21.11,30.68,28.59,44.48,4.78,8.81,8.78,17.09,12.03,24.35,6.85,15.31,10.93,27.82,10.93,27.82.43,1.18.75,1.68,1.26,2.46,1.25,1.66,3.24,2.63,5.26,2.63h16.64c1.26,0,1.83-.26,2.51-.66.62-.36,1.49-1.2,1.88-2.1.46-1.06.58-2.48.16-3.77-5.99-17.9-14.17-36.69-23.85-54.76-15.09-28.15-37.98-62.58-71.35-95.34-29.47-28.93-59.17-49.3-83.97-63.53-30.83-17.68-63.53-31.46-98.21-41.39C636.47,6,593.09,0,549.89,0Z"/><path class="cls-1" d="M473.52,382.36c.58.08.71.11,1.26.16,6.42.88,11.42,1.78,15.92,2.93,5.19,1.33,9.6,2.95,12.83,4.75,2.44,1.36,4.37,2.81,5.96,4.41.91.91,1.73,1.94,2.47,2.99,1.12,1.6,2.67,4.49,3.46,6.3.66,1.52,1.07,2.68,1.21,3.12.78,2.34,1.34,4.79,1.66,7.3.54,4.2.5,8.15-.1,11.89-.61,3.85-1.93,9.51-6.38,15.46-3.79,5.07-9.08,9.12-15.3,12.1-7.49,3.63-15.4,5.42-23.31,6.33-14.79,1.63-30.95-1.31-44.18-7.88-4.22-2.12-7.91-4.31-11.21-6.77-3.22-2.4-6.28-5.13-8.55-8.25-3.6-4.93-4.96-9.28-4.93-13.64.03-4.13,1.34-7.88,3.34-10.68,2.28-3.43,5.96-5.91,10.14-7.65,7.06-2.93,15.75-3.74,22.76-3.5,8.51.32,23.81,2.97,31.9,5.83,2.23.81,10.48,4.02,11.93,5.49,1.02,1.02,1.68,2.52,1.24,3.89-1.87,5.68-15.58,8.65-19.52,9.22-10.62,1.63-16.21-2.39-28.27-7.15-3-1.16-6.99-2.47-10.04-2.76-3.05-.28-6.45.07-9.05,1.47-2.65,1.42-4.06,3.8-4.02,6.36.04,2.41,1.94,4.6,5.89,6.33,1.77.76,3.45,1.39,5.08,1.9,4.34,1.36,8.38,1.92,13,1.97,9.05.15,18.64-.5,27.87-2.42,9.95-2.07,19.48-5.63,27.47-11.28,2.08-1.5,4.15-3.68,4.18-6.46.08-5.6-9.75-9.01-9.75-9.01-8.66-3.63-23.2-5.5-33.72-6.63-2.06-.22-3.96-.45-5.64-.62-1.87-.16-4.06-.36-6.18-.54-1.63-.14-3.11-.25-4.94-.39-1.68-.13-3.87-.29-5.51-.44-3.63-.32-6.88-.64-9.42-.91-1.28-.14-4.64-.52-8.05-1.12-2.4-.42-4.82-.89-7.13-1.81-2.15-.86-4.34-2.26-6.08-4.1-1.53-1.63-2.69-3.55-3.07-5.48-1.79-7.04.5-15.74,4.41-21.39,10.3-14.77,34.37-20.36,52.35-22.57,17.4-2.18,45.54-2.15,62.65,6.94,2.63,1.39,3.99,2.73,3.44,5.54-1.13,5.31-5.1,8.72-9.93,10.22-5.05,1.6-15.53,2.22-20.13,2.51-20.6,1.16-45.54.54-65.17,5.9-1.52.45-4.18,1.16-5.05,2.13-1.65,1.79.04,2.89,2.27,3.6,1.64.52,3.74.87,6.56,1.29l43.38,5.12Z"/><path class="cls-1" d="M625.48,438.18c-3.84,9.01-13.98,18.66-26.55,12.67-12.43-5.99-32.22-46.49-32.22-46.49,0,0-7.52-15.11-8.94-14.72,0,0-1.63-2.94-2.63,13.56-1.03,16.42.21,48.46-6.36,53.5-6.2,5.05-13.72,3.05-17.64-2.86-3.52-5.83-4.99-19.66-3.08-43.94,2.29-24.33,7.94-50.22,15.17-58.28,7.2-7.99,12.98-2.18,15.24-.08,0,0,9.65,8.75,25.57,34.42l2.79,4.76s14.46,24.25,15.98,24.2c0,0,1.18,1.1,2.23.29,1.52-.42.89-8.2.89-8.2,0,0-3-26.44-16.16-71.19,0,0-2-5.57-.66-10.8,1.34-5.28,6.62-2.81,6.62-2.81,0,0,20.45,10.27,30.38,43.57,9.86,33.29,3.23,63.33-.66,72.4"/><path class="cls-1" d="M739.4,365.28c-14.45,3.34-52.48,5.18-52.48,5.18l-4.81,15.03s19-1.63,32.85-.18c0,0,4.47-.53,4.99,5.1.18,5.23-.45,10.83-.45,10.83,0,0-.29,3.39-5.1,4.26-5.2.89-40.97,2.26-40.97,2.26l-5.78,19.58s-2.15,4.55,2.68,3.23c4.47-1.18,41.94-8.23,46.8-7.2,5.26,1.29,11.04,8.25,9.35,14.61-2,7.89-39.39,31.72-62.15,30.07,0,0-11.98.76-22.1-15.38-9.41-15.4,3.57-44.55,3.57-44.55,0,0-5.94-13.59-1.63-18.21,0,0,2.58-2.31,10.06-2.84l9.14-18.98s-10.43.71-16.63-6.97c-5.81-7.28-6.28-10.62-1.84-12.64,4.73-2.34,48.22-10.28,78.12-9.28,0,0,10.41-1.03,19.42,17.03,0,0,4.36,7.28-3.07,9.04"/><path class="cls-1" d="M837.72,375.49s-.14-1.11-.68-2.22c-1.14-2.34-4.06-4.7-11.2,3.32-9.01,9.96-25.31,28.67-38.42,54.08,13.77-1.55,27.04-9.01,31.03-12.82,3.85-3.41,10.71-10.27,15.19-19.62,2.47-5.15,4.24-11.06,4.35-17.57.03-1.69-.07-3.41-.28-5.18M844.95,418.27c-9.3,16.24-35.58,50.21-70.48,42.2-4.29,10.39-8.32,20.83-11.98,32.03-6.18,18.9-11.32,39.95-14.8,66.52,0,0-1.21,8.23-8.04,5.36-5.37-1.87-13.48-9.32-17.74-20.06-1.12-2.83-1.95-5.79-2.41-9.04-.61-5.08-.53-11.12.26-17.79,1.42-11.99,5.03-26.34,10.64-42.24,3.86-10.95,8.67-22.63,14.38-34.8-5.41-8.83-9.12-21.44-5.97-39.39,0,0,1.53-10.96,9.15-25.98,5.67-11.18,14.73-24.6,29.01-37.43,0,0,4.02-3.48,6.33-2.4,2.58,1.08,1.41,11.91-.64,17.19-2.1,5.26-17.03,31.09-17.03,31.09,0,0-9.3,17.42-6.67,31.17,8.17-12.54,21.15-31.02,35.2-45.49,12.13-12.48,25.06-21.98,36.35-22.08,6.57-.06,13.09,3.13,17.52,11.29,3.6,6.63,5.31,15.54,5.31,24.83,0,12.25-2.94,25.31-8.41,35.03"/><path class="cls-1" d="M360.72,318.84s-2.66,4.79-3.29,5.68c-.3.48-1.26,1.81-2.45,2.83-.92.79-1.91,1.34-3.23,1.46-1.36.12-2.74-.38-4.22-1.61-3.55-3.15-5.58-7.96-5.73-12.69-.08-2.08.26-4.36-.14-6.1-.35-1.55-1.31-3.14-2.39-4.71-.97-1.42-2.01-2.76-2.76-4.1-.67-1.18-1.21-2.37-1.65-3.47-1.4-3.49-1.78-6.57-1.92-9.4-.63-11.61,5.49-22.4,13.45-30.83,8.04-8.57,18.43-15.6,29.83-20.44,10.8-4.55,26.69-7.65,38.54-3.55,3.86,1.34,9.22,4.62,11.93,8.04.58.74,1.05,1.5,1.63,1.87.53.34,1.89.47,3,.68,3.78.66,9.22,3.52,11.46,5.41,4.44,3.86,6.88,7.54,8.01,12.88,1.07,5.01.2,10.69-1.82,15.76-2.14,5.36-5.52,10.28-9.14,13.96-12.06,12.35-23.99,21.05-39.44,27.09-4.93,1.93-11.53,3.51-16.69,4.12-2.72.32-5.27.41-7.73.32-2.71-.11-5.41-.47-7.7-.89,0,0-5.7-1.16-7.55-2.32h0ZM386.35,300c6.15-.6,11.52-1.69,16.47-3.26,2.68-.85,5.38-1.94,7.99-3.2,5.71-2.75,11.54-6.76,15.25-10.12,1.96-1.78,3.67-3.61,5.02-5.41,2.69-3.59,4.29-7.64,3.79-11.91-.42-3.57-2.76-6.28-5.73-7.54-6.56-2.86-13.97.54-19.34,3.64-3.86,2.24-9.7,6.56-15.15,11.2-6.45,5.49-12.59,11.72-16.44,16.7-2.18,2.98-4.41,5.92-6.44,9.01.31.86,7.49,1.26,11.46,1M350.88,290.35c2.1-3.32,4.54-6.57,6.89-9.63,2.6-3.39,7.12-8.5,8.88-10.38,3.93-4.16,8.12-8.22,11.71-11.31,2.15-1.81,4.6-3.89,4.6-3.89,0,0-1.72.03-3.96.48-1.08.21-2.98.71-4.53,1.28-1.89.69-3.44,1.34-4.8,2.03-4.26,2.16-7.97,5.07-9.71,6.56-3.22,2.77-6.62,6.4-8.78,10.33-1.26,2.29-2.12,4.71-2.27,7.09-.11,1.65.14,3.29.78,4.89.47,1.13,1.19,2.54,1.19,2.54"/><path class="cls-1" d="M374.5,342.68c.47.08,1.18.29,1.81.53,5.41,2.05,7.65,7.07,8.99,12.59,3.07,12.77,4.39,41.05,4.91,52.11.37,8.3.58,16.48.92,24.7.29,6.94.87,16.19-.58,22.7-.53,2.34-2.1,5.07-4.36,6.46-2.55,1.66-8.41,1.79-11.64,1.1-7.91-1.63-10.48-6.73-11.61-14.56-2.71-18.71-1.39-55.45.18-70.92.53-5.12,2.44-21.52,5.12-28.38.92-2.34,2.86-6.99,6.25-6.33"/><path class="cls-1" d="M83.52,207.79c-6.31-.09-17.71-.02-30.82,1.63-9.01,1.13-18.36,2.88-26.96,5.26-4.76,1.29-8.73,2.86-12.18,5.11-3.93,2.57-7.17,6-9.76,10.55-2.42,4.26-4.69,8.94-3.46,13.67,1.05,3.99,6.48,5.31,11.38,6.14,4.41.68,14.43,1.2,17.08-2.03.75-.78,1.09-2.98.08-4.44-1-1.76-3.52-3.03-5.94-3.47-2.04-.37-5.47-.71-7.61-1.02-1.47-.21-2.24-.46-2.63-.67-.11-.06-.2-.12-.26-.17-.11-.09-.12-.2-.12-.2,0,0,.04-.1.13-.19.12-.12.28-.27.46-.4,1.7-1.1,7.16-2.65,8.54-3,6.24-1.73,15.85-2.76,23.7-3.17,7.75-.4,15.62-.4,22.05-.17,25.98.83,51.17,5.01,76.43,12.22,13.69,3.91,27.66,8.77,42.46,14.58,20.79,8.24,42.13,19.52,61.83,33.39,17.46,12.3,33.02,26.23,45.1,41.64,7.31,9.42,16.06,23.6,20.43,37.38,1.49,4.68,2.75,10.05,2.89,16.39.13,6.14-.8,13.2-3.45,20.16-4.98,13.08-15.49,25.28-32.81,34.33-6.4,3.35-13.74,6.28-22.06,8.65-8.98,2.56-18.24,4.2-27.46,5.19-10.87,1.18-21.73,1.43-32.78,1.13-1.55-.04-4.82-.23-8.54-.57-9.47-.86-18.08-2.34-23.03-3.27l-1.71-79.99c12.4.19,26.04,1.65,38.9,3.89,7.18,1.25,19.31,3.68,34.26,8.51,3,1.01,6.58,3.19,6.87,6.37.12,1.35-.37,2.53-1.22,3.67-2.25,3.02-5.94,5.28-9.06,6.79-1.88.91-3.52,1.6-4.26,2.44-.81,1.1-.88,2.68.25,3.58,1.55,1.22,3.97,2.09,6.43,2.65,12.4,2.82,20.66-2.74,25.47-8.02,5.2-5.72,6.69-10.15,7.18-14.79.84-7.96-2.8-14.2-4.63-16.79-4.56-6.42-11.58-10.74-17.23-13.44-12.81-6.13-27.44-9.29-34.86-10.61-9.44-1.68-21.46-3.04-35.35-3.32-6.46-.13-12.96.18-12.96.18,0,0-.26-10.85-.74-18.05-.79-11.85-4.07-35.11-14.85-41.81-1.97-1.21-4.39-1.34-5.76.5-2.1,2.73-4.15,13.14-4.62,15.82-.45,2.55-.92,5.77-1.36,9.18-.69,5.37-1.28,11.35-1.67,16.2-.22,2.7-.82,11.5-.94,20.8-.13.13-.32.34-.5.47,0,0-4.85.73-11.04,1.96-20.36,4.05-34.5,9.68-40.05,12.12-9.91,4.34-24.12,12-28.43,22.05-1,2.49-1.42,4.04-1.54,6.58-.26,5.6,1.8,10.53,3.56,13.67,4.67,8.82,14.03,18.34,21.9,25.43,5.68,5.12,13.94,11.49,20.6,16.03,5.42,3.7,9.51,6.31,13.3,8.54,4.41,2.6,8.74,4.91,13.15,7.01,2.39,1.14,5.33,2.57,8.03,3.85,0,0,.4,3.79.93,8.13.54,4.65,1.01,9.36,2.86,13.71.71,1.58,1.52,2.99,2.64,4.24,3.1,3.47,6.59,4.19,8.05,4.46,2.96.54,5.78.25,8.75-.31,1.23-.23,2.5-.66,3.47-1.17,1.64-.85,2.9-2.13,3.78-3.96,1.31-2.63,1.79-6.82,1.82-7.35.16-2.41.05-5.12.05-5.12,0,0,9.56,2.27,16.23,3.48,10.95,1.93,21.46,3.08,33.93,3.27,15.05.23,31.1-1.7,48.29-5.85,10.39-2.51,20.27-5.83,29.93-10.31,8.96-4.16,16.97-9.11,23.91-14.85,5.22-4.31,10.66-9.72,15.9-17.17,1.49-2.12,2.81-4.17,3.79-5.86.3-.52,1.13-1.74,2.23-3.6,3.06-5.18,6.87-13.17,8.85-23.36.53-3.02.92-5.99,1.11-8.97.73-13.01-1.91-26.11-7-38.07-1.14-2.81-5.22-12.76-13.98-25.37-7.64-11-16.53-21.23-25.82-30.51-6.18-6.16-10.86-10.48-18.83-17.16-11.28-9.35-22.03-16.39-25.34-18.57-10.93-7.16-23.59-14.2-34.69-19.57-17.9-8.65-35.39-15.28-52.8-20.68-6.05-1.87-11.66-3.46-16.7-4.8-10.45-2.78-26.26-6.6-43.02-8.75-10.14-1.3-19.9-1.97-28.13-2.09h0ZM133.29,373.76s-.26,11.83-.32,23.78c-.06,12.35.09,24.82.23,33.61.12,7.33.24,12.11.24,12.11,0,0-8.52-2.79-12.93-4.99-8.09-3.48-15.79-7.54-23.15-12.13-9.3-5.81-17.11-11.74-24.4-18.28-1.49-1.34-4.12-3.88-5.45-5.21-3.34-3.31-6.7-6.67-5.9-11.17.6-3.44,7.97-6.71,10.8-7.49,6.73-1.92,13.53-3.66,20.74-5.14,7.65-1.56,15.06-2.77,20.38-3.35,7.34-1.12,19.74-1.73,19.74-1.73h0Z"/></g></svg>