<?xml version="1.0" encoding="UTF-8"?><svg id="Layer_2" xmlns="http://www.w3.org/2000/svg" width="100%" height="100%" viewBox="0 0 800 320.54"><defs><style>.cls-1{fill:currentColor;}</style></defs><g id="Capa_1"><path class="cls-1" d="M756.93,77.22l-68.05,136.67-68.22-136.67h-47.54l12.15,22.8c-16.08-24-47.81-30.09-76.83-30.09-84.89,0-90.32,46.48-90.32,53.91h42.25s2.23-27.14,45.17-27.14c27.91,0,49.55,12.78,49.55,37.33v8.75h-49.55c-54.9,0-88.19,13.42-97.68,40.58.99-6.01,1.53-12.24,1.53-18.73,0-52.18-35.19-94.15-94.62-94.15-55.64,0-72.94,30.04-72.94,30.04V0h-40.79v152.99c-.6-33.27-22.17-83.06-97.59-83.06C47.02,69.93,0,93.87,0,166.09c0,57.22,31.62,93.25,104.91,93.25,86.26,0,91.79-56.82,91.79-56.82h-41.8s-8.96,30.6-52.55,30.6c-35.49,0-61.03-23.98-61.03-57.59h159.71v47.55c0,12.66-.91,30.45-.91,30.45h39.87s1.43-12.77,1.43-24.44c0,0,19.69,30.82,73.25,30.82,45.68,0,79.48-25.7,90.68-65.25-.22,2.08-.35,4.22-.35,6.42,0,38.43,32.12,59.33,75.55,59.33,59.17,0,78.21-32.7,78.21-32.7,0,13,1.01,25.82,1.01,25.82h37.55s-1.46-15.88-1.46-26.06v-87.82c0-11.75-1.95-21.57-5.37-29.82l76.12,142.89-35.78,67.83h45.17l123.99-243.32h-43.07ZM42.25,148.62c0-32.94,30.07-51.73,59.73-51.73,33.79,0,56.82,20.7,56.82,51.73H42.25ZM304.74,232.3c-40.88,0-62.92-31.91-62.92-67.31,0-32.96,19.79-66.93,62.65-66.93,38.3,0,62.65,28.42,62.65,66.58,0,40.91-28.13,67.66-62.38,67.66ZM555.06,180.66c0,15.2-9.38,53-64.59,53-30.25,0-43.21-15.08-43.21-32.6,0-31.85,43.67-32.05,107.81-32.05v11.65h0Z"/></g></svg>