<?xml version="1.0" encoding="UTF-8"?><svg id="Layer_2" xmlns="http://www.w3.org/2000/svg" width="100%" height="100%" viewBox="0 0 233.65 233.66"><defs><style>.cls-1{fill:white;}</style></defs><g id="Layer_1-2"><path class="cls-1" d="M137.98,233.66c-52.76,0-95.68-42.92-95.68-95.68,0-7.77,6.3-14.08,14.08-14.08s14.08,6.3,14.08,14.08c0,37.23,30.29,67.52,67.52,67.52,7.77,0,14.08,6.3,14.08,14.08s-6.3,14.08-14.08,14.08ZM137.98,191.36c-7.77,0-14.08-6.3-14.08-14.08s6.3-14.08,14.08-14.08c17.71,0,34.47-6.88,47.19-19.38,12.93-12.7,20.15-29.85,20.34-48.28.08-7.77,6.43-14.04,14.22-13.93,7.77.08,14.01,6.44,13.93,14.22-.26,25.94-10.48,50.12-28.76,68.08-18.02,17.7-41.78,27.46-66.92,27.46ZM14.08,152.06s-.1,0-.15,0C6.16,151.98-.08,145.61,0,137.83c.26-25.94,10.48-50.12,28.76-68.08,18.02-17.7,41.78-27.46,66.92-27.46,7.77,0,14.08,6.3,14.08,14.08s-6.3,14.08-14.08,14.08c-17.71,0-34.47,6.88-47.19,19.38-12.93,12.7-20.15,29.85-20.34,48.28-.08,7.73-6.37,13.94-14.07,13.94ZM177.28,109.76c-7.77,0-14.08-6.3-14.08-14.08,0-17.71-6.88-34.47-19.38-47.19-12.7-12.93-29.85-20.15-48.28-20.34-7.77-.08-14.01-6.45-13.93-14.22.08-7.73,6.37-13.94,14.07-13.94.05,0,.1,0,.15,0,25.94.26,50.12,10.48,68.08,28.76,17.7,18.02,27.46,41.78,27.46,66.92,0,7.77-6.3,14.08-14.08,14.08Z"/></g></svg>