<?xml version="1.0" encoding="UTF-8"?><svg id="Layer_2" xmlns="http://www.w3.org/2000/svg" width="100%" height="100%" viewBox="0 0 417.1 261.5"><defs><style>.cls-1{fill:black;}</style></defs><g id="Layer_1-2"><path class="cls-1" d="M0,57.7v146.1c0,31.9,25.9,57.7,57.7,57.7h175.8c31.9,0,57.7-25.9,57.7-57.7V57.7C291.2,25.8,265.3,0,233.5,0H57.8C25.9-.1,0,25.8,0,57.7ZM379.3,18.6l-66.2,54.6c-5.9,4.9-9.3,12.1-9.3,19.7v75.6c0,7.6,3.3,14.7,9.1,19.6l66.2,55.6c15.1,12.6,38,1.9,38-17.7V36.4c.1-19.5-22.7-30.3-37.8-17.8h0Z"/></g></svg>