<?xml version="1.0" encoding="UTF-8"?><svg id="Layer_2" xmlns="http://www.w3.org/2000/svg" width="100%" height="100%" viewBox="0 0 64 40"><defs><style>.cls-1{fill:white;fill-rule:evenodd;}</style></defs><g id="Layer_1-2"><path class="cls-1" d="M30.94,10.32l3.87,20.14,3.44-20.14h9.27l3.38,20.14,3.87-20.14h9.22l-6.76,29.68h-10.42l-3.93-21.9-3.93,21.9h-10.47l-6.76-29.68h9.22ZM23.89,0l-1.36,6.4h-2.56c-3.22,0-3.93.17-4.47,2.43l-.27,1.49h6.49l-1.36,6.46h-6.49l-4.86,23.23H0l4.86-23.23H.82l1.36-6.46h3.98l.44-1.88C8.02,1.43,11.4,0,19.26,0h4.64Z"/></g></svg>