<?xml version="1.0" encoding="UTF-8"?><svg id="Layer_2" xmlns="http://www.w3.org/2000/svg" width="100%" height="100%" viewBox="0 0 500 201.97"><defs><style>.cls-1{fill:black;}</style></defs><g id="_Слой_1"><path class="cls-1" d="M227,198.97h-37.2v-6c-5.5,4.1-13.7,8.7-27.5,8.7-45,0-62.4-24.3-62.4-71.5V55.37h37.1v74.8c-.1,12.8,0,37,26.7,37s26-22.9,26-36.8V55.37h37.3v143.6ZM85.4,1.17C44.6-3.33,35.3,5.97,27.9,15.67c-6.6,8.6-7.4,20.6-7.4,29.2v10.5H0v34.4h20.8v109.2h37.2v-109.2h28v-34.4h-27.3v-9.7c0-9.9,7.9-11.1,11.9-10.9l8.2.4L85.4,1.17ZM500,127.17c0-41.3-33.2-74.8-74.2-74.8-16.7,0-33,5.7-46,16.2,8.1,9.3,14.2,20.3,17.7,32.2,6.7-8.5,16.7-13.9,27.8-13.9,20.3,0,36.8,17.9,36.8,40s-16.5,40-36.8,40-36.6-17.7-36.8-39.7c.1-18.2-6.4-35.8-18.3-49.6-13.3-15.5-32.8-25.2-54.5-25.2-13.1,0-26,3.6-37.1,10.5V2.17l-37.2,7.3v189.5h37.2v-6c10.9,6.6,23.6,9,37.1,9,16.5,0,32.6-5.8,45.3-16.3-8.3-9.3-14.5-20.2-18.3-32-6.7,8.9-16.7,14.6-27.8,14.6-20.1,0-36.4-18.4-36.4-41.2s16.3-41.2,36.4-41.2,36.4,18.4,36.4,41.2c0,41.3,33.3,74.8,74.3,74.8s74.4-33.4,74.4-74.7h0Z"/></g></svg>