<?xml version="1.0" encoding="UTF-8"?><svg id="Layer_2" xmlns="http://www.w3.org/2000/svg" width="100%" height="100%" viewBox="0 0 7.1 10.5"><defs><style>.cls-1{fill:black;fill-rule:evenodd;}</style></defs><g id="Layer_1-2"><path class="cls-1" d="M5.96,0C6.33,0,6.7,0,7.1,0c-.05.3-.09.58-.14.86-.27,1.54-.54,3.08-.81,4.63-.17.97-.33,1.94-.52,2.9-.26,1.32-1.25,1.92-2.27,2.07-.25.03-.49.04-.74.04-.86,0-1.71,0-2.57,0-.02,0-.03,0-.05-.01,0-.02,0-.05.01-.06.24-.43.47-.87.72-1.29.04-.06.15-.1.23-.1.75,0,1.5,0,2.25,0,.57,0,.87-.24.99-.81.06-.24.09-.46.15-.73-.13,0-.23,0-.34,0-.51-.01-1.03.01-1.54-.05-.77-.09-1.31-.58-1.46-1.26-.09-.37-.04-.74.03-1.1.17-.97.34-1.95.52-2.92C1.77.98,2.67.14,3.86.04,4.56-.01,5.26,0,5.96,0h0ZM4.28,1.47h-.37c-.5,0-.84.3-.93.8-.1.54-.2,1.08-.29,1.62-.08.49-.18.97-.23,1.46-.04.35.15.66.5.66h1.39c.18,0,.26-.06.29-.24.2-1.18.4-2.37.61-3.55.08-.44-.15-.74-.6-.75-.25,0-.49,0-.74,0h.37Z"/></g></svg>