<?xml version="1.0" encoding="UTF-8"?><svg id="Layer_2" xmlns="http://www.w3.org/2000/svg" width="100%" height="100%" viewBox="0 0 799.97 606.8"><defs><style>.cls-1{fill:black;}</style></defs><g id="Layer_1-2"><path class="cls-1" d="M720.81,39.4l-140.8,102.33c-22.22,16.26-27.13,47.42-11,69.73,16.23,22.24,47.39,27.18,69.7,11.03l140.73-102.33c22.33-16.33,27.1-47.43,11.07-69.77-15.97-22.25-46.96-27.35-69.22-11.38-.17.12-.35.25-.52.38h.03ZM399.17,0C371.57,0,349.24,22.33,349.24,49.9v84.03c0,27.58,22.36,49.93,49.93,49.93s49.93-22.36,49.93-49.93V49.93c0-27.63-22.33-49.93-49.93-49.93h0ZM9.61,50.4C-6.73,72.73-1.69,103.83,20.61,120.17l140.77,102.33c22.33,16.33,53.43,11.3,69.73-11.03,16.33-22.33,11.3-53.43-11.03-69.73L79.34,39.4c-22.31-16.17-53.49-11.25-69.73,11ZM132.77,310.07c73.2-65.65,168.08-101.93,266.4-101.87,102.33,0,195.67,38.63,266.43,101.83l-532.83.03ZM617.94,364.5c-44.9,0-74.53,14.77-93.33,33.1-19.83,19.57-34.1,50.17-34.1,88.33,0,43.37,18.8,71.47,33.63,86.27,28.1,28.1,64.2,34.6,94.3,34.6,49.4,0,76-15.27,92.8-31.57,13.28-12.85,22.82-29.08,27.6-46.93h-78c-3.28,6.32-8.24,11.62-14.33,15.3-10.27,5.5-24.53,6.03-26.57,6.03-18.3,0-28.6-6.27-33.6-11.3-9.8-9.53-14.33-25.83-14.33-38.13h169.83v-8.77c0-25.33-4-65.23-36.1-95.83-27.13-25.6-61.2-31.1-87.8-31.1h0ZM619.94,416.43c8.03,0,22.83,1.5,33.6,12.27,6.27,6.27,11.3,15.83,13.33,24.6h-92.33c1.5-10.27,6.77-18.57,12.3-24.6,8.53-8.77,19.33-12.27,33.1-12.27h0ZM58.27,371.27h81.5v27.6c19.33-23.33,45.9-31.63,68.23-31.63,16.33,0,31.63,3.53,43.9,10.33,16.83,8.77,26.1,21.3,31.6,32.57,9.33-16.3,20.87-26.07,31.13-31.6,16.33-9.27,32.1-11.27,47.43-11.27,16.77,0,44.37,2.5,63.2,20.8,20.33,19.83,21.33,46.93,21.33,62.73v148.5h-81.6v-112.67c0-24.07-2.5-40.33-11.77-48.9-4.53-4-10.8-7.53-21.33-7.53-8.95-.31-17.65,3.05-24.07,9.3-13.8,13.3-14.8,32.1-14.8,43.4v116.9h-81.5v-112.67c0-21.8-1.5-39.33-10.8-48.9-7-7.53-16.33-9.27-24.57-9.27-8.8,0-15.8,1.5-22.33,8.27-14.3,13.8-14.3,35.63-14.3,49.93v112.63H58.01v-228.53h.27Z"/></g></svg>