<?xml version="1.0" encoding="UTF-8"?><svg id="Layer_2" xmlns="http://www.w3.org/2000/svg" width="100%" height="100%" viewBox="0 0 666.69 550.01"><defs><style>.cls-1{fill:black;}</style></defs><g id="Layer_1-2"><path class="cls-1" d="M55.16,550.01C25.11,550.01.45,525.79,0,495.65c-.01-.75,0-1.51.01-2.26V160.97c0-2.29.94-4.37,2.44-5.87L154.09,2.48c1.51-1.53,3.6-2.48,5.91-2.48h308.36c.29,0,.58.02.87.05,28.81,3.01,51.91,26.11,54.92,54.92.03.29.04.58.04.87v87.78l81.46-65.12s0,0,0,0c19.59-15.62,34.61-12.13,41.82-8.65,11.85,5.7,19.21,18.8,19.21,34.17v342c0,17.25-6.53,30.29-17.92,35.78-7.05,3.39-22.01,6.57-43.11-10.26l-81.47-65.13v87.12c0,.25-.01.51-.03.76-2.68,29.19-25.78,52.61-54.92,55.69-.29.03-.58.05-.88.05H55.91c-.25,0-.5,0-.75,0ZM16.69,397.33v96.17c0,.08,0,.16,0,.24-.02.56-.02,1.11-.01,1.67.31,21.03,17.52,37.93,38.49,37.94.19,0,.38,0,.57,0h95.96v-136H16.69ZM168.35,533.33h299.54c20.95-2.42,37.53-19.24,39.62-40.23v-100.04l-126-100.73v96.67c0,4.6-3.73,8.33-8.33,8.33h-204.83v136ZM8.35,493.5h0,0ZM524.19,385.05l91.87,73.44c10.2,8.14,19.49,11.15,25.48,8.27,5.31-2.56,8.48-10.32,8.48-20.76V104c0-8.78-3.84-16.29-9.77-19.15-6.37-3.06-14.96-.7-24.19,6.66l-91.87,73.44v220.09ZM168.35,380.67h196.5v-211.33h-196.5v211.33ZM16.69,380.67h135v-211.33H16.69v211.33ZM386.53,275l120.99,96.72v-193.45l-120.99,96.72ZM168.35,152.67h204.83c4.6,0,8.33,3.73,8.33,8.33v96.67l126-100.73V56.29c-2.36-20.69-18.93-37.26-39.62-39.62H168.35v136ZM28.38,152.67h123.31V28.55L28.38,152.67Z"/></g></svg>