<?xml version="1.0" encoding="UTF-8"?><svg id="Layer_2" xmlns="http://www.w3.org/2000/svg" width="100%" height="100%" viewBox="0 0 800.03 300"><defs><style>.cls-1{fill:white;}</style></defs><g id="Layer_1-2"><path class="cls-1" d="M800.03,66.68l-104.43,233.33h-32.3l38.8-81.65-68.75-151.7h33.97l49.75,116.28h.65l48.18-116.28,34.13.03ZM366.18,138.83v94.53h-32.82V.03h86.85c20.7-.52,40.75,6.65,56.25,20.18,15.37,12.63,23.82,30.47,23.58,49.35.25,19.15-8.48,37.5-23.58,49.48-15.1,13.28-33.85,19.8-56.25,19.8h-54.02ZM366.06,28.8v81.38h54.95c12.1.4,23.95-4.03,32.43-11.98,8.48-7.55,13.15-17.85,13.15-28.52s-4.7-21.1-13.15-28.52c-8.73-8.33-20.45-12.75-32.43-12.37l-54.95.02ZM565.78,66.68c20.83,0,37.38,5.85,49.48,17.45s18.1,27.47,18.1,47.65v96.47h-27.08v-21.75h-1.18c-11.72,17.85-27.23,26.82-46.62,26.82-16.67,0-30.47-5.07-41.67-15.37-10.95-9.63-17.05-23.7-16.8-38.28,0-16.15,5.85-29.02,17.7-38.68,11.72-9.5,27.48-14.32,47.13-14.32,16.8,0,30.6,3.25,41.4,9.63v-6.77c.12-9.9-4.17-19.4-11.6-26.05-7.43-6.9-17.2-10.8-27.35-10.68-15.75,0-28.25,6.9-37.5,20.7l-24.88-16.15c13.68-20.45,33.97-30.73,60.8-30.73l.08.05ZM529.21,180.35c-.12,7.55,3.38,14.58,9.38,19.15,6.25,5.07,14.07,7.82,22,7.67,11.85,0,23.3-4.95,31.77-13.68,8.97-8.33,14.07-20.05,14.07-32.3-8.85-7.3-21.1-10.95-36.85-10.95-11.6,0-21.1,2.87-28.78,8.6-7.67,5.85-11.6,12.9-11.6,21.47v.03ZM136.11.03c33.6-.4,66.15,11.98,91.02,34.77l-38.8,38.02c-14.2-13.15-32.95-20.32-52.22-19.92-34.63.13-65.22,22.27-76.42,54.95-5.73,16.53-5.73,34.5,0,51.05,11.2,32.67,41.8,54.83,76.42,54.95,18.35,0,34.12-4.55,46.35-12.62,14.2-9.38,24.1-23.95,27.08-40.62h-73.45v-51.3h128.25c1.57,8.98,2.35,17.97,2.35,27.08,0,40.62-14.85,75-40.5,98.18-22.53,20.32-53.38,32.15-90.1,32.15-51.17.25-98.05-28.12-121.62-73.45-19.28-37.62-19.28-82.15,0-119.8C38.03,28.13,84.91-.25,135.93,0l.17.02Z"/></g></svg>