<?xml version="1.0" encoding="UTF-8"?><svg id="Layer_2" xmlns="http://www.w3.org/2000/svg" width="100%" height="100%" viewBox="0 0 650 700.01"><defs><style>.cls-1{fill:white;}</style></defs><g id="Layer_1-2"><path class="cls-1" d="M0,42.96v614.06c.01,3.74,3.05,6.76,6.79,6.74,1.77,0,3.47-.7,4.73-1.95l319.73-311.81L11.52,38.16c-2.66-2.62-6.94-2.59-9.57.07-1.24,1.26-1.94,2.96-1.95,4.73Z"/><path class="cls-1" d="M465.31,221.88L64.41,1l-.25-.14c-6.91-3.75-13.47,5.59-7.81,11.03l314.27,300.5,94.7-90.52Z"/><path class="cls-1" d="M56.38,688.11c-5.69,5.44.87,14.78,7.81,11.03l.25-.14,400.87-220.88-94.7-90.55L56.38,688.11Z"/><path class="cls-1" d="M627.16,310.94l-111.95-61.66-105.27,100.72,105.27,100.67,111.95-61.61c30.45-16.83,30.45-61.3,0-78.12Z"/></g></svg>