<?xml version="1.0" encoding="UTF-8"?><svg id="Layer_2" xmlns="http://www.w3.org/2000/svg" width="100%" height="100%" viewBox="0 0 800 679.77"><defs><style>.cls-1{fill:currentColor;}</style></defs><g id="Capa_1"><path class="cls-1" d="M269.98,0L0,476.7l111.03,203.07,553.7-.11,135.28-230.26L527.04.69l-257.06-.69ZM66.33,477.19L286.99,87.52l65.47,114.3-224.01,388.99-62.11-113.61ZM385.81,260.04l91.99,160.59-184.45-.02,92.46-160.57ZM631.55,621.7l-453.4.09,83.2-143.23,249.65.03.26.46,204.28-.33-83.99,142.97ZM544.59,420.64L348.39,78.1l-11.46-20.01,157.47.47,220.27,362.1-170.08-.02Z"/></g></svg>