<?xml version="1.0" encoding="UTF-8"?><svg id="Layer_2" xmlns="http://www.w3.org/2000/svg" width="100%" height="100%" viewBox="0 0 33.33 32"><defs><style>.cls-1{fill:currentColor;}</style></defs><g id="Layer_1-2"><path id="mark" class="cls-1" d="M12.87,20.54l11.08-8.19c.54-.4,1.32-.24,1.58.38,1.36,3.29.75,7.24-1.96,9.96-2.71,2.71-6.48,3.31-9.93,1.95l-3.77,1.75c5.4,3.7,11.96,2.78,16.06-1.32,3.25-3.26,4.26-7.69,3.32-11.69h0c-1.37-5.87.34-8.22,3.82-13.02.08-.11.16-.23.25-.34l-4.59,4.59h0s-15.88,15.95-15.88,15.95"/><path id="mark-2" class="cls-1" d="M10.59,22.53c-3.88-3.71-3.21-9.45.1-12.75,2.45-2.45,6.45-3.45,9.95-1.98l3.76-1.74c-.68-.49-1.54-1.02-2.54-1.39-4.5-1.85-9.89-.93-13.54,2.73-3.52,3.52-4.62,8.94-2.72,13.56,1.42,3.45-.91,5.9-3.25,8.36-.83.87-1.66,1.75-2.34,2.67l10.58-9.47"/></g></svg>