<?xml version="1.0" encoding="UTF-8"?><svg id="Layer_2" xmlns="http://www.w3.org/2000/svg" width="100%" height="100%" viewBox="0 0 733.33 733.33"><defs><style>.cls-1{fill:black;}</style></defs><g id="a"><path class="cls-1" d="M366.67,733.33c-49.5,0-97.52-9.7-142.73-28.82-43.66-18.47-82.88-44.91-116.55-78.58s-60.11-72.88-78.58-116.55C9.7,464.18,0,416.16,0,366.67s9.7-97.52,28.82-142.73c18.47-43.66,44.9-82.88,78.58-116.55s72.88-60.11,116.55-78.58C269.15,9.7,317.17,0,366.67,0s97.52,9.7,142.73,28.82c43.66,18.47,82.88,44.9,116.55,78.58s60.11,72.88,78.58,116.55c19.12,45.21,28.82,93.23,28.82,142.73s-9.7,97.52-28.82,142.73c-18.47,43.66-44.91,82.88-78.58,116.55s-72.88,60.11-116.55,78.58c-45.21,19.12-93.23,28.82-142.73,28.82ZM366.67,16.67c-93.49,0-181.38,36.41-247.49,102.51S16.67,273.18,16.67,366.67s36.41,181.38,102.51,247.49c66.11,66.11,154,102.51,247.49,102.51s181.38-36.41,247.49-102.51,102.51-154,102.51-247.49-36.41-181.38-102.51-247.49c-66.11-66.11-154-102.51-247.49-102.51Z"/><path class="cls-1" d="M549.75,548.88h-73.13c-4.59,0-8.32-3.71-8.33-8.31l-.47-154.05h-94.18c-4.6,0-8.33-3.73-8.33-8.33s3.73-8.33,8.33-8.33h102.46s.03,0,.05,0h73.61c4.6,0,8.33,3.73,8.33,8.33v162.35c0,4.6-3.73,8.33-8.33,8.33ZM484.92,532.21h56.49v-145.69h-56.94l.45,145.69Z"/><path class="cls-1" d="M348.26,558.33c-46.74,0-89.65-16.81-120.82-47.34-34.14-33.44-52.19-80.86-52.19-137.11,0-59.05,18.07-108.9,52.27-144.17,34.7-35.79,84.31-54.71,143.46-54.71,69.64,0,111.35,24.97,134.09,45.92,27.69,25.51,43.56,59.87,43.56,94.25,0,4.6-3.73,8.33-8.33,8.33h-85.57c-4.6,0-8.33-3.73-8.33-8.33,0-12.36-7.3-27.05-19.04-38.33-10.21-9.81-28.28-21.5-56.38-21.5-47.18,0-95.98,41.64-95.98,111.32,0,33.42,8.69,61.5,25.12,81.2,16.16,19.38,39.18,29.62,66.55,29.62,32.22,0,53.24-17.85,65.19-32.83,15.02-18.82,23.99-43.66,23.99-66.46,0-4.6,3.73-8.33,8.33-8.33s8.13,3.53,8.33,7.96c1.1-.53,2.33-.83,3.64-.83,4.6,0,8.33,3.73,8.33,8.33,0,44.12-11.62,85.62-32.72,116.85-24.82,36.74-60.6,56.16-103.5,56.16ZM370.98,191.67c-110.45,0-179.06,69.82-179.06,182.21,0,51.67,16.32,94.97,47.19,125.2,28.04,27.46,66.8,42.58,109.16,42.58,46.87,0,74.64-26.55,89.69-48.82,13.83-20.47,23.36-46.84,27.52-75.2-4.75,13.48-11.76,26.36-20.58,37.41-20.13,25.21-47.91,39.1-78.22,39.1-32.48,0-59.91-12.31-79.35-35.61-18.96-22.74-28.99-54.5-28.99-91.87s12.11-68.62,34.09-92.44c20.86-22.59,49.49-35.55,78.55-35.55,54.2,0,86.25,37.79,91.36,68.16h69.27c-2.33-26.93-15.83-53.38-37.83-73.66-20.55-18.94-58.54-41.51-122.79-41.51Z"/></g></svg>