<?xml version="1.0" encoding="UTF-8"?><svg id="Layer_2" xmlns="http://www.w3.org/2000/svg" width="100%" height="100%" viewBox="0 0 1240 894.31"><defs><style>.cls-1{fill:white;}</style></defs><g id="_레이어_1"><path class="cls-1" d="M985.65,0c-100.49,0-187.35,58.58-228.67,143.62-.1-1.12-.21-2.25-.34-3.39-6.73-58.82-54.99-131.95-140.46-131.95h-224.7v500.52h219.76c79.34,0,140.74-70.34,145.23-130.51.27-3.67.42-7.24.43-10.72,41.29,85.12,128.2,143.78,228.75,143.78,140.47,0,254.35-114.47,254.35-255.68S1126.12,0,985.65,0ZM583.86,393.62h-64.09v-85.85h64.09c29.16,0,41.84,24.09,41.84,42.93,0,22.62-16.83,42.93-41.84,42.93ZM583.86,205.07h-64.09v-85.85h64.09c25.01,0,41.84,20.3,41.84,42.93,0,18.83-12.68,42.93-41.84,42.93h0ZM682.69,255.34c12.4-3.83,33.9-13.48,50.7-32.52-3.03,23.74-2.76,47.79.8,71.46-16.67-22.61-38.57-34.84-51.5-38.94h0ZM985.91,382.32c-70.28,0-127.25-56.97-127.25-127.25,0-70.28,56.97-127.25,127.25-127.25s127.25,56.97,127.25,127.25h0c0,70.28-56.97,127.25-127.25,127.25h0Z"/><circle class="cls-1" cx="985.91" cy="255.06" r="100.09"/><polygon class="cls-1" points="225.56 8.28 225.56 195.39 139.1 195.39 139.1 8.28 0 8.28 0 508.8 139.1 508.8 139.1 315.19 225.56 315.19 225.56 508.8 364.66 508.8 364.66 8.28 225.56 8.28"/><path class="cls-1" d="M843.45,576.9s49.05,77.73,127.83,152.31c-25.71,24.54-85.24,84.78-134.84,160.5h90.52c35.92-56.1,70.47-93.14,90.23-112.18,19.76,19.04,54.31,56.09,90.23,112.18h90.52c-49.59-75.71-109.13-135.95-134.84-160.5,78.78-74.58,127.83-152.31,127.83-152.31h-90.52s-21.67,39.9-83.22,106.2c-61.56-66.3-83.23-106.2-83.23-106.2h-90.53Z"/><path class="cls-1" d="M266.79,889.71v-209.26c122.56-106.35,118.52,4.56,118.52,4.56v204.69h72.53v-217.93s0-102.84-84.05-102.84c-28.54,0-45.41,6.48-67.15,18.22,0,0-24.37,13.11-50.02,37.98-4.7-20.16-21.69-56.2-83.12-56.2-39.81,0-79.07,29.87-99.26,48.04v-40.08H1.7v312.81h72.53v-207.95c124.09-108.56,120.02,3.25,120.02,3.25v204.69h72.53Z"/><path class="cls-1" d="M743.33,576.9v37.87c-23.43-28.93-58.24-46.85-104.52-46.85-85.47,0-154.77,73.06-154.77,163.19s69.29,163.19,154.77,163.19c46.28,0,81.08-18.39,104.52-47.32v42.72h72.59v-312.81h-72.59ZM648.52,824.61c-52.34,0-94.78-42.43-94.78-94.78s42.43-94.78,94.78-94.78,94.78,42.43,94.78,94.78c0,52.34-42.43,94.78-94.78,94.78Z"/></g></svg>