<?xml version="1.0" encoding="UTF-8"?><svg id="Layer_2" xmlns="http://www.w3.org/2000/svg" width="100%" height="100%" viewBox="0 0 800 329.47"><defs><style>.cls-1{fill:currentColor;}</style></defs><g id="Layer_1-2"><path class="cls-1" d="M234.73,327.94h-87.6v-125.13h-56.87v125.13H.33L0,5.4h90.27v120h56.87V5.4h87.6v322.53ZM636.17,329.47c90.33-.07,163.83-75.1,163.83-165.47C800.55,73.98,728.03.56,638.01,0c-.61,0-1.23,0-1.84,0-90.23-.07-136.33,66.37-147.73,93.17.1-40.23-39.57-87.73-86-87.8h-149.43v322.47l139.37.03c56.2,0,96.2-48.67,96.27-90.43,12.83,26.27,57.33,92.07,147.57,92l-.03.03ZM380.67,198.27c12.9,0,23.07,12.73,23.07,27.23s-10.17,27.23-23.07,27.23h-44.33v-54.47h44.33ZM380.83,77.17c12.9,0,23.07,12.73,23.07,27.23s-10.17,27.27-23.07,27.27h-44.33v-54.5h44.33ZM439.83,164.07c10.17-1.3,27.1-12.9,33.07-20.33-2.1,9.2-2.27,35.8.2,45-6.8-10.47-22.93-23.37-33.27-24.67h0ZM554.17,164.07c0-45.32,36.74-82.07,82.07-82.07s82.07,36.74,82.07,82.07-36.75,82.08-82.08,82.08-82.08-36.75-82.08-82.08h.03ZM636.23,228.6c35.64.01,64.54-28.87,64.56-64.51s-28.87-64.54-64.51-64.56h-.05c-35.64.01-64.52,28.92-64.51,64.56.01,35.62,28.89,64.5,64.51,64.51Z"/></g></svg>