<?xml version="1.0" encoding="UTF-8"?><svg id="Layer_2" xmlns="http://www.w3.org/2000/svg" width="100%" height="100%" viewBox="0 0 122.42 29.92"><defs><style>.cls-1{fill:currentColor;}</style></defs><g id="Layer_1-2"><path class="cls-1" d="M65.49,0h5.84v29.92h-5.84V0ZM54.26,0h-15.87v29.92h15.87c3.19,0,5.78-2.59,5.78-5.78V5.78c0-3.19-2.59-5.78-5.78-5.78M54.82,22.05c0,1.47-1.19,2.65-2.65,2.65h-7.93V5.21h7.93c1.47,0,2.65,1.19,2.65,2.65v14.18Z"/><path class="cls-1" d="M27.1,0h5.84v29.92h-5.84V0ZM15.79,0v12.31H5.84V0h-.07C2.59,0,0,2.59,0,5.78v24.14h5.84v-12.39h9.95v12.39h5.84V0h-5.84Z"/><path class="cls-1" d="M122.42,17.52v-5.21h-14v-7.11h13.95c-.29-2.95-2.76-5.2-5.72-5.21h-14.06v29.92h19.83v-5.21h-14v-7.18h14ZM96.93,0c-2.45.05-4.6,1.65-5.36,3.98l-4.61,14.02-4.61-14.02c-.76-2.33-2.91-3.93-5.36-3.98h-2.08l9.82,29.92h4.47L99.02,0h-2.09Z"/></g></svg>