<?xml version="1.0" encoding="UTF-8"?><svg id="Layer_2" xmlns="http://www.w3.org/2000/svg" width="100%" height="100%" viewBox="0 0 215.99 71.15"><defs><style>.cls-1{fill:black;}</style></defs><g id="Layer_1-2"><path class="cls-1" d="M102.07,22.2v28.71c0,2.54-2.05,4.6-4.6,4.6h-9.97c-2.54,0-4.6-2.06-4.6-4.6v-28.71h-17.16v30.14c0,12.32,7.88,18.81,19.53,18.81h14.43c11.65,0,19.53-6.49,19.53-18.81v-30.14h-17.16Z"/><path class="cls-1" d="M198.85,22.2v28.71c0,2.54-2.05,4.6-4.6,4.6h-9.98c-2.54,0-4.6-2.06-4.6-4.6v-28.71h-17.16v30.14c0,12.32,7.88,18.81,19.53,18.81h14.42c11.65,0,19.53-6.49,19.53-18.81v-30.14h-17.14Z"/><path class="cls-1" d="M33.95,22.2h-11c-3.86,0-5.8,1.04-5.8,1.04V0H0v71.15h17.15v-28.71c0-2.54,2.06-4.6,4.6-4.6h9.98c2.54,0,4.59,2.06,4.59,4.6v28.71h17.16v-30.94c0-13-8.67-18.01-19.53-18.01Z"/><rect class="cls-1" x="132.3" width="17.16" height="71.15"/></g></svg>