<?xml version="1.0" encoding="UTF-8"?><svg id="Layer_2" xmlns="http://www.w3.org/2000/svg" width="100%" height="100%" viewBox="0 0 394.4 292.61"><defs><style>.cls-1{fill:white;}</style></defs><g id="Layer_1-2"><path id="h" class="cls-1" d="M89.6,191.8c-32.3-28.6-48.6-58.4-48.6-86.7s15.9-57.9,36.9-71.1c10.3-4.4,14.6,8.2,8,12.6-16.7,10.5-29.9,35.1-29.9,58.7s14.7,49.6,43.6,75.2c7,8.7-3.8,16.5-9.9,11.2l-.1.1ZM138.1,166.3c-21.9-12.3-36.6-36.3-36.6-59.4s12.5-43.7,32.3-54c10.5-3.7,14,9.3,7,13.2-15,7.8-24.3,23.3-24.3,40.2.1,18.4,11.7,37.2,29,46.9,8.7,7.1-.6,16.7-7.4,13.2v-.1ZM198.2,144.4c-17.9,0-32.5-14.5-32.5-32.4s14.6-32.5,32.5-32.5v-30.7C178.8,19.9,145.4,0,107.9,0,48.3,0,0,48.3,0,107.9c0,37.8,24,65.1,49,90.3l97.9,92.6c6.3,3.9,13.5,1.3,13.6-5.8v-72.1c0-20.9,16.9-37.8,37.8-37.8l-.1-30.7Z"/><path id="h-2" class="cls-1" d="M304.8,191.8c32.3-28.6,48.6-58.4,48.6-86.7s-15.9-57.9-36.9-71.1c-10.3-4.4-14.6,8.2-8,12.6,16.7,10.5,29.9,35.1,29.9,58.7s-14.7,49.6-43.6,75.2c-7,8.7,3.8,16.5,9.9,11.2l.1.1ZM256.3,166.3c21.9-12.3,36.6-36.3,36.6-59.4s-12.5-43.7-32.3-54c-10.5-3.7-14,9.3-7,13.2,15,7.8,24.3,23.3,24.3,40.2-.1,18.4-11.7,37.2-29,46.9-8.7,7.1.6,16.7,7.4,13.2v-.1ZM196.2,144.4c17.9,0,32.5-14.5,32.5-32.4s-14.6-32.5-32.5-32.5v-30.7C215.6,19.9,249,0,286.5,0c59.6,0,107.9,48.3,107.9,107.9,0,37.8-24,65.1-49,90.3l-97.9,92.6c-6.3,3.9-13.5,1.3-13.6-5.8v-72.1c0-20.9-16.9-37.8-37.8-37.8l.1-30.7Z"/></g></svg>