<?xml version="1.0" encoding="UTF-8"?><svg id="Layer_2" xmlns="http://www.w3.org/2000/svg" width="100%" height="100%" viewBox="0 0 700 289.84"><defs><style>.cls-1{fill:white;}</style></defs><g id="Camada_1"><path class="cls-1" d="M160,283.13h-62.5V3.12h95l17.5,117.5h2.5L225,3.12h95v280h-62.5V115.62h-2.5l-22.5,167.5h-47.5l-25-167.5h0v167.5h0Z"/><path class="cls-1" d="M345,.63c10,0,80-2.5,117.5,2.5,30,2.5,45,27.5,47.5,57.5,2.5,55,2.5,110,2.5,165,0,5,0,12.5-2.5,20-5,22.5-17.5,35-47.5,37.5-37.5,2.5-75,2.5-110,2.5h-5V.63h-2.5ZM420,53.12v180c12.5,0,20-5,20-17.5V68.12c0-12.5-5-17.5-20-15Z"/><path class="cls-1" d="M0,283.13V3.12h72.5v280H0Z"/><path class="cls-1" d="M697.5,108.13c-2.5-20-15-30-35-35-20-2.5-40,0-57.5,17.5V3.12h-70v280h65c2.5-5,2.5-10,5-12.5h2.5l7.5,7.5c17.5,12.5,37.5,15,57.5,7.5,17.5-7.5,25-22.5,25-40,0-20,2.5-42.5,2.5-65,0-25,0-50-2.5-72.5h0ZM627.5,233.13c0,5-5,10-10,10s-10-5-10-10v-107.5c0-5,5-10,10-10s10,5,10,10v107.5Z"/></g></svg>