<?xml version="1.0" encoding="UTF-8"?><svg id="Layer_2" xmlns="http://www.w3.org/2000/svg" width="100%" height="100%" viewBox="0 0 60 34"><defs><style>.cls-1{fill:white;fill-rule:evenodd;}</style></defs><g id="Layer_1-2"><path class="cls-1" d="M45.24,26.16c-4.97,0-5.65-3.36-5.65-8.82s.69-8.78,5.65-8.78,5.61,3.36,5.61,8.78-.68,8.82-5.6,8.82M45.24,0c12.57,0,14.76,8.11,14.76,17.02s-2.23,16.98-14.76,16.98-14.81-8.11-14.81-16.98v-.28c.05-8.8,2.37-16.74,14.81-16.74h0ZM15.4,0c4.19,0,7.93,1.07,10.48,2.69l-4.83,7.39c-1.55-.85-3.42-1.52-6.06-1.52-3.55,0-5.92.94-5.92,8.74s1.41,9.36,5.56,9.36,4.33-1.43,4.33-4.66v-1.21h-5.82l1-7.21h13.07v20.02h-8.3c-1.45.27-3.14.4-5.1.4C2.73,34,0,27.06,0,17.02,0,5.51,3.74,0,15.4,0h0Z"/></g></svg>