<?xml version="1.0" encoding="UTF-8"?><svg id="Layer_2" xmlns="http://www.w3.org/2000/svg" width="100%" height="100%" viewBox="0 0 664.07 749.78"><defs><style>.cls-1{fill:black;}</style></defs><g id="Layer_1-2"><path class="cls-1" d="M181.1,0h-.55C81.08,0,.38,80.45,0,179.85v390.05c.85,99.52,81.75,179.87,181.4,179.87,61.28,0,115.43-30.38,148.27-76.88l.38-.58,24.8,24.67c32.92,32.53,78.18,52.6,128.12,52.6s95.23-20.07,128.15-52.62l-.02.02c32.73-32.5,52.97-77.52,52.97-127.3s-20.25-94.78-52.97-127.27h0l-68.17-67.72,68.17-67.35c32.73-32.5,52.97-77.52,52.97-127.27s-20.25-94.77-52.97-127.28h0C578.2,20.27,532.92.17,482.97.17s-95.23,20.1-128.15,52.65l.02-.02-24.8,24.65C296.88,30.38,242.75,0,181.55,0h-.48.03Z"/></g></svg>