<?xml version="1.0" encoding="UTF-8"?><svg id="Layer_2" xmlns="http://www.w3.org/2000/svg" width="100%" height="100%" viewBox="0 0 724.2 375.3"><defs><style>.cls-1{fill:black;}</style></defs><g id="Layer_1-2"><path class="cls-1" d="M227.72,314.15c3.8,6.1,6.08,13.5,6.1,21.43h0v.52c0,21.45-17.4,38.82-38.82,38.82-14.42,0-27-7.85-33.7-19.53l-.1-.2-64.17-85.77-19.68,18.3v50.95h-.48c-.93,20.38-17.68,36.55-38.2,36.55S.45,358.1.45,337v-.47.02-.85h-.45V40.47h.98c-.08-.35-.12-.75-.12-1.15v-.22h0v-.3C.85,17.5,18,.2,39.25,0h.02c21.17.22,38.27,17.45,38.27,38.67v.38-.03,2.17h.5l.33,143.7,72.2-70.62c7.12-7.77,17.32-12.65,28.65-12.65h.45-.03c21.53.2,38.9,17.7,38.9,39.25v.1h0c0,10.55-4.12,20.13-10.82,27.22l.03-.03.5.48-50.82,50.15,70.95,95.63-.5.5-.15-.78ZM641.55,314.15c3.77,6.05,6.02,13.43,6.02,21.3v.12h0v.55c0,21.45-17.37,38.82-38.82,38.82-14.42,0-27-7.85-33.7-19.53l-.1-.2-64.15-85.77-19.72,18.3v51.07h-.43c-.95,20.35-17.7,36.47-38.2,36.47s-38.22-17.12-38.22-38.22v-.45.02-.78h-.5V40.65h.85v-2.25C414.58,17.22,431.75.05,452.93.05s38.35,17.18,38.35,38.35v.82-.05,2.2h.5l.3,143.62,72.2-70.62c7.07-7.77,17.25-12.65,28.55-12.65h.47-.02c21.6.3,38.98,17.85,38.98,39.5,0,10.5-4.1,20.02-10.75,27.1l.02-.03.37.48-50.65,50.15,71.25,95.63-.5.5-.45-.9ZM706.65,183.37c10.5,5.45,17.55,16.25,17.55,28.7,0,17.8-14.42,32.22-32.22,32.22s-32.22-14.42-32.22-32.22,14.42-32.22,32.22-32.22c5.15,0,10.02,1.2,14.35,3.35l-.17-.08.5.25ZM358.72,336.1c0,21.4-17.37,38.75-38.77,38.75s-38.55-17.12-38.77-38.35v-.02h-.5v-195.05h.5v-1.5c0-21.35,17.3-38.63,38.63-38.63s38.63,17.3,38.63,38.63v.68-.03,1.4h.5v194.47h-.5l.3-.35Z"/></g></svg>