<?xml version="1.0" encoding="UTF-8"?><svg id="Layer_2" xmlns="http://www.w3.org/2000/svg" width="100%" height="100%" viewBox="0 0 34.23 36.4"><defs><style>.cls-1{fill:currentColor;}</style></defs><g id="Layer_1-2"><path class="cls-1" d="M31,35.3c.28-.24.64-.41.64-.79,0-.89-.5.1-2.85-1.05-.71-.35-1.63-.94-2.31-1.39-1.93-1.29-1.95-1.99-2.88-3.59l-.45-.63c.46-.22.54-.21.31-.8-.55-1.4-.82-.98-1.22-1.84l-2.69-4.96c1.34-1.25,1.62-1.74,3.07-2.16l.25-.19c1.32-.86,1-.53,1.38-1.66.12-.35.15-.37.25-.77,1.58-1.92,3.02-4.01,3.51-5.18l-2.9-.03c-1.28,1.58-3.37,3.67-4.35,5.24.57.43.28-.14.49.45-.71,1.34-3.66,2.73-5.13,3.1-.27-.27-.33-.46-.85-.51.57-.78.24-.88-.39-1.39l-1.75-2.22c-.83-1.3-1.24-2.65-1.55-3.21-.34-.62-.57-.32-.53-.75.33-.38.37-.18.89.11,2.63,1.48,2.15-.52,2.81-.43.34-.68.46-.33.58-1.23l.81-.22c-.02-1.06-.55-1.76.36-2.44.04,0,.1.01.19.02.08,0,.11.01.12.02.02,0,.03-.01.06-.02.27-.08.06-.05.33-.27.34-.83.69-1.37.34-2.34-.27-.74-.8-1.26-.94-1.79-1.49-.65-.03-1.75-3.44-2.02-.62-.05-.1-.05-.67-.27-.11-.04-.26-.07-.43-.08-.51-.03-1.18.05-1.54.13-.68.15-2.22,1.6-2.43,1.91-.58.87-.95,2.15-.96,3.4.09,1.36-.04,1.89.4,2.5l.44.36s.07.03.1.05c-.28.66-.14.53-.5.82-.3-.23-.68-.31-1.1-.3-1.11,1.54.21.57-2.63,2.82-.93,1.72-1.99,2.33-2.55,5.36l-.27.86-.06,3.27.54,5.02c.05.67-.1,1.35-.04,1.94l1.48.05c-.42.36-.73.39.71,1.94-1.11.27-2.18.3-3.33.63-.1.03-.19.06-.29.09.67,3.17,3.49,5.55,6.85,5.55h24c1.23,0,2.38-.32,3.38-.88-1.05.06-2.04-.05-3.23-.23ZM11.2,19.83c.6.14.48.43.98.9.76.71.51-.16,1.1.31-.39.25-2.09,1.41-2.53,1.38-.14-.71.13-2.02.45-2.58ZM22.51,33.81c-2.8-.48-6.45-2.29-12.01-3.1l3.27-2.47c.45-.45,3.01-2.08,3.41-2.26.35,1.26,1.36,1.43,1.63,2.51.15.6.4,1.07.72,1.43.49.56.73.26,1.19.02,2.17,2.64,1.94,2.16,1.8,3.88Z"/></g></svg>