<?xml version="1.0" encoding="UTF-8"?><svg id="Layer_2" xmlns="http://www.w3.org/2000/svg" width="100%" height="100%" viewBox="0 0 800.01 509.73"><defs><style>.cls-1{fill:currentColor;}</style></defs><g id="Layer_1-2"><path class="cls-1" d="M796.03,153.1C770.27,16.93,634.07,0,634.07,0H24.1C3.97,0,1.47,26.6,1.47,26.6c0,0-2.73,244.13-.73,394.07,5.47,80.8,86.2,89.07,86.2,89.07,0,0,275.57-.77,398.87-1.63,81.27-14.2,89.43-85.53,88.6-124.47,145.07,8,247.4-94.37,221.63-230.53h0ZM427.3,270.13c-41.53,48.43-133.7,132.53-133.7,132.53,0,0-4.03,3.97-10.33.77-2.53-1.9-3.6-3-3.6-3-14.77-14.7-112.27-101.63-134.47-131.8-23.63-32.17-34.7-90-3.03-123.67,31.7-33.67,100.17-36.2,145.43,13.57,0,0,52.17-59.4,115.6-32.1,63.47,27.33,61.07,100.37,24.1,143.7h0ZM633.07,286.07c-30.93,3.87-56.07.93-56.07.93V97.63h59s65.7,18.37,65.7,87.93c0,63.77-32.83,88.9-68.63,100.5h0Z"/></g></svg>