<?xml version="1.0" encoding="UTF-8"?><svg id="Layer_2" xmlns="http://www.w3.org/2000/svg" width="100%" height="100%" viewBox="0 0 21.07 24"><defs><style>.cls-1{fill:black;}</style></defs><g id="Layer_1-2"><path class="cls-1" d="M16.85,12.26c2.33,0,4.22,1.88,4.22,4.2v3.34c0,2.32-1.89,4.2-4.22,4.2h-6.2c-1.84,0-3.47-1.19-4.02-2.94l-3.68,1.83c-1,.5-2.22.1-2.73-.9-.14-.28-.22-.59-.22-.91v-5.94c0-1.12.91-2.03,2.04-2.02.32,0,.63.07.92.22l3.67,1.85c.56-1.75,2.19-2.93,4.02-2.93h6.2ZM16.79,14.43h-6.08c-1.15,0-2.09.92-2.11,2.06v3.25c0,1.15.93,2.08,2.07,2.1h6.11c1.15,0,2.09-.92,2.11-2.07v-3.25c0-1.15-.93-2.08-2.07-2.1h-.03ZM2.71,15.72c-.3,0-.55.24-.56.54v3.73c0,.31.25.55.56.55.08,0,.16-.02.24-.06h.01s3.46-1.76,3.46-1.76v-1.22l-3.47-1.73c-.08-.04-.16-.06-.25-.06ZM7.81,0c2.08,0,3.99,1.14,4.98,2.96.91-.85,2.11-1.32,3.36-1.32,2.71,0,4.91,2.18,4.91,4.86s-2.2,4.86-4.91,4.86c-1.58,0-3.07-.75-4-2.03-1.07,1.29-2.67,2.03-4.34,2.03-3.13,0-5.67-2.55-5.67-5.69,0-3.14,2.54-5.69,5.67-5.69ZM16.15,3.93c-1.44,0-2.61,1.16-2.61,2.59s1.17,2.59,2.61,2.59,2.61-1.16,2.61-2.59-1.17-2.59-2.61-2.59h0ZM7.81,2.29c-1.88,0-3.39,1.52-3.39,3.4h0c0,1.88,1.52,3.4,3.39,3.4,1.88,0,3.39-1.52,3.39-3.4h0c0-1.88-1.52-3.4-3.39-3.4Z"/></g></svg>