<?xml version="1.0" encoding="UTF-8"?><svg id="Layer_2" xmlns="http://www.w3.org/2000/svg" width="100%" height="100%" viewBox="0 0 380 146.31"><defs><style>.cls-1{fill:currentColor;}</style></defs><g id="Layer_1-2"><path class="cls-1" d="M302.77,14.47c-14.27,3.38-19.48,18.44-26.88,29.27.99-7.97,3.18-16.3,4.95-24.22.47-2.24.89-4.74-2.45-5.42-12.71-2.76-14.69,10.21-16.82,19.48-1.61,4.79-7.66,3.54-11.77,5-7.97-40.52-58.13-22.24-53.13,13.12.47,6.25-2.86,9.53-6.77,12.76-6.67,5-8.02-4.95-7.45-9.69.31-8.75,1.09-17.55,1.04-26.3-.05-9.01-6.2-12.4-14.27-8.44-12.4,6.15-16.72,19.22-20.94,31.25-1.15-9.79,5.78-33.65-12.19-27.24-13.44,5.31-16.3,19.58-21.72,31.77-.26-8.59.94-16.3,1.62-24.74.26-3.18-1.35-4.32-4.43-4.22-6.62.31-11.04,3.85-11.56,10.57-1.2,10.16.26,20.94-1.67,30.83-5.83,10.26-23.13,23.02-33.18,12.6,10.99-6.41,23.65-14.11,22.55-28.8-.68-10.57-8.18-17.87-17.71-16.88-21.2,1.61-30.36,25.42-24.69,43.96-6.41,3.96-12.4,7.86-18.54,11.51-4.48,2.66-6.82,1.35-6.41-3.8,2.19-17.08,5.52-34.06,7.24-51.25,1.56-11.2-11.67-22.87-22.14-15.68C.63,23.22-.88,26.86.47,32.49c6.82,22.13,4.84,45.73,6.46,68.59,6.93,26.41,32.81-4.48,42.87-13.54,13.18,19.48,39.95,11.3,52.66-3.96,3.33,9.32,15,9.48,16.82-.73,2.08-11.51,4.9-22.92,8.49-34.01.57-1.72,1.35-3.12,2.08-3.65,1.04-.83,3.12-.88,3.23,1.41.21,6.09.52,11.67.62,18.28.1,7.24.52,21.77,11.2,21.35,3.7-.16,6.88-2.5,7.66-6.3,1.3-12.24,5.37-23.49,9.01-35.16,1.09-3.49,2.66-4.32,3.85-4.38.89-.06,1.66.62,1.71,1.51,0,.04,0,.07,0,.11.05,10.05-.42,20.37,1.04,30.26,4.01,16.41,28.39,8.23,33.33-3.91,14.84,20,42.4,9.38,46.98-12.08,1.14-5.62,6.72-4.17,11.3-5.21.47,6.98-.99,27.14,9.06,26.25,3.91-.05,6.77-1.61,8.07-5.47,3.18-11.09,8.44-21.51,13.07-32.08.94-1.98,2.71-5.78,5.57-5.1.65.18,1.09.79,1.04,1.46-.68,10.94-2.71,21.82-3.18,32.76-.21,6.15,3.54,8.96,9.69,8.44,11.46-.42,9.17-19.53,8.65-28.28-.68-13.07,11.67-38.8-9.01-34.58h0ZM61.26,54.57c11.82-17.19,20.78,8.65-1.04,16.35-1.56-5.73-1.46-11.2,1.04-16.35ZM233.97,54.99c-2.19,10.05-15.47,14.01-19.38,2.4-3.02-9.79-2.5-26.15,10.62-27.81-.99,19.06,11.88,17.19,8.75,25.42ZM187.25,128.17c-34.17,3.18-67.76,9.79-101.15,17.61-6.41,1.51-12.45-.26-17.66-3.85-1.72-1.2-3.49-4.27-3.07-5.89.52-1.98,3.07-4.27,5.21-4.84,9.22-2.55,18.54-4.69,27.92-6.67,29.48-6.3,59.22-10.94,89.22-13.54,24.06-2.08,48.23-3.44,72.4-4.32,16.3-.57,32.71,0,49.06.57,4.43.16,9.06,1.51,13.07,3.44,2.19,1.04,4.48,4.38,4.48,6.67.05,3.33-3.44,5.1-6.67,5.36-5.36.36-10.78.26-16.2.26-9.48-.05-86.98.83-116.62,5.21h0Z"/><path class="cls-1" d="M332.98,39.42c-25.83-24.53,10.47-49.43,37.19-35.31,17.55,9.06,9.01,29.27-5.36,35.47,33.23,24.53-9.22,50.21-36.46,35.99-18.18-9.58-10.99-28.12,4.64-36.15h0ZM346,66.34c18.23,0,14.9-17.4,1.3-19.69-1.5-.26-3.04-.06-4.43.57-11.46,5.16-12.5,18.44,3.12,19.12ZM352.77,13.06c-21.04,0-9.43,26.41,4.38,16.88,10.31-7.03,8.02-16.88-4.38-16.88Z"/></g></svg>