<?xml version="1.0" encoding="UTF-8"?><svg id="Layer_2" xmlns="http://www.w3.org/2000/svg" width="100%" height="100%" viewBox="0 0 400 382.33"><defs><style>.cls-1{fill:black;}</style></defs><g id="Layer_1-2"><path class="cls-1" d="M200,0c110.46,0,200,72.55,200,162.04,0,36.91-15.24,70.95-40.89,98.19-43.2,46.95-165.67,129.79-176.29,121.53-11.45-8.91,5.97-21.43,4.45-50.27-.32-6-3.99-7.75-6.18-8.14C79.51,315.64,0,246.36,0,162.04,0,72.55,89.54,0,200,0ZM149.95,110.71c-5.74,0-10.39,4.65-10.39,10.39v78.05c0,5.74,4.65,10.39,10.39,10.39s10.39-4.65,10.39-10.39v-78.05c0-5.74-4.65-10.39-10.39-10.39ZM80.38,110.71c-5.74,0-10.39,4.65-10.39,10.39v78.05c0,5.74,4.65,10.39,10.39,10.39h39.03c5.74,0,10.39-4.65,10.39-10.39s-4.65-10.39-10.39-10.39h-28.63v-67.66c0-5.74-4.65-10.39-10.39-10.39ZM185.58,110.71c-5.74,0-10.39,4.65-10.39,10.39v78.05c0,5.74,4.65,10.39,10.39,10.39s10.39-4.65,10.39-10.39v-48.56l40.47,54.97c3.43,4.55,9.87,5.48,14.44,2.13,2.7-1.88,4.47-5,4.47-8.54v-78.05c0-5.74-4.65-10.39-10.39-10.39s-10.39,4.65-10.39,10.39v48.72l-40.3-54.74-3.24-2.83c-1.59-.98-3.45-1.55-5.45-1.55ZM279.75,110.71c-3.33,0-6.29,1.56-8.19,3.99-1.38,1.76-2.2,3.99-2.2,6.4v.12s0,77.8,0,77.8v.12c0,5.74,4.65,10.39,10.39,10.39h39.45c5.74,0,10.39-4.65,10.39-10.39s-4.65-10.39-10.39-10.39h-29.06v-18.24h29.06c5.74,0,10.39-4.65,10.39-10.39s-4.65-10.39-10.39-10.39h-29.06v-18.24h29.06c5.74,0,10.39-4.65,10.39-10.39s-4.65-10.39-10.39-10.39h-39.45Z"/></g></svg>