<?xml version="1.0" encoding="UTF-8"?><svg id="Layer_2" xmlns="http://www.w3.org/2000/svg" width="100%" height="100%" viewBox="0 0 619.54 623.66"><defs><style>.cls-1{fill:white;}</style></defs><g id="Layer_1-2"><rect class="cls-1" x="19.28" y="205.75" width="131.77" height="417.91" rx="21.06" ry="21.06"/><circle class="cls-1" cx="85.16" cy="85.16" r="85.16"/><path class="cls-1" d="M619.54,604.3c0,10.69-8.67,19.36-19.36,19.36h-96.2c-10.69,0-19.36-8.67-19.36-19.36v-176.27c0-26.3,7.71-115.23-68.72-115.23-59.29,0-71.31,60.87-73.73,88.19v203.31c0,10.69-8.67,19.36-19.36,19.36h-93.04c-10.69,0-19.36-8.67-19.36-19.36V225.12c0-10.69,8.67-19.36,19.36-19.36h93.04c10.69,0,19.36,8.67,19.36,19.36v32.79c21.98-32.99,54.65-58.45,124.21-58.45,154.04,0,153.15,143.91,153.15,222.98v181.88h0Z"/></g></svg>