<?xml version="1.0" encoding="UTF-8"?><svg id="Layer_2" xmlns="http://www.w3.org/2000/svg" width="100%" height="100%" viewBox="0 0 733.33 733.33"><defs><style>.cls-1{fill:white;}</style></defs><g id="b"><path class="cls-1" d="M366.67,733.33c-49.5,0-97.52-9.7-142.73-28.82-43.66-18.47-82.88-44.91-116.55-78.58s-60.11-72.88-78.58-116.55C9.7,464.18,0,416.16,0,366.67s9.7-97.52,28.82-142.73c18.47-43.66,44.9-82.88,78.58-116.55s72.88-60.11,116.55-78.58C269.15,9.7,317.17,0,366.67,0s97.52,9.7,142.73,28.82c43.66,18.47,82.88,44.9,116.55,78.58s60.11,72.88,78.58,116.55c19.12,45.21,28.82,93.23,28.82,142.73s-9.7,97.52-28.82,142.73c-18.47,43.66-44.91,82.88-78.58,116.55s-72.88,60.11-116.55,78.58c-45.21,19.12-93.23,28.82-142.73,28.82ZM366.67,16.67c-93.49,0-181.38,36.41-247.49,102.51S16.67,273.18,16.67,366.67s36.41,181.38,102.51,247.49c66.11,66.11,154,102.51,247.49,102.51s181.38-36.41,247.49-102.51,102.51-154,102.51-247.49-36.41-181.38-102.51-247.49c-66.11-66.11-154-102.51-247.49-102.51Z"/><path class="cls-1" d="M493.84,368.44c-48.32,0-87.63-40.6-87.63-90.52s39.31-90.52,87.63-90.52,87.63,40.6,87.63,90.52-39.31,90.52-87.63,90.52ZM493.84,204.08c-39.13,0-70.96,33.13-70.96,73.85s31.83,73.85,70.96,73.85,70.97-33.13,70.97-73.85-31.83-73.85-70.97-73.85Z"/><path class="cls-1" d="M24.15,480.6c-2.24,0-4.47-.9-6.11-2.67-3.13-3.38-2.93-8.65.45-11.78,42.83-39.71,101.56-78,169.83-110.73,71.86-34.45,149.8-60.36,225.4-74.92,4.52-.87,8.89,2.09,9.76,6.61.87,4.52-2.09,8.89-6.61,9.76-74.22,14.29-150.76,39.74-221.35,73.58-66.78,32.02-124.08,69.34-165.71,107.92-1.6,1.49-3.64,2.22-5.66,2.22Z"/><path class="cls-1" d="M438.2,226.32c-2.13,0-4.27-.81-5.89-2.44-54.26-54.26-148.94-120.34-291.91-127.06-4.6-.22-8.15-4.12-7.93-8.72.22-4.6,4.11-8.15,8.72-7.93,148.3,6.97,246.58,75.59,302.92,131.92,3.25,3.25,3.25,8.53,0,11.79-1.63,1.63-3.76,2.44-5.89,2.44Z"/><path class="cls-1" d="M502.85,204.73c-.15,0-.3,0-.46-.01-4.59-.25-8.12-4.18-7.87-8.77,4.69-86.82-3.8-114.79-19.23-165.58l-.07-.24c-1.34-4.4,1.15-9.06,5.55-10.4,4.41-1.34,9.06,1.15,10.4,5.55l.07.24c15.45,50.87,24.78,81.58,19.93,171.32-.24,4.44-3.92,7.88-8.31,7.88Z"/><path class="cls-1" d="M564.78,248.96c-3.19,0-6.24-1.84-7.62-4.95-1.87-4.21.02-9.13,4.23-11,62.89-27.98,123.5-20.04,135.02-18.17,4.54.74,7.62,5.02,6.88,9.56-.74,4.54-5.02,7.62-9.56,6.89-10.69-1.74-67-9.11-125.56,16.95-1.1.49-2.25.72-3.38.72Z"/><path class="cls-1" d="M678.65,551.38c-4.06,0-7.62-2.98-8.23-7.12-13.94-94.46-69.94-170.35-117.7-209.88-3.54-2.93-4.04-8.19-1.11-11.73,2.93-3.55,8.19-4.04,11.73-1.11,50.14,41.5,108.94,121.16,123.57,220.29.67,4.55-2.47,8.79-7.03,9.46-.41.06-.82.09-1.23.09Z"/><path class="cls-1" d="M327.99,731.27c-1.75,0-3.52-.55-5.02-1.69-3.67-2.78-4.39-8-1.61-11.67,73.6-97.22,120.27-215.69,142.66-362.18.7-4.55,4.95-7.67,9.5-6.98,4.55.7,7.67,4.95,6.98,9.5-22.82,149.3-70.53,270.24-145.84,369.72-1.64,2.16-4.13,3.3-6.65,3.3Z"/></g></svg>