<?xml version="1.0" encoding="UTF-8"?><svg id="Layer_2" xmlns="http://www.w3.org/2000/svg" width="100%" height="100%" viewBox="0 0 173.13 185.61"><defs><style>.cls-1{fill:currentColor;}</style></defs><g id="Layer_1-2"><path class="cls-1" d="M173.12,60.94c0-40.26-26.38-52.07-26.38-52.07C133.44,2.76,110.6.19,86.87,0h-.58c-23.73.19-46.55,2.76-59.86,8.87C26.44,8.87.05,20.67.05,60.94c0,9.22-.18,20.24.11,31.93.96,39.38,7.22,78.18,43.62,87.82,16.79,4.44,31.2,5.37,42.8,4.74,21.05-1.17,32.86-7.51,32.86-7.51l-.69-15.27s-15.04,4.74-31.93,4.16c-16.74-.57-34.41-1.8-37.11-22.35-.25-1.8-.38-3.73-.38-5.76,0,0,16.43,4.02,37.25,4.97,12.73.58,24.67-.75,36.8-2.19,23.26-2.78,43.51-17.11,46.05-30.2,4.01-20.62,3.68-50.33,3.68-50.33ZM142.01,112.81h-19.32v-47.32c0-9.97-4.2-15.04-12.59-15.04-9.28,0-13.93,6.01-13.93,17.88v25.9h-19.2v-25.9c0-11.88-4.65-17.88-13.93-17.88-8.4,0-12.59,5.06-12.59,15.04v47.32h-19.32v-48.75c0-9.96,2.54-17.88,7.63-23.74,5.26-5.86,12.14-8.86,20.68-8.86,9.88,0,17.37,3.8,22.32,11.4l4.81,8.07,4.81-8.07c4.95-7.6,12.43-11.4,22.32-11.4,8.54,0,15.42,3,20.68,8.86,5.1,5.86,7.63,13.78,7.63,23.74v48.75Z"/></g></svg>