<?xml version="1.0" encoding="UTF-8"?><svg id="Layer_2" xmlns="http://www.w3.org/2000/svg" width="100%" height="100%" viewBox="0 0 24 22.89"><defs><style>.cls-1{fill:black;}</style></defs><g id="Layer_1-2"><path class="cls-1" d="M6.98,0s-.07,0-.11.01c-.29.06-.47.34-.41.63s.34.47.63.41c.29-.06.47-.35.41-.63C7.45.17,7.23,0,6.98,0ZM13.44.64c-.18,0-.36.05-.51.14-.47.28-.62.89-.34,1.36.28.47.89.62,1.36.34h0c.47-.28.62-.89.34-1.36,0,0,0,0,0,0-.18-.3-.5-.48-.85-.48ZM10.41,2.87c-2.08.01-3.93,1.31-4.67,3.25-.52.07-1.02.25-1.46.55-1.48,1.03-1.89,3.03-.94,4.56-1.31,1.2-1.56,3.16-.61,4.65.56.86,1.45,1.44,2.47,1.6.02.73.24,1.47.69,2.11,1.22,1.77,3.65,2.21,5.42.99.07-.05.12-.11.18-.16.99.88,2.47,1.03,3.61.24.58-.4.99-1,1.16-1.69.92.04,1.83-.22,2.58-.74,1.88-1.3,2.41-3.85,1.19-5.79.98-.82,1.17-2.26.43-3.31-.32-.45-.78-.78-1.32-.93.08-1.02-.19-2.03-.78-2.87-1.15-1.67-3.29-2.35-5.19-1.66-.83-.53-1.79-.81-2.77-.81h0ZM4.8,3.69c-.15,0-.3.05-.42.14-.34.24-.43.71-.19,1.06.24.34.71.43,1.06.19h0c.34-.24.43-.71.19-1.05,0,0,0,0,0,0-.14-.21-.38-.33-.63-.33ZM20.8,6.06c-.17,0-.33.05-.47.15-.38.27-.48.79-.22,1.18.27.38.79.48,1.18.22.38-.27.48-.79.22-1.18,0,0,0,0,0,0-.16-.23-.42-.37-.7-.36h0ZM12.65,7.09c.06,0,.12,0,.18.01.16.02.32.08.45.19.17.13.27.24.43.39.24.23.41.09.53.02.21-.12.37-.22.98-.21.63.01,1.36.24,1.51,1.32.17,1.2-1.97,4.29-1.82,5.72.11,1.01,1.81.3,1.96,1.22.19,1.2-2.14.75-2.67.49-.83-.41-1.34-1.34-1.12-2.26.16-.69,1.7-3.5,1.76-3.93.06-.44-.18-.48-.32-.48-.19-.01-.34.08-.53.36-.17.26-2.08,4.09-2.25,4.4-.3.56-.67.69-1.04.67-.55-.03-.8-.32-.72-.85.05-.31,1.26-3.05,1.32-3.48.04-.27-.01-.55-.27-.68-.26-.14-.57.07-.66.23-.13.22-1.85,4.71-2.03,5.04-.32.58-.65.76-1.15.78-1.19.06-2.07-.92-1.68-2.12.17-.53,1.32-4.57,1.89-5.6.39-.69,1.47-1.22,2.22-.89.39.17.93.44,1.08.51.37.16.76-.28.91-.41.15-.13.3-.28.49-.36.14-.06.34-.09.53-.09ZM23.53,9.15s-.06,0-.09.01c-.25.05-.41.3-.36.55,0,0,0,0,0,0,.05.25.3.41.56.36.25-.05.41-.3.36-.56-.05-.22-.24-.37-.46-.37h0ZM1.01,9.96c-.33,0-.64.16-.83.43-.31.46-.2,1.08.26,1.39.46.31,1.08.2,1.39-.26.31-.46.2-1.08-.26-1.39,0,0,0,0,0,0-.16-.11-.36-.17-.56-.18ZM22.3,12.05s-.09,0-.13.01c-.34.07-.55.41-.48.75,0,0,0,0,0,0,.07.34.41.56.75.48,0,0,0,0,0,0,.34-.07.55-.41.48-.75h0c-.06-.29-.32-.5-.62-.5ZM4.06,18.15s-.06,0-.09.01c-.25.05-.41.3-.36.55.05.25.3.41.55.36.25-.05.41-.3.36-.55,0,0,0,0,0,0-.05-.22-.24-.37-.46-.37ZM17.74,19.7c-.21,0-.41.07-.58.19-.48.33-.59.98-.27,1.46s.98.59,1.46.27c.48-.33.59-.98.27-1.46,0,0,0,0,0,0-.2-.29-.53-.46-.87-.45h0ZM11.4,21.6c-.13,0-.25.04-.36.11-.29.2-.37.61-.16.9,0,0,0,0,0,0,.2.29.61.37.9.16,0,0,0,0,0,0,.29-.2.37-.6.16-.9-.12-.18-.32-.28-.54-.28h0Z"/></g></svg>