<?xml version="1.0" encoding="UTF-8"?><svg id="Layer_2" xmlns="http://www.w3.org/2000/svg" width="100%" height="100%" viewBox="0 0 500 500"><defs><style>.cls-1{fill:black;}</style></defs><g id="Layer_1-2"><path class="cls-1" d="M250,0C109.17,0,0,103.16,0,242.5c0,72.89,29.86,135.86,78.51,179.36,4.09,3.64,6.55,8.77,6.72,14.25l1.36,44.48c.43,14.18,15.09,23.42,28.06,17.68l49.62-21.91c4.21-1.85,8.92-2.2,13.35-.97,22.81,6.27,47.08,9.61,72.37,9.61,140.83,0,250-103.16,250-242.5S390.83,0,250,0ZM404.92,177.79l-87.04,134.52h0c-4.41,6.83-13.53,8.78-20.35,4.36l-80.63-52.17c-3.12-2.02-7.16-1.96-10.22.15l-90.88,62.67c-13.25,9.15-29.46-6.59-20.71-20.11l87.05-134.52c4.41-6.83,13.53-8.78,20.35-4.36l80.64,52.17c3.12,2.02,7.16,1.96,10.22-.15l90.86-62.67c13.26-9.14,29.47,6.59,20.71,20.11Z"/></g></svg>