<?xml version="1.0" encoding="UTF-8"?><svg id="Layer_2" xmlns="http://www.w3.org/2000/svg" width="100%" height="100%" viewBox="0 0 16 14.89"><defs><style>.cls-1{fill:black;}</style></defs><g id="Microsoft-Teams--Streamline-Bootstrap"><path class="cls-1" d="M9.19,4.8c1.31-.24,2.18-1.51,1.94-2.82S9.62-.2,8.3.04c-1.12.21-1.95,1.17-1.98,2.31h1.18c.93,0,1.68.75,1.68,1.68v.77ZM4.89,12.54h2.61c.93,0,1.68-.75,1.68-1.68v-5.27h2.78c.39,0,.69.33.68.72v4.29c.05,2.32-1.78,4.24-4.09,4.29-1.62-.04-3-.99-3.67-2.35h0ZM15.63,3.17c0,.92-.75,1.67-1.67,1.67s-1.67-.75-1.67-1.67.75-1.67,1.67-1.67,1.67.75,1.67,1.67M13.39,12.65h-.12c.27-.66.4-1.36.38-2.07v-4.27c0-.25-.05-.5-.15-.72h1.79c.39,0,.71.32.71.71v3.77c0,1.43-1.16,2.6-2.6,2.6h-.01Z"/><path class="cls-1" d="M.68,3.35h6.82c.38,0,.68.31.68.68v6.82c0,.38-.3.68-.68.68,0,0,0,0,0,0H.68C.31,11.54,0,11.24,0,10.86c0,0,0,0,0,0v-6.82C0,3.66.31,3.35.68,3.35h0ZM5.89,5.95v-.72h-3.59v.72h1.36v3.72h.87v-3.71h1.36Z"/></g></svg>