<?xml version="1.0" encoding="UTF-8"?><svg id="Layer_2" xmlns="http://www.w3.org/2000/svg" width="100%" height="100%" viewBox="0 0 24 15.99"><defs><style>.cls-1{fill:black;}</style></defs><g id="Layer_1-2"><path class="cls-1" d="M24,0h-4.01c-3.45,0-5.3.2-6.75,1.96C9.9-.94,4.85-.58,1.96,2.76-.94,6.1-.58,11.15,2.76,14.04c3.34,2.89,8.39,2.53,11.28-.8.54-.62.97-1.32,1.3-2.07,3.18-.23,5.39-2.13,6.08-5.17,0,0-2.4.59-4.43,0,4.02-.78,6.33-3.04,7.01-6ZM5.61,8c0-1.32,1.06-2.39,2.38-2.4.46,0,.9.13,1.29.37.22-1.48,1.5-2.56,3-2.53h0c-.92,1.78-1.41,3.35-2,5.26-.39,1.26-1.73,1.97-2.99,1.58-1-.31-1.69-1.24-1.69-2.29h0ZM8,0C3.58,0,0,3.58,0,8s3.58,8,8,8,8-3.58,8-8S12.41,0,8,0h0ZM8,10.39c-1.32,0-2.4-1.07-2.4-2.4,0-1.32,1.07-2.4,2.4-2.4,1.32,0,2.4,1.07,2.4,2.4,0,0,0,0,0,0,0,1.32-1.07,2.4-2.39,2.4,0,0,0,0,0,0h0Z"/></g></svg>