<?xml version="1.0" encoding="UTF-8"?><svg id="Layer_2" xmlns="http://www.w3.org/2000/svg" width="100%" height="100%" viewBox="0 0 492.2 392.04"><defs><style>.cls-1{fill:white;}</style></defs><g id="Layer_1-2"><path class="cls-1" d="M192.06,319.94c-2.46-1.02-6.49-5.54.22-18.14l15.58-32.56c.47-.98-.66-2.22-1.37-1.38l-13.62,13.69c-6.45,6.73-17.38,25.63-19.49,29.13l-16.55,27.36c1.23-.04,2.26.93,2.3,2.16.01.4-.09.8-.28,1.16l-15.12,25.4c-3.69,6.3,2.94,10.7,3.84,9.25,23.77-38.29,37.6-35.23,37.6-35.23l7.94-18.38c.42-.92.01-2.01-.91-2.42-.03-.02-.07-.03-.11-.05ZM246.1,0C110.18,0,0,110.13,0,245.98c-.07,52.59,16.8,103.81,48.12,146.06,10.32-4.46,16.06-11.12,20.16-16.22l45.82-58.58c.96-1.24,2.23-2.21,3.66-2.82l6.9-2.97,75.35-95.52,10.92-8.55,22.45-31.23c.58-.81,1.29-1.52,2.09-2.1l9.8-7.12c2.42-1.76,5.69-1.79,8.14-.07l11.89,8.34c6.31,4.42,11.42,10.34,14.88,17.22l47.61,83.59c.78,1.6,2.1,2.86,3.72,3.57,9.34,4.65,15.04,5.47,27.26,18.74,5.7,6.19,30.69,34.12,65.71,77.53,5.09,6.96,11.9,12.48,19.77,16.02,31.22-42.22,48.03-93.36,47.96-145.87C492.2,110.13,382.02,0,246.1,0ZM66.37,259.54l-15.96-5.18-9.86,13.56v-16.76l-15.96-5.18,15.96-5.18v-16.76l9.86,13.56,15.96-5.18-9.86,13.56,9.86,13.56ZM62.59,314.39l-5.18,15.94-5.18-15.94h-16.77l13.57-9.85-5.18-15.94,13.57,9.85,13.57-9.85-5.18,15.94,13.57,9.85h-16.77ZM65.79,187.42l5.18,15.94-13.57-9.85-13.57,9.85,5.18-15.94-13.57-9.85h16.77l5.18-15.94,5.18,15.94h16.77l-13.57,9.85ZM92.72,151.36l-9.85-13.56-15.96,5.18,9.86-13.56-9.86-13.56,15.96,5.18,9.86-13.56v16.76l15.96,5.17-15.96,5.18v16.76h0ZM134.66,92.67l-5.18,15.94-5.18-15.94h-16.77l13.57-9.85-5.18-15.94,13.57,9.85,13.57-9.85-5.18,15.96,13.57,9.85h-16.77s0-.01,0-.01ZM187.52,65.75l-9.86,13.56v-16.76l-15.96-5.18,15.96-5.18v-16.76l9.86,13.56,15.95-5.18-9.86,13.56,9.86,13.56-15.95-5.19ZM254.49,50.39l5.18,15.94-13.57-9.85-13.57,9.85,5.18-15.94-13.57-9.85h16.77l5.18-15.94,5.18,15.94h16.77l-13.57,9.85ZM314.54,62.56v16.76l-9.85-13.56-15.96,5.18,9.86-13.56-9.86-13.56,15.96,5.18,9.85-13.56v16.76l15.96,5.18-15.96,5.18ZM425.83,232.42l15.96,5.18,9.85-13.56v16.76l15.96,5.18-15.96,5.18v16.76l-9.85-13.56-15.96,5.18,9.87-13.56-9.87-13.56ZM362.73,108.62l-5.19-15.94h-16.77l13.56-9.85-5.17-15.94,13.56,9.85,13.56-9.85-5.17,15.94,13.57,9.85h-16.77l-5.18,15.94ZM399.49,151.36v-16.76l-15.96-5.18,15.96-5.17v-16.77l9.85,13.56,15.96-5.18-9.85,13.56,9.85,13.56-15.96-5.18-9.85,13.56ZM429.61,177.57l5.19-15.94,5.19,15.94h16.77l-13.56,9.85,5.19,15.94-13.58-9.85-13.56,9.85,5.19-15.94-13.58-9.85s16.77,0,16.77,0ZM439.99,314.39l-5.19,15.94-5.19-15.94h-16.77l13.58-9.85-5.19-15.94,13.56,9.85,13.58-9.85-5.19,15.94,13.56,9.85h-16.77ZM335.24,388.14c1.18-1.72,3.1-6.43-.5-15.16l-10.89-29.27c-1.48-3.74,1.76-6,3.93-3.55,0,0,20.58,23.72,25.9,33.63l10.15,16.84c8.73.56,32.83,1.22,56.03,1.22-2.34-2.32-4.49-4.81-6.46-7.45-39.58-49.05-64.69-76.34-64.94-76.61-8.02-8.72-11.73-10.39-17.85-13.18-.89-.4-1.85-.84-2.84-1.31v7.45c.06.5-.3.96-.8,1.02-.41.05-.8-.18-.95-.56l-58.2-102.18-.16-.32c-2.43-4.81-6-8.95-10.41-12.05l-5.68-3.99-27.76,64.02c3.32,0,6.01,2.69,6.01,6,0,.82-.17,1.63-.49,2.39l-25.65,59.31h23.55c9.1,0,18.11,1.77,26.54,5.22l6.21,2.54s-18.73,38.51-18.73,58.79c.03,3.69.54,7.36,1.53,10.91h43.16l-2-12.15c16.93,3.78,34.06,6.6,51.31,8.46h0s0,0,0,0Z"/></g></svg>