<?xml version="1.0" encoding="UTF-8"?><svg id="Layer_2" xmlns="http://www.w3.org/2000/svg" width="100%" height="100%" viewBox="0 0 24 22.14"><defs><style>.cls-1{fill:black;}</style></defs><g id="Layer_1-2"><path class="cls-1" d="M1.47,2.38c.23,1.8,1.03,5.64,1.4,7.26.1.46.2.85.3,1.01.5.86.91-.29.91-.29,1.57-4.68-.91-7.7-1.7-8.51-.14-.15-.38-.33-.61-.4-.32-.1-.37.09-.37.24,0,.15.07.57.08.68h0ZM23.31.92c.31.22,1.39,1.36,0,1.53-1.98.23-5.76.37-12.02,5.61-2.37,1.99-7.68,7.33-10.53,13.97-.03.09-.13.13-.22.11-.25-.07-.71-.35-.48-1.42.32-1.44,3.2-8.94,10.82-15.55,2.48-2.15,8.42-7.23,12.43-4.24h0Z"/></g></svg>