<?xml version="1.0" encoding="UTF-8"?><svg id="Layer_2" xmlns="http://www.w3.org/2000/svg" width="100%" height="100%" viewBox="0 0 20.36 24"><defs><style>.cls-1{fill:black;}</style></defs><g id="Layer_1-2"><path class="cls-1" d="M13.79,4.65h-6.67l-2.3,14.6H0L3.04,0h8c3.75,0,6.38,2.29,6.47,5.51-.65-.48-2.1-.86-3.72-.86M20.36,10.2c0,3.41-3.01,6.85-6.96,6.85h-2.49l-1.13,6.95h-4.86l1.85-11.54h3.59c4.21,0,7.35-3.63,7.15-6.95,1.76.9,2.86,2.71,2.85,4.69M7.83,5.55h6.41c.91,0,1.94.22,2.36.54-.19,2.74-2.65,5.48-6.44,5.48h-3.27l.94-6.02Z"/></g></svg>