<?xml version="1.0" encoding="UTF-8"?><svg id="Layer_2" xmlns="http://www.w3.org/2000/svg" width="100%" height="100%" viewBox="0 0 20.8 24"><defs><style>.cls-1{fill:black;}</style></defs><g id="Layer_1-2"><path class="cls-1" d="M20.8,7.09h-2.31V.07l-7.51,6.35V.16h-1.16v6.2L2.89,0v7.09H0v10.4h2.89v6.51l6.93-6.36v6.2h1.16v-6.05l6.93,6.18v-6.49h2.89V7.09h0ZM17.33,2.56v4.53h-5.35l5.35-4.53ZM4.04,2.63l4.87,4.46h-4.87s0-4.46,0-4.46ZM1.16,16.33v-8.09h7.85l-6.11,6.11v1.97s-1.73,0-1.73,0ZM4.04,21.37v-3.89h0v-2.65l5.78-5.78v7.01s-5.78,5.3-5.78,5.3ZM16.75,21.4l-5.78-5.15v-7.18l5.78,5.78v6.56ZM19.64,16.33h-1.73v-1.97l-6.11-6.11h7.85s0,8.09,0,8.09Z"/></g></svg>