<?xml version="1.0" encoding="UTF-8"?><svg id="Layer_2" xmlns="http://www.w3.org/2000/svg" width="100%" height="100%" viewBox="0 0 23.94 24"><defs><style>.cls-1{fill:currentColor;}</style></defs><g id="Layer_1-2"><path class="cls-1" d="M11.99,0C5.37,0,0,5.37,0,11.99c0,5.08,3.16,9.42,7.62,11.16-.11-.95-.2-2.4.04-3.44.22-.94,1.41-5.96,1.41-5.96,0,0-.36-.72-.36-1.78,0-1.66.97-2.91,2.17-2.91,1.02,0,1.52.77,1.52,1.69,0,1.03-.65,2.57-.99,3.99-.28,1.19.6,2.17,1.77,2.17,2.13,0,3.77-2.24,3.77-5.49,0-2.86-2.06-4.87-5.01-4.87-3.41,0-5.41,2.56-5.41,5.2,0,1.03.39,2.14.89,2.74.1.12.11.23.09.35-.09.38-.29,1.2-.33,1.36-.05.23-.17.27-.4.17-1.49-.69-2.43-2.88-2.43-4.65,0-3.78,2.75-7.25,7.92-7.25,4.16,0,7.39,2.97,7.39,6.92s-2.61,7.46-6.23,7.46c-1.21,0-2.35-.63-2.76-1.38l-.75,2.85c-.27,1.05-1,2.35-1.5,3.15,1.12.34,2.31.53,3.55.53,6.61,0,11.98-5.36,11.98-11.99,0-6.62-5.38-11.99-11.99-11.99l.03-.03Z"/></g></svg>