<?xml version="1.0" encoding="UTF-8"?><svg id="Layer_2" xmlns="http://www.w3.org/2000/svg" width="100%" height="100%" viewBox="0 0 24 24"><defs><style>.cls-1{fill:black;}</style></defs><g id="Layer_1-2"><path class="cls-1" d="M11.98,0c-.12,0-.23,0-.35.01-.32.02-.77.06-1.13.11-3.29.45-6.1,2.1-7.99,4.56-.47.61-.88,1.26-1.22,1.94-.06.12-.12.24-.17.36-.09.2-.18.4-.26.6-.11.26-.2.52-.29.79l-.05.14C.18,9.64,0,10.81,0,11.99v.04c.01,6.62,5.38,11.98,12,11.98,6.16,0,11.32-4.66,11.94-10.79v-.02c.04-.39.06-.78.06-1.17v-.05c0-1.43-.27-2.84-.77-4.18-.04-.11-.08-.21-.12-.31-.07-.17-.15-.34-.23-.51-1.49-3.15-4.3-5.59-7.7-6.51-.76-.21-1.98-.39-2.81-.44-.11,0-.23-.01-.35-.02h-.05ZM14.3,2.88c.17,0,.38.06.68.16,1.78.61,3.77,2.16,4.86,3.76.75,1.12,1.34,2.43,1.34,2.99,0,.36-.35.68-.73.68-.35,0-.71-.31-.8-.68-.13-.52-.83-1.85-1.34-2.53-.92-1.2-2.33-2.26-3.72-2.78-.98-.37-1.23-.8-.78-1.34.15-.18.29-.27.5-.26h0ZM10.41,4.28c.26,0,.49.06.7.16,1.31.66,1.24,2.57-.12,3.09-1.69.64-2.53,1.32-3.08,2.44-1.15,2.34-.21,5.1,2.12,6.22,1.71.82,3.67.53,5.03-.73.62-.58.96-1.07,1.27-1.88.43-1.13.92-1.55,1.79-1.55,1.12,0,1.89.94,1.66,2.03-.46,2.13-2.25,4.27-4.42,5.28-1.2.55-1.85.69-3.36.69s-2.13-.13-3.28-.66c-3.14-1.42-5.07-4.83-4.67-8.21.38-3.12,2.53-5.75,5.51-6.73.31-.11.6-.16.86-.16ZM13.88,5.24c.22,0,.5.11.91.31,1.69.8,3.08,2.28,3.83,4.03.28.67.14,1.11-.41,1.28-.42.12-.7-.1-1.07-.86-.68-1.44-1.65-2.44-3.01-3.11-.8-.38-.89-.47-.97-.85-.03-.2,0-.31.18-.53.16-.18.31-.28.53-.27ZM13.48,7.68c.23,0,.5.11.84.33.96.63,2.04,1.98,2.04,2.55,0,.29-.28.66-.56.73-.38.1-.65-.09-1.04-.71-.43-.65-.93-1.15-1.44-1.41-.45-.23-.58-.4-.58-.77-.01-.2.08-.4.24-.51.13-.13.3-.2.49-.2Z"/></g></svg>