<?xml version="1.0" encoding="UTF-8"?><svg id="Layer_2" xmlns="http://www.w3.org/2000/svg" width="100%" height="100%" viewBox="0 0 198 152.82"><defs><style>.cls-1{fill:black;fill-rule:evenodd;}</style></defs><g id="svg41117"><path class="cls-1" d="M196.24,116.96c-3.87,4.88-13.34,8.36-13.34,8.36l-70.49,25.32v-18.67l51.88-18.48c5.89-2.11,6.79-5.09,2.01-6.66-4.78-1.57-13.42-1.12-19.32,1l-34.57,12.17v-19.38l1.99-.67s9.99-3.53,24.03-5.09c14.05-1.55,31.24.21,44.74,5.33,15.21,4.81,16.93,11.9,13.06,16.78Z"/><path class="cls-1" d="M119.11,85.17v-47.75c0-5.61-1.03-10.77-6.3-12.23-4.03-1.29-6.53,2.45-6.53,8.05v119.58l-32.25-10.24V0c13.71,2.55,33.69,8.56,44.43,12.18,27.31,9.38,36.57,21.05,36.57,47.34s-15.82,35.34-35.92,25.64Z"/><path class="cls-1" d="M14.86,130.02c-15.62-4.4-18.22-13.56-11.1-18.84,6.58-4.88,17.77-8.54,17.77-8.54l46.24-16.44v18.74l-33.28,11.91c-5.88,2.11-6.78,5.1-2.01,6.66,4.78,1.57,13.43,1.12,19.32-.99l15.96-5.79v16.77c-1.01.18-2.14.36-3.18.54-15.97,2.61-32.97,1.52-49.73-4h0Z"/></g></svg>