<?xml version="1.0" encoding="UTF-8"?><svg id="Layer_2" xmlns="http://www.w3.org/2000/svg" width="100%" height="100%" viewBox="0 0 588.64 700"><defs><style>.cls-1{fill:black;}</style></defs><g id="Layer_1-2"><path class="cls-1" d="M294.35,691.96c-60.97,0-116.94-20.41-152.97-50.89-18.3,5.47-41.71,14.26-56.48,25.17-12.65,9.33-11.07,18.85-8.79,22.69,10,16.88,171.6,10.78,218.25,5.53v-2.5ZM294.35,691.96c60.98,0,116.95-20.41,152.99-50.89,18.29,5.47,41.71,14.26,56.48,25.17,12.64,9.33,11.06,18.85,8.78,22.69-10,16.88-171.59,10.78-218.25,5.53v-2.5Z"/><path class="cls-1" d="M294.32,0C138.26,0,74.8,135.09,74.8,269.52c0,7.99.39,23.46.42,24.37,0,0,2.84,2.99,8.03,4.44,25.25,7.02,107.46,27.49,210.71,28.19h.74c100.69-.68,181.39-20.17,208.74-27.65,6.52-1.78,10-4.98,10-4.98.02-.92.41-16.39.41-24.37C513.84,135.09,450.39,0,294.32,0ZM313.64,141.34c1.15-30.67,19.22-54.78,40.38-53.84,21.17.96,37.39,26.6,36.24,57.27-1.13,30.66-19.22,54.78-40.39,53.82-21.16-.95-37.38-26.59-36.22-57.26ZM234.64,87.51c21.15-.95,39.23,23.16,40.38,53.83,1.16,30.68-15.07,56.32-36.22,57.26-21.17.96-39.26-23.16-40.4-53.82-1.15-30.67,15.07-56.31,36.24-57.27ZM427.5,246.11c-4.77,6.95-68.03,41.29-132.8,41.29h-.76c-64.77,0-128.04-34.34-132.81-41.29-.5-.71-.77-1.55-.78-2.41,0-.62.15-1.23.41-1.79,5.66-12.53,62.64-26.49,133.17-26.49h.76c70.53,0,127.52,13.96,133.17,26.49h0c.27.56.41,1.17.41,1.78,0,.87-.28,1.71-.78,2.42Z"/><path class="cls-1" d="M264.82,145.24c.97,12.11-5.68,22.88-14.82,24.05-9.16,1.18-17.36-7.69-18.33-19.8-.96-12.12,5.68-22.88,14.8-24.05,9.17-1.19,17.39,7.69,18.34,19.8h0ZM322.98,149.28c1.87-3.35,14.61-20.98,40.99-14.56,6.93,1.69,10.14,4.17,10.82,5.14,1,1.44,1.27,3.49.26,6.25-2.01,5.48-6.15,5.33-8.44,4.26-1.48-.69-19.86-12.94-36.79,5.34-1.17,1.25-3.25,1.68-5.22.19-1.98-1.5-2.79-4.52-1.62-6.63Z"/><path class="cls-1" d="M568.32,438.51c-6.24-20.09-14.76-43.51-23.39-66.01,0,0-4.96-.61-7.48.11-24.54,7.13-50.73,13.43-77.33,18.7,4.46,27.59,7.01,61.71,4.61,102.05-6.41,107.24-70.09,174.65-168.4,175.62h-3.99c-98.3-.97-161.99-68.39-168.39-175.62-2.4-40.33.14-74.46,4.6-102.05-26.14-5.17-51.88-11.35-76.05-18.33-2.95-.85-8.77-.48-8.77-.48-8.63,22.49-17.15,45.92-23.39,66.01C-9.44,534.3.21,573.94,7.55,574.82c15.76,1.91,61.33-72.1,61.33-72.1,0,75.21,67.9,190.68,223.38,191.74h4.12c155.48-1.06,223.38-116.53,223.38-191.74,0,0,45.58,74.01,61.33,72.11,7.34-.89,16.98-40.53-12.78-136.32Z"/><path class="cls-1" d="M156.18,395.19v105.53s48.34,9.75,96.78,3v-97.34c-30.68-1.74-63.77-5.6-96.78-11.19Z"/><path class="cls-1" d="M513.43,293.89s-94.04,29.69-218.74,30.53h-.74c-124.49-.84-218.41-30.43-218.73-30.53l-31.5,78.61c78.78,23.75,176.4,39.05,250.23,38.16h.74c73.82.89,171.45-14.42,250.23-38.16l-31.5-78.61Z"/></g></svg>