<?xml version="1.0" encoding="UTF-8"?><svg id="Layer_2" xmlns="http://www.w3.org/2000/svg" width="100%" height="100%" viewBox="0 0 24 23.93"><defs><style>.cls-1{fill:white;}</style></defs><g id="Layer_1-2"><path class="cls-1" d="M7.38.92c6.1-2.53,13.1.37,15.63,6.47,1.68,4.06,1.01,8.71-1.76,12.12l2.41,2.42c.73.74.21,1.99-.83,1.99h-10.71c-.1.01-.2.01-.3.01h-.02C5.19,23.84-.09,18.41,0,11.8.07,7.02,2.97,2.75,7.38.92h0ZM14.7,5.34c-3.64-1.56-7.86.13-9.41,3.77s.13,7.86,3.77,9.41c.05.02.1.04.16.06,3.67,1.48,7.85-.3,9.33-3.97,1.46-3.62-.25-7.75-3.84-9.28h0Z"/></g></svg>