<?xml version="1.0" encoding="UTF-8"?><svg id="Layer_2" xmlns="http://www.w3.org/2000/svg" width="100%" height="100%" viewBox="0 0 24 24"><defs><style>.cls-1{fill:currentColor;}</style></defs><g id="Layer_1-2"><path class="cls-1" d="M12,0C5.37,0,0,5.37,0,12c0,3.31,1.34,6.31,3.52,8.49l-2.29,2.29c-.45.45-.13,1.23.51,1.23h10.26c6.63,0,12-5.37,12-12S18.63,0,12,0ZM16.39,3.2c1.1,0,2,.89,2,2s-.9,2-2,2c-.95,0-1.74-.66-1.95-1.54h0c-1.15.16-2.03,1.15-2.03,2.34h0c1.78.07,3.4.57,4.69,1.37.47-.36,1.06-.58,1.71-.58,1.55,0,2.8,1.25,2.8,2.8,0,1.12-.66,2.08-1.6,2.53-.09,3.26-3.64,5.88-8,5.88s-7.91-2.62-8-5.87c-.95-.45-1.61-1.41-1.61-2.54,0-1.55,1.26-2.8,2.8-2.8.64,0,1.24.22,1.71.59,1.27-.79,2.88-1.29,4.64-1.36h0c0-1.67,1.26-3.04,2.88-3.22.19-.91.99-1.6,1.96-1.59ZM8.3,11.58c-.78,0-1.46.78-1.51,1.8-.05,1.02.64,1.43,1.43,1.43s1.37-.37,1.42-1.39c.05-1.02-.55-1.84-1.34-1.84ZM15.71,11.58c-.79,0-1.39.82-1.34,1.84.05,1.02.63,1.39,1.42,1.39s1.47-.41,1.43-1.43c-.05-1.02-.72-1.8-1.51-1.8ZM12.01,15.59c-.97,0-1.91.05-2.77.14-.15.02-.24.17-.18.31.48,1.15,1.62,1.96,2.95,1.96s2.47-.81,2.95-1.96c.06-.14-.04-.29-.18-.31-.86-.09-1.8-.14-2.77-.14Z"/></g></svg>