<?xml version="1.0" encoding="UTF-8"?><svg id="Layer_2" xmlns="http://www.w3.org/2000/svg" width="100%" height="100%" viewBox="0 0 317.8 377.15"><defs><style>.cls-1{fill:black;fill-rule:evenodd;}</style></defs><g id="Layer_1-2"><path class="cls-1" d="M314.58,3.22h0c-.51-.52-1.07-.97-1.66-1.37-.6-.4-1.24-.74-1.9-1.02-.67-.27-1.36-.48-2.07-.62-.7-.14-1.42-.21-2.14-.21H10.98c-1.44,0-2.87.28-4.2.84-1.33.55-2.55,1.36-3.56,2.38-1.02,1.01-1.83,2.23-2.39,3.56-.55,1.33-.83,2.76-.83,4.2v249.97c0,3.51,1.69,6.81,4.52,8.88l142.31,103.4c1.74,1.27,3.68,2.25,5.72,2.92,2.05.66,4.19,1,6.35,1s4.29-.34,6.34-1c2.05-.67,3.98-1.65,5.72-2.92l142.3-103.37c.7-.5,1.34-1.09,1.9-1.75.56-.66,1.04-1.38,1.44-2.14.39-.77.69-1.59.89-2.43.2-.84.31-1.7.31-2.56V10.99c0-2.91-1.16-5.71-3.22-7.77ZM280.08,21.96l-55.48,40.32c-1.69,1.22-4,1.35-5.76.2-5.56-3.62-11.6-6.43-17.94-8.36-6.34-1.93-12.93-2.96-19.56-3.06-6.63-.1-13.24.73-19.64,2.47-6.4,1.74-12.52,4.37-18.18,7.81-.19.08-.36.16-.54.25-.18.09-.35.18-.52.28-.17.09-.34.2-.51.3-.16.11-.33.22-.49.33l-23.98,17.42L37.71,21.96h242.37ZM294.27,244.64l-.18,1.19c-.41,2.59-2.14,6.35-4.04,8.15-5.01,4.78-12.36,5.16-17.7,1.27l-60.45-43.95-.44-.32c-3.67-2.66-9.65-2.63-12.99.44-1.11,1.01-1.98,2.25-2.55,3.64s-.83,2.89-.75,4.38c.09,1.5.5,2.96,1.22,4.28.71,1.32,1.71,2.46,2.93,3.34l.73.53,55.44,40.28c3.09,2.25,5.36,5.56,5.89,9.35.73,5.23-1.39,10.15-5.53,13.16l-1.27.92c-1.16.85-2.46,1.51-3.83,1.96-1.38.44-2.81.67-4.26.67s-2.88-.23-4.25-.67c-1.37-.45-2.67-1.11-3.84-1.96l-68.75-49.94c-3.66-2.66-9.66-2.63-12.99.44-1.11,1.01-1.99,2.25-2.56,3.64-.57,1.38-.82,2.88-.74,4.38.08,1.49.49,2.96,1.2,4.27.72,1.32,1.72,2.46,2.93,3.35l56.19,40.8c3.09,2.25,5.36,5.57,5.88,9.36.74,5.24-1.37,10.14-5.52,13.16l-1.28.92c-1.17.85-2.46,1.51-3.83,1.95-1.38.45-2.81.68-4.25.68s-2.88-.23-4.26-.68c-1.37-.44-2.66-1.1-3.83-1.95l-12.53-9.1-56.23-40.85c-3.66-2.66-9.65-2.63-12.98.45-1.11,1-1.99,2.25-2.56,3.63-.57,1.39-.83,2.89-.75,4.38.08,1.5.5,2.96,1.21,4.28.72,1.32,1.72,2.46,2.93,3.34l56.19,40.81c3.09,2.24,5.35,5.57,5.88,9.35.73,5.24-1.38,10.15-5.53,13.16l-1.23.9c-1.04.76-2.18,1.36-3.39,1.8s-2.47.71-3.75.8c-1.28.09-2.57-.01-3.83-.28-1.26-.27-2.47-.72-3.6-1.32L21.96,255.35V37.68l58.43,42.44,18.41,13.37-33.37,24.25c-1.95,1.41-3.77,3.01-5.41,4.78-1.64,1.78-3.1,3.71-4.37,5.76-1.26,2.06-2.31,4.24-3.14,6.51-.83,2.27-1.44,4.61-1.81,7-.38,2.38-.53,4.8-.44,7.21.09,2.41.42,4.81.98,7.16.57,2.35,1.36,4.64,2.38,6.83,1.01,2.19,2.24,4.27,3.67,6.22,1.41,1.96,3.02,3.77,4.79,5.41,1.77,1.65,3.7,3.11,5.76,4.37,2.05,1.26,4.23,2.32,6.5,3.15,2.26.83,4.61,1.44,6.99,1.81,1.96.32,3.91.47,5.84.47,7.73,0,15.24-2.43,21.61-7.05l46.67-33.9c.87-.64,1.85-1.13,2.88-1.47,1.03-.33,2.11-.5,3.19-.5s2.16.17,3.2.5c1.03.34,2,.83,2.88,1.47l122.44,88.99c.83.76,1.55,1.62,2.17,2.56.61.93,1.11,1.94,1.47,3,.37,1.06.61,2.16.71,3.27.09,1.12.06,2.24-.12,3.35ZM295.82,209.46l-123.83-89.95c-1.52-1.1-3.19-1.95-4.97-2.53-1.77-.57-3.63-.87-5.5-.87s-3.72.3-5.5.87c-1.78.58-3.45,1.43-4.96,2.53l-55.2,40.09c-.79.57-1.63,1.07-2.52,1.48-.88.41-1.81.73-2.76.96-.95.23-1.92.36-2.89.4-.98.03-1.95-.03-2.92-.18-.96-.15-1.91-.39-2.83-.73-.91-.34-1.79-.76-2.63-1.27-.83-.51-1.61-1.11-2.33-1.77-.71-.66-1.36-1.4-1.93-2.19-.58-.78-1.08-1.63-1.49-2.51-.41-.89-.73-1.81-.95-2.76-.23-.95-.37-1.92-.4-2.89-.04-.98.02-1.95.18-2.92.15-.96.39-1.91.73-2.82.33-.92.76-1.8,1.27-2.63.51-.84,1.1-1.62,1.76-2.33.67-.72,1.4-1.37,2.19-1.94l39.14-28.43h.01l34.06-24.75c19.04-13.83,45.28-12.11,62.3,4.1,3.76,3.6,9.63,3.82,13.83.76l68.14-49.5v171.78Z"/></g></svg>