<?xml version="1.0" encoding="UTF-8"?><svg id="Layer_2" xmlns="http://www.w3.org/2000/svg" width="100%" height="100%" viewBox="0 0 19.15 24"><defs><style>.cls-1{fill:currentColor;}</style></defs><g id="Layer_1-2"><path class="cls-1" d="M18.49,6.96c0-3.84-3.12-6.96-6.96-6.96H0v3.86h10.98c1.74,0,3.18,1.37,3.21,3.04.02.84-.3,1.63-.89,2.23-.59.6-1.38.93-2.21.93h-4.28c-.15,0-.28.12-.28.28v3.43c0,.06.02.11.05.16l7.26,10.07h5.31l-7.27-10.09c3.66-.18,6.61-3.26,6.61-6.95ZM4.47,5.92H0v18.08h4.47V5.92Z"/></g></svg>