<?xml version="1.0" encoding="UTF-8"?><svg id="Layer_2" xmlns="http://www.w3.org/2000/svg" width="100%" height="100%" viewBox="0 0 21.63 24"><defs><style>.cls-1{fill:currentColor;}</style></defs><g id="Layer_1-2"><path class="cls-1" d="M18.24,12.19l-4.53-2.51h3.07c2.67,0,4.84-2.17,4.84-4.84,0-2.67-2.17-4.84-4.84-4.84H6.07C2.72,0,0,2.72,0,6.07c0,2.39,1.3,4.58,3.38,5.74l4.53,2.51h-3.07c-2.67,0-4.84,2.17-4.84,4.84,0,2.67,2.17,4.84,4.84,4.84h10.72c3.35,0,6.06-2.72,6.07-6.07,0-2.39-1.3-4.58-3.38-5.74ZM4.11,10.49c-1.57-.87-2.56-2.51-2.61-4.31-.06-2.57,2.1-4.68,4.68-4.68h10.51c1.8,0,3.34,1.38,3.43,3.17.09,1.85-1.33,3.41-3.18,3.51-.05,0-.11,0-.16,0h-6.05c-.37,0-.67.3-.67.67h0v4.94s-5.95-3.3-5.95-3.3ZM15.45,22.5H4.94c-1.8,0-3.35-1.38-3.43-3.17-.09-1.85,1.33-3.41,3.18-3.51.05,0,.11,0,.16,0h6.05c.37,0,.67-.3.67-.67v-4.94l5.95,3.3c1.57.87,2.57,2.51,2.61,4.31.06,2.58-2.1,4.68-4.68,4.68"/></g></svg>