<?xml version="1.0" encoding="UTF-8"?><svg id="Layer_2" xmlns="http://www.w3.org/2000/svg" width="100%" height="100%" viewBox="0 0 21.1 24"><defs><style>.cls-1{fill:black;}</style></defs><g id="Layer_1-2"><path class="cls-1" d="M13.89,23.98l7.22-1.56s-2.6-17.61-2.62-17.73c-.02-.12-.11-.19-.21-.19s-1.93-.14-1.93-.14c0,0-1.27-1.27-1.44-1.41-.05-.04-.08-.06-.12-.07l-.91,21.1h.02ZM10.26,11.31s-.81-.42-1.77-.42c-1.45,0-1.5.91-1.5,1.14,0,1.23,3.24,1.72,3.24,4.63,0,2.3-1.44,3.76-3.41,3.76-2.35,0-3.54-1.47-3.54-1.47l.65-2.09s1.24,1.07,2.28,1.07c.68,0,.98-.55.98-.93,0-1.62-2.65-1.69-2.65-4.36-.03-2.24,1.57-4.42,4.83-4.42,1.26,0,1.88.36,1.88.36l-.94,2.72s-.02.01-.02,0ZM9.72.83c.14,0,.27.04.4.13-.98.46-2.06,1.64-2.51,3.99-.66.21-1.29.41-1.89.58.52-1.79,1.77-4.7,3.99-4.7h0ZM10.96,3.78v.13c-.75.23-1.58.48-2.39.74.47-1.78,1.33-2.64,2.09-2.97.19.5.31,1.18.31,2.1ZM11.5,1.54c.69.07,1.14.87,1.43,1.75-.35.11-.73.23-1.16.37v-.25c0-.75-.1-1.37-.27-1.87h0ZM14.49,2.83s-.06.02-.08.02-.29.08-.71.21c-.42-1.23-1.18-2.37-2.51-2.37h-.11c-.39-.49-.85-.69-1.26-.69-3.11,0-4.59,3.88-5.06,5.85-1.19.37-2.06.64-2.16.67-.67.21-.69.23-.77.87-.08.46-1.83,14.06-1.83,14.06l13.56,2.55s.93-21.17.93-21.17Z"/></g></svg>