<?xml version="1.0" encoding="UTF-8"?><svg id="Layer_2" xmlns="http://www.w3.org/2000/svg" width="100%" height="100%" viewBox="0 0 358.19 358.14"><defs><style>.cls-1{fill:currentColor;}</style></defs><g id="Layer_1-2"><path id="path1585" class="cls-1" d="M179.1,0c-50.88-.03-99.37,21.57-133.31,59.48,31.28,6.19,41.92,32.41,41.92,72.99h-38.26c0-23.91-4.98-36.35-19.16-36.35-6.04-.1-11.59,3.3-14.23,8.73-.42.93-.83,1.86-1.24,2.79-1.18,3.39-1.76,6.97-1.71,10.56,0,49.62,81.49,47.15,81.49,123.42,0,29.78-22.83,57.55-48.54,57.55,35.2,38.89,83.25,58.58,131.46,58.97s96.58-18.51,132.41-56.82c-30.12-7.59-56.35-50.92-56.35-119.77s26.54-117,58.24-121.78C280.14,20.82,227.17.03,179.1,0ZM110.22,64.56h40.99v94.77h44.34v-94.77h40.97v235.22h-40.97v-101.91h-44.24v101.91h-41.09V64.56ZM326.87,98.54c-21.04,0-32.56,39.63-32.56,79.21,0,41.73,10.97,82.07,32.56,82.07,17.96,0,31.32-38.31,31.32-80.75,0-19.33-6.31-80.53-31.32-80.53ZM0,175.8c-.37,51.92,15.69,86.52,35.41,86.52,11.44,0,19.56-10.07,19.56-24.7.02-30.33-26.56-36.17-54.97-61.83Z"/></g></svg>