<?xml version="1.0" encoding="UTF-8"?><svg id="Layer_2" xmlns="http://www.w3.org/2000/svg" width="100%" height="100%" viewBox="0 0 24 24"><defs><style>.cls-1{fill:currentColor;}</style></defs><g id="Layer_1-2"><path class="cls-1" d="M12,0C11.38,0,10.77.05,10.17.14l.17,1.11c1.1-.17,2.22-.17,3.32,0l.17-1.11C13.23.05,12.61,0,12,0M9.15.34c-1.19.29-2.33.76-3.38,1.4l.58.96c.95-.58,1.98-1.01,3.07-1.27l-.27-1.09ZM14.85.34l-.27,1.09c1.08.26,2.12.69,3.07,1.27l.58-.96c-1.05-.64-2.19-1.11-3.38-1.4M12,2.25c-5.38,0-9.75,4.36-9.75,9.75,0,1.65.42,3.27,1.21,4.71.07.13.1.29.06.44l-1.01,4.34,4.34-1.01c.15-.03.31-.01.44.06,1.44.8,3.06,1.21,4.71,1.21,5.39,0,9.75-4.36,9.75-9.75S17.39,2.25,12,2.25M4.91,2.32c-.99.73-1.86,1.6-2.59,2.59l.91.66c.66-.9,1.45-1.69,2.35-2.35l-.66-.91ZM19.09,2.32l-.66.91c.9.66,1.69,1.45,2.34,2.35l.91-.66c-.73-.99-1.6-1.86-2.59-2.59M1.74,5.77c-.64,1.05-1.11,2.19-1.4,3.38l1.09.27c.26-1.08.69-2.12,1.27-3.07l-.96-.58ZM22.26,5.77l-.96.58c.58.95,1.01,1.98,1.27,3.07l1.09-.27c-.29-1.19-.76-2.33-1.4-3.38M.14,10.17C.05,10.77,0,11.39,0,12,0,12.62.05,13.23.14,13.83l1.11-.17c-.08-.55-.13-1.1-.12-1.66,0-.57.04-1.12.12-1.66l-1.11-.17ZM23.86,10.17l-1.11.17c.08.54.12,1.09.12,1.66,0,.85-.04,1.12-.12,1.66l1.11.17c.19-1.21.19-2.45,0-3.66M1.43,14.58l-1.09.27c.22.9.54,1.77.96,2.59l-.26,1.14,1.1.25.36-1.54-.19-.36c-.38-.75-.67-1.54-.87-2.35M22.57,14.58c-.26,1.08-.69,2.12-1.27,3.07l.96.58c.64-1.05,1.11-2.19,1.4-3.38l-1.09-.27ZM20.77,18.43c-.66.9-1.45,1.69-2.34,2.34l.66.91c.99-.73,1.86-1.6,2.59-2.59l-.91-.66ZM.81,19.53l-.46,1.95c-.23.97.38,1.94,1.35,2.16.27.06.55.06.82,0l1.95-.45-.26-1.09-1.95.45c-.36.08-.73-.14-.81-.51-.02-.1-.02-.2,0-.3l.45-1.95-1.09-.25ZM17.65,21.3c-.95.58-1.98,1.01-3.07,1.27l.27,1.09c1.19-.29,2.33-.76,3.38-1.4l-.58-.96ZM6.71,21.51l-1.54.36.26,1.09,1.14-.27c.81.42,1.68.74,2.59.96l.27-1.09c-.81-.2-1.6-.49-2.35-.87l-.36-.19ZM10.34,22.75l-.17,1.11c1.21.19,2.45.19,3.66,0l-.17-1.11c-.54.08-1.09.12-1.66.12-.56,0-1.11-.04-1.66-.12"/></g></svg>