<?xml version="1.0" encoding="UTF-8"?><svg id="Layer_2" xmlns="http://www.w3.org/2000/svg" width="100%" height="100%" viewBox="0 0 446.4 444.8"><defs><style>.cls-1{fill:black;}</style></defs><g id="Layer_1-2"><path class="cls-1" d="M430.4,259.2c1.6-12.8,3.2-25.6,3.2-38.4,0-28.8-4.8-56-16-81.6s-25.6-48-44.8-67.2-41.6-35.2-67.2-44.8c-25.6-11.2-54.4-16-81.6-16-12.8,0-27.2,1.6-40,3.2C166.4,4.8,145.6,0,124.8,0,91.2,0,59.2,12.8,36.8,36.8,12.8,60.8,0,91.2,0,124.8c0,20.8,4.8,41.6,16,60.8-1.6,11.2-3.2,24-3.2,36.8,0,28.8,4.8,56,16,81.6s25.6,48,44.8,67.2,41.6,35.2,67.2,44.8c25.6,11.2,54.4,16,81.6,16,12.8,0,25.6-1.6,36.8-3.2,19.2,11.2,40,16,62.4,16,33.6,0,65.6-12.8,88-36.8,24-24,36.8-54.4,36.8-88,0-20.8-4.8-41.6-16-60.8h0ZM224,350.4c-75.2,0-108.8-36.8-108.8-64,0-14.4,11.2-24,25.6-24,32,0,24,46.4,83.2,46.4,30.4,0,48-16,48-33.6,0-9.6-4.8-22.4-25.6-27.2l-67.2-16c-54.4-12.8-64-43.2-64-70.4,0-57.6,52.8-78.4,104-78.4,46.4,0,100.8,25.6,100.8,59.2,0,14.4-12.8,22.4-27.2,22.4-27.2,0-22.4-38.4-78.4-38.4-27.2,0-43.2,12.8-43.2,30.4s22.4,24,40,27.2l49.6,11.2c54.4,12.8,67.2,43.2,67.2,73.6,1.6,46.4-33.6,81.6-104,81.6h0Z"/></g></svg>