<?xml version="1.0" encoding="UTF-8"?><svg id="Layer_2" xmlns="http://www.w3.org/2000/svg" width="100%" height="100%" viewBox="0 0 600.79 600.79"><defs><style>.cls-1{fill:currentColor;}</style></defs><g id="icon"><path class="cls-1" d="M126.45,379.55c0,34.81-28.22,63.03-63.03,63.03S.4,414.36.39,379.55s28.22-63.03,63.03-63.03h63.03v63.03Z"/><path class="cls-1" d="M158.21,379.55c.22-34.81,28.62-62.85,63.43-62.63,34.5.22,62.42,28.13,62.63,62.63v157.82c.22,34.81-27.82,63.21-62.63,63.43s-63.21-27.82-63.43-62.63c0-.26,0-.53,0-.79v-157.82Z"/><path class="cls-1" d="M221.24,126.45c-34.81,0-63.03-28.22-63.03-63.03,0-34.81,28.22-63.03,63.03-63.03,34.81,0,63.03,28.22,63.03,63.03h0v63.03h-63.03Z"/><path class="cls-1" d="M221.24,158.21c34.81.22,62.85,28.62,62.63,63.43-.22,34.5-28.13,62.42-62.63,62.63H63.43C28.62,284.49.22,256.45,0,221.64s27.82-63.21,62.63-63.43c.26,0,.53,0,.79,0h157.82Z"/><path class="cls-1" d="M474.34,221.24c0-34.81,28.22-63.03,63.03-63.03,34.81,0,63.03,28.22,63.03,63.03,0,34.81-28.22,63.03-63.03,63.03h-63.03v-63.03Z"/><path class="cls-1" d="M442.58,221.24c-.22,34.81-28.62,62.85-63.43,62.63-34.5-.22-62.41-28.13-62.63-62.63V63.42C316.3,28.61,344.35.22,379.16,0s63.21,27.82,63.42,62.63c0,.26,0,.53,0,.79v157.82Z"/><path class="cls-1" d="M379.55,474.34c34.81,0,63.03,28.22,63.03,63.03s-28.22,63.03-63.03,63.03-63.03-28.22-63.03-63.03h0v-63.03h63.03Z"/><path class="cls-1" d="M379.55,442.58c-34.81-.22-62.85-28.62-62.63-63.43.22-34.5,28.13-62.41,62.63-62.63h157.82c34.81-.22,63.21,27.82,63.42,62.63.22,34.81-27.82,63.21-62.63,63.42-.26,0-.53,0-.79,0h-157.82Z"/></g></svg>