<?xml version="1.0" encoding="UTF-8"?><svg id="Layer_2" xmlns="http://www.w3.org/2000/svg" width="100%" height="100%" viewBox="0 0 24 22.6"><defs><style>.cls-1{fill:currentColor;}</style></defs><g id="Layer_1-2"><path class="cls-1" d="M5.83,3.83c-.6,1.34-.36,3.75-.27,5.44-.65.36-1.48-.27-1.95-.27s-1.08.32-1.17.8c-.07.35.09.85,1.2,1.29.43.17,1.45.37,1.69.93.33.78-1.71,4.4-4.92,4.93-.25.04-.43.26-.42.52.06.98,2.24,1.36,3.21,1.51.1.13.18.7.31,1.13.06.19.2.42.58.42.49,0,1.31-.38,2.74-.14,1.4.23,2.71,2.22,5.24,2.22,2.35,0,3.74-1.99,5.09-2.22.78-.13,1.45-.09,2.2.06.51.1.98.16,1.12-.35.13-.44.21-.99.31-1.12.96-.15,3.16-.53,3.21-1.5.01-.25-.17-.48-.42-.52-3.15-.52-5.26-4.13-4.92-4.93.24-.56,1.25-.76,1.69-.93.81-.32,1.22-.72,1.21-1.17-.01-.59-.72-.93-1.23-.93s-1.28.62-1.9.29c.1-1.7.33-4.09-.27-5.44-1.14-2.54-3.66-3.83-6.18-3.83s-5.01,1.27-6.16,3.83Z"/></g></svg>