<?xml version="1.0" encoding="UTF-8"?><svg id="Layer_2" xmlns="http://www.w3.org/2000/svg" width="100%" height="100%" viewBox="0 0 800.31 347.19"><defs><style>.cls-1{fill:white;}</style></defs><g id="Layer_1-2"><path class="cls-1" d="M101.88,163.44c-2.5,0-4.37,1.88-4.69,4.69l-7.19,87.5,7.19,84.69c.31,2.5,2.19,4.69,4.69,4.69s4.37-1.88,4.69-4.69l8.13-84.69-8.13-87.5c-.31-2.81-2.5-4.69-4.69-4.69Z"/><path class="cls-1" d="M133.75,169.06c-2.81,0-5.31,2.19-5.31,5.31l-6.56,81.25,6.56,85.31c.31,3.12,2.5,5.31,5.31,5.31s5-2.19,5.31-5.31l7.5-85.31-7.5-81.25c-.31-3.12-2.5-5.31-5.31-5.31Z"/><path class="cls-1" d="M38.75,180.31c-1.56,0-3.12,1.25-3.44,3.12l-7.81,71.88,7.81,70.31c.31,1.88,1.56,3.12,3.44,3.12,1.56,0,3.12-1.25,3.44-3.12l9.06-70.31-9.06-71.88c-.63-1.56-1.88-3.12-3.44-3.12Z"/><path class="cls-1" d="M9.06,207.81c-1.56,0-3.12,1.25-3.12,3.12L0,255.62l5.94,43.75c.31,1.88,1.56,3.12,3.12,3.12s2.81-1.25,3.12-3.12l6.88-43.75-6.88-44.38c-.31-1.87-1.56-3.44-3.12-3.44Z"/><path class="cls-1" d="M198.44,86.56c-3.75,0-6.56,2.81-6.87,6.56l-5.94,162.5,5.94,85c.31,3.75,3.12,6.56,6.87,6.56s6.56-2.81,6.87-6.56l6.56-85-6.56-162.5c-.31-3.75-3.44-6.56-6.87-6.56Z"/><path class="cls-1" d="M70,166.25c-2.19,0-3.75,1.56-4.06,4.06l-7.5,85.31,7.5,82.19c.31,2.19,1.88,4.06,4.06,4.06s3.75-1.56,4.06-3.75l8.44-82.19-8.44-85.31c-.31-2.5-1.87-4.37-4.06-4.37Z"/><path class="cls-1" d="M165.94,117.5c-3.12,0-5.94,2.5-5.94,5.94l-6.25,132.19,6.25,85.31c.31,3.44,2.81,5.94,5.94,5.94s5.94-2.5,5.94-5.94l7.19-85.31-7.19-132.19c0-3.44-2.81-5.94-5.94-5.94Z"/><path class="cls-1" d="M364.38,42.19c-5.63,0-10,4.37-10,10l-3.75,203.12,3.75,81.56c0,5.62,4.69,10,10,10,5.63,0,10-4.69,10-10l4.37-81.56-4.37-203.12c.31-5.31-4.38-10-10-10Z"/><path class="cls-1" d="M230.94,72.19c-4.06,0-7.19,3.12-7.5,7.5l-5.63,175.94,5.63,84.06c0,4.06,3.44,7.19,7.5,7.19s7.19-3.12,7.5-7.5l6.25-84.06-6.25-175.94c0-3.75-3.44-7.19-7.5-7.19Z"/><path class="cls-1" d="M701.56,150.63c-13.44,0-26.25,2.81-38.13,7.5C655.62,69.38,581.25,0,490.62,0c-22.19,0-43.75,4.37-62.81,11.87-7.5,2.81-9.38,5.94-9.38,11.56v312.19c0,5.94,4.69,10.94,10.62,11.56h272.81c54.37,0,98.44-44.06,98.44-98.44-.31-54.06-44.37-98.12-98.75-98.12Z"/><path class="cls-1" d="M398.12,23.13c-5.94,0-10.62,5-10.94,10.94l-4.37,221.56,4.37,80.31c0,5.94,5,10.62,10.94,10.62s10.62-5,10.94-10.94l4.69-80.62-4.69-221.56c-.31-5.31-5-10.31-10.94-10.31Z"/><path class="cls-1" d="M264.06,65.62c-4.37,0-7.81,3.44-8.13,8.13l-5,181.88,5,83.44c0,4.37,3.75,8.13,8.13,8.13s7.81-3.44,8.13-8.13l5.63-83.44-5.63-181.88c-.31-4.69-3.75-8.13-8.13-8.13Z"/><path class="cls-1" d="M297.19,69.69c-4.69,0-8.75,3.75-8.75,8.75l-4.69,177.19,4.69,82.81c0,5,4.06,8.75,8.75,8.75s8.75-3.75,8.75-8.75l5.31-82.81-5.31-177.19c0-5-3.75-8.75-8.75-8.75Z"/><path class="cls-1" d="M330.63,75.31c-5.31,0-9.38,4.06-9.38,9.38l-4.37,170.94,4.37,82.19c0,5.31,4.37,9.38,9.38,9.38,5.31,0,9.38-4.06,9.38-9.38l4.69-82.19-4.69-170.94c0-5-4.06-9.38-9.38-9.38Z"/></g></svg>