<?xml version="1.0" encoding="UTF-8"?><svg id="Layer_2" xmlns="http://www.w3.org/2000/svg" width="100%" height="100%" viewBox="0 0 504.06 406.25"><defs><style>.cls-1{fill:black;}</style></defs><g id="Layer_1-2"><path class="cls-1" d="M105.43,215.92L264.92,56.6c22.28-22.16,58.82-22.16,81.1,0l12.39,12.4,24.85-24.85-12.39-12.45c-35.95-35.87-95.02-35.87-130.97,0L80.53,191.07l24.9,24.85h0Z"/><path class="cls-1" d="M318.35,109.06l-24.85-24.85-159.55,159.55c-10.77,10.76-25.38,16.81-40.61,16.82-31.51,0-57.45-25.94-57.45-57.45,0-15.24,6.06-29.86,16.84-40.64L190.38,24.85,165.53,0,27.89,137.64C10.06,155.07,0,178.95,0,203.88c0,50.8,41.8,92.59,92.59,92.59,24.92,0,48.78-10.05,66.21-27.86l159.55-159.55ZM477.16,137.64c-35.96-35.84-95-35.84-130.96,0l-159.55,159.55,24.85,24.85,159.55-159.55c10.77-10.75,25.36-16.78,40.58-16.79,31.51,0,57.43,25.92,57.45,57.42.06,15.28-6.07,29.94-16.98,40.64l-137.47,137.64,24.9,24.85,137.64-137.64c35.87-35.94,35.87-95.02,0-130.96h0Z"/><path class="cls-1" d="M399.62,190.34l-159.55,159.49c-22.32,22.24-58.96,22.24-81.27,0l-12.4-12.45-24.85,24.85,12.39,12.45c35.96,35.84,95,35.84,130.96,0l159.55-159.6-24.85-24.73h0Z"/></g></svg>