<?xml version="1.0" encoding="UTF-8"?><svg id="Layer_2" xmlns="http://www.w3.org/2000/svg" width="100%" height="100%" viewBox="0 0 196.45 231.29"><defs><style>.cls-1{fill:black;}</style></defs><g id="svg8"><path id="path2" class="cls-1" d="M186.02,66.06h-63.46c0-10.7-10.34-17.43-26.88-17.43-18.84,0-26.85,8.76-26.85,17.25,0,35.07,127.61.4,127.61,92.68,0,48.19-39.48,72.72-97.16,72.72C37.57,231.29,0,203.97,0,157.73h66.74c0,14.17,11.75,21.69,32.26,21.69,16.47,0,31.34-4.9,31.34-18.34,0-35.65-124.81-1.77-124.81-94.49C5.54,27.99,40.22,0,96.77,0s89.25,26.67,89.25,66.06Z"/></g></svg>