<?xml version="1.0" encoding="UTF-8"?><svg id="Layer_2" xmlns="http://www.w3.org/2000/svg" width="100%" height="100%" viewBox="0 0 748.38 749.72"><defs><style>.cls-1{fill:currentColor;}</style></defs><g id="Layer_1-2"><path class="cls-1" d="M426.75,278.12v-.03c0-39.1,31.7-70.78,70.77-70.78s70.77,31.7,70.77,70.78-31.68,70.78-70.77,70.78h-.05c-39.07,0-70.75-31.68-70.75-70.75v-.03h0l.02.03ZM591.47,278.28c0-52.03-42.18-94.2-94.2-94.2s-94.2,42.18-94.2,94.2,42.18,94.2,94.2,94.2h0c52-.08,94.12-42.2,94.2-94.18h0v-.02ZM234.87,568.9l-46.02-19.05c13.1,26.95,40.28,45.2,71.7,45.2s61.2-20.03,73.25-48.58l.2-.52c3.87-9.05,6.15-19.6,6.15-30.65,0-43.92-35.6-79.52-79.52-79.52-10.12,0-19.8,1.9-28.7,5.32l.55-.17,47.57,19.68c21.3,9.1,35.98,29.9,35.98,54.1,0,32.4-26.27,58.68-58.68,58.68-8.1,0-15.8-1.65-22.83-4.6l.38.15-.03-.03ZM373.55,0C177.13.03,16.03,151.15.1,343.45l-.1,1.35,200.95,83.05c16.7-11.55,37.37-18.42,59.68-18.42h.05c1.98,0,3.9.12,5.87.2l89.37-129.4v-1.85c.08-78,63.32-141.2,141.33-141.2s141.32,63.28,141.32,141.32-63.28,141.32-141.32,141.32h-3.28l-127.35,90.95c0,1.63.13,3.28.13,4.97v.08c0,58.55-47.48,106.02-106.03,106.02-51.17,0-93.9-36.28-103.82-84.5l-.13-.68L12.9,477.1c46.03,158.62,190.02,272.62,360.63,272.62,207.03,0,374.85-167.82,374.85-374.85S580.55.02,373.53.02h-.03l.05-.02Z"/></g></svg>