<?xml version="1.0" encoding="UTF-8"?><svg id="Layer_2" xmlns="http://www.w3.org/2000/svg" width="100%" height="100%" viewBox="0 0 489.51 685.71"><defs><style>.cls-1{fill:white;}</style></defs><g id="Layer_1-2" focusable="false"><path class="cls-1" d="M301.2,261.43c-62.06-23.03-95.89-40.74-95.89-68.83,0-23.74,19.51-37.29,54.31-37.29,63.63,0,129,24.51,174,46.6l25.43-156.97C423.37,27.86,350.37,0,249.46,0,178.09,0,118.71,18.69,76.29,53.49,32.17,89.91,9.23,142.63,9.23,206.23c0,115.4,70.49,164.57,185.03,206.26,73.86,26.29,98.43,44.97,98.43,73.8s-24,44.14-67.26,44.14c-53.57,0-141.86-26.31-199.71-60.26L0,628.89c49.74,27.97,141.46,56.83,236.57,56.83,75.46,0,138.37-17.83,180.8-51.8,47.54-37.29,72.14-92.46,72.14-163.77,0-117.94-72.11-167.17-188.4-208.71h.09Z"/></g></svg>