<?xml version="1.0" encoding="UTF-8"?><svg id="Layer_2" xmlns="http://www.w3.org/2000/svg" width="100%" height="100%" viewBox="0 0 199.03 105.95"><defs><style>.cls-1{fill:black;}</style></defs><g id="Layer_1-2"><path class="cls-1" d="M106.74,57.35h-3.4c-3.02,0-5.5,2.45-5.47,5.48v37.62c0,3.02,2.45,5.5,5.47,5.5s5.5-2.45,5.5-5.5v-24.7l9.25,13.05c1.93,2.7,5.93,2.7,7.88,0l9.25-13.05v24.7c0,3.02,2.45,5.5,5.5,5.5s5.5-2.45,5.48-5.5v-37.62c0-3.02-2.45-5.5-5.48-5.48h-3.4c-1.3,0-2.55.62-3.3,1.7l-11.98,18-12-18c-.75-1.07-1.98-1.7-3.3-1.7Z"/><path class="cls-1" d="M191.8,57.35c-3.02,0-5.5,2.45-5.5,5.48v22.98c0,7.23-4.07,10.93-10.77,10.9-6.7,0-10.77-3.82-10.75-11.23v-22.65c0-3.02-2.45-5.5-5.5-5.48-3.02,0-5.5,2.45-5.48,5.48v22.9c0,13.4,8.2,20.23,21.6,20.23s21.9-6.75,21.88-20.55v-22.57c0-3.02-2.45-5.5-5.48-5.48Z"/><path class="cls-1" d="M37.58,57.35H5.5c-3.02,0-5.5,2.45-5.5,5.48s2.45,5.5,5.5,5.5h10.55v32.07c0,3.02,2.45,5.5,5.47,5.5s5.5-2.45,5.5-5.5v-32.07h10.55c3.03,0,5.5-2.45,5.5-5.5s-2.45-5.5-5.5-5.48Z"/><path class="cls-1" d="M85.05,57.35h-29.72c-3.03,0-5.5,2.45-5.5,5.48v37.57c0,3.02,2.45,5.5,5.5,5.5h29.72c3.03,0,5.5-2.45,5.47-5.5,0-3.02-2.45-5.5-5.47-5.5h-24.25v-7.8h21.1c3.03,0,5.5-2.45,5.5-5.48s-2.45-5.5-5.5-5.5h-21.1v-7.8h24.25c3.03,0,5.5-2.45,5.47-5.5,0-3.02-2.45-5.5-5.47-5.48h0Z"/><path class="cls-1" d="M31.42,0l-1.03.03c-4.28.28-7.2,2.12-8.85,4.62C19.62,1.78,16.02-.25,10.6.05l-.12.18c-.62,1-2.97,5.47.83,10.35.78.82,2.67,3.15,1.9,6.12L2.18,34.53c-.9,1.45-.5,3.32.88,4.3,2.85,2,8.57,4.75,18.5,4.75s15.62-2.75,18.47-4.75l.38-.32c1.07-1.03,1.3-2.68.5-3.97l-11-17.83.08.32-.12-.5c-.6-2.68.9-4.8,1.72-5.75l.2-.2c3.83-4.88,1.45-9.32.83-10.35l-.1-.18-1.08-.05Z"/><path class="cls-1" d="M136.45.72c-8,7.6-.32,24.12-14.88,31.15-1.6.78-2.93-1.78-5.07-1.78-6.07.05-17.68,5.4-18.12,8.1-.38,2.22,4.57,4,19.18,4.03,12.7,0,16.8-19.32,21.25-19.35,4.45,0,2.38,17.53,1.9,19.35h4.65c-.4-1.82-.7-7.32-.68-15.1,0-7.78,1.4-9.5,2.52-15.38.98-5.1-6.57-9.53-10.75-11.03h0Z"/><path class="cls-1" d="M95.2,30.9c-.8-.8-2.05-.82-2.88-.07-.5.45-1,.88-1.53,1.3l-2.8-6.25c-.45-1.08-.95-2.42-1.5-4.05.27-.68.85-1.33,1.67-2.18.6-.6,1.1-1.2,1.47-1.77,1.85-2.92.8-4.65.23-5.8-1.33-2.7-3.4-1.83-4.9-.23-1.85,1.95-3.65,2.8-6.55,3.45-2.42.55-4.3.28-5.85-.7-2.15-1.33-5.45-6.25-5.45-6.25C63.35.85,58.45-.42,56,1.52c-1.88,1.5-6.2,7.43-6.5,7.83-4.78,6.78-4.5,8.42,1.62,12.28,3.45,2.17,6.22-.62,7.42-1.45-.58,3.58-2.33,9.2-4.95,13.15-1.42-1.08-2.47-1.9-3.12-2.5-.83-.75-2.08-.7-2.88.07-.38.38-.58.88-.55,1.43.03.52.25,1.02.62,1.38,6.38,5.82,14.75,9.12,23.67,9.15,8.95,0,17.38-3.3,23.75-9.15.83-.75.85-2,.1-2.8ZM71.35,38.88c-4.1,0-5.55-.38-8.17-1.08,1.05-3.15,4.52-5.45,8.22-5.45,3.92,0,6.92,1.92,8.03,5.5-2.68.7-5.35,1.05-8.08,1.03Z"/><path class="cls-1" d="M199,29.75l-.95-13.48c-.6-8.4-7.58-14.92-16-14.92h-13.03c-8.42,0-15.42,6.53-16,14.92l-.95,13.48c-.45,6.4,4.62,11.83,11.03,11.85h24.85c6.43,0,11.48-5.42,11.05-11.85ZM186.7,12.9c0,6.15-5,11.15-11.17,11.15s-11.15-5-11.15-11.15v-.38c0-1.45,5.23-1.45,5.25,0v.38c0,3.25,2.65,5.93,5.9,5.93s5.92-2.65,5.92-5.93v-.38c0-1.45,5.25-1.45,5.25,0v.38Z"/></g></svg>