<?xml version="1.0" encoding="UTF-8"?><svg id="Layer_2" xmlns="http://www.w3.org/2000/svg" width="100%" height="100%" viewBox="0 0 21.06 24"><defs><style>.cls-1{fill:white;}</style></defs><g id="Layer_1-2"><path class="cls-1" d="M10.71,24h0c-3.58-.02-6.33-1.2-8.18-3.51C.88,18.44.03,15.59,0,12.01v-.02c.03-3.58.88-6.43,2.53-8.48C4.37,1.21,7.13.02,10.71,0h.01c2.75.02,5.04.73,6.83,2.1,1.68,1.29,2.86,3.13,3.51,5.47l-2.04.57c-1.1-3.96-3.9-5.98-8.3-6.01-2.91.02-5.11.94-6.54,2.72-1.34,1.67-2.03,4.08-2.06,7.16.03,3.09.72,5.5,2.06,7.16,1.43,1.78,3.63,2.7,6.54,2.72,2.62-.02,4.36-.63,5.8-2.05,1.65-1.61,1.62-3.59,1.09-4.8-.31-.71-.87-1.3-1.63-1.75-.19,1.35-.62,2.45-1.28,3.27-.89,1.1-2.14,1.7-3.73,1.79-1.2.07-2.36-.22-3.26-.8-1.06-.69-1.68-1.74-1.75-2.96-.07-1.19.41-2.28,1.33-3.08.88-.76,2.12-1.21,3.58-1.29,1.01-.06,2.02-.02,3.02.14-.13-.74-.38-1.33-.75-1.76-.51-.59-1.31-.88-2.36-.89h-.03c-.84,0-1.99.23-2.72,1.32l-1.76-1.18c.98-1.45,2.57-2.26,4.48-2.26h.04c3.19.02,5.1,1.97,5.29,5.39.11.05.22.09.32.14,1.49.7,2.58,1.76,3.15,3.07.8,1.82.87,4.79-1.55,7.16-1.85,1.81-4.09,2.63-7.28,2.65h0ZM11.72,12.31c-.24,0-.49,0-.74.02-1.84.1-2.98.95-2.92,2.14.07,1.26,1.45,1.84,2.78,1.77,1.22-.07,2.82-.54,3.09-3.71-.73-.15-1.47-.23-2.22-.22Z"/></g></svg>