<?xml version="1.0" encoding="UTF-8"?><svg id="Layer_2" xmlns="http://www.w3.org/2000/svg" width="100%" height="100%" viewBox="0 0 1000 292.49"><defs><style>.cls-1{fill:white;}</style></defs><g id="svg5"><path id="path1" class="cls-1" d="M44.22,0v60.41H0v96.95h44.22v25.83c0,72.3,43.44,109.27,110.76,109.27,25.91,0,52.18-5.57,75.69-17.1v-77.09c-11.55,3.97-23.51,6.36-35.46,6.36-21.51,0-41.03-9.92-41.03-38.53V0H44.22ZM586.85.01v286.11h109.96v-40.13c15.13,22.65,38.64,46.5,78.88,46.5,54.19,0,97.59-40.55,97.59-119.22s-43.41-119.21-97.59-119.21c-40.24,0-63.74,23.85-78.88,46.5V.01h-109.96ZM223.89,54.07c-33.46,0-55.76,23.45-55.76,55.63s22.3,55.61,55.76,55.61,55.77-23.43,55.77-55.61-22.31-55.63-55.77-55.63h0ZM294.01,60.41v146.24c0,61.99,37.05,85.83,82.06,85.83s66.14-17.89,82.47-46.5v40.14h106.77V60.41h-109.96v137.88c0,22.25-12.34,30.61-27.08,30.61-13.95,0-24.31-8.36-24.31-30.61V60.41h-109.96ZM890.04,60.41v225.71h109.96V60.41h-109.96ZM728.29,117.64c22.31,0,35.07,19.86,35.07,55.63s-12.36,55.63-35.07,55.63-35.05-19.88-35.05-55.63,12.75-55.63,35.05-55.63Z"/></g></svg>