<?xml version="1.0" encoding="UTF-8"?><svg id="Layer_2" xmlns="http://www.w3.org/2000/svg" width="100%" height="100%" viewBox="0 0 82.24 66.8"><defs><style>.cls-1{fill:white;fill-rule:evenodd;}</style></defs><g id="Layer_1-2"><path class="cls-1" d="M82.24,7.88c-3.07,1.37-6.34,2.26-9.68,2.65,3.51-2.11,6.15-5.41,7.42-9.31-3.31,1.96-6.93,3.35-10.71,4.1-6.38-6.79-17.05-7.13-23.85-.75-3.39,3.18-5.32,7.62-5.32,12.27,0,1.29.14,2.58.43,3.84-13.56-.68-26.19-7.09-34.75-17.63-1.5,2.57-2.29,5.5-2.29,8.48h0c0,5.63,2.82,10.88,7.5,14-2.68-.09-5.3-.81-7.64-2.11v.22c-.02,8.05,5.64,14.99,13.53,16.58-1.45.39-2.95.6-4.45.6-1.07,0-2.13-.11-3.18-.31,2.21,6.86,8.54,11.57,15.75,11.71-7.08,5.55-16.07,8.07-25,7,7.71,4.96,16.69,7.59,25.86,7.58,31,0,48-25.7,48-48,0-.74,0-1.46-.05-2.19,3.3-2.37,6.15-5.32,8.41-8.71l.02-.02Z"/></g></svg>