<?xml version="1.0" encoding="UTF-8"?><svg id="Layer_2" xmlns="http://www.w3.org/2000/svg" width="100%" height="100%" viewBox="0 0 22.76 24"><defs><style>.cls-1{fill:black;}</style></defs><g id="Layer_1-2"><path class="cls-1" d="M10.78,0c-1.93.03-6.07.34-8.38,2.47C.68,4.19.08,6.7.01,9.82c-.06,3.12-.15,8.96,5.49,10.54h0v2.42s-.04.98.61,1.18c.78.24,1.23-.5,1.98-1.3.41-.44.97-1.08,1.4-1.58,3.85.33,6.81-.42,7.15-.52.78-.25,5.18-.82,5.89-6.66.74-6.02-.36-9.83-2.34-11.55C19.59,1.79,17.18.04,11.81.02c0,0-.4-.03-1.04-.02h0ZM10.84,1.69c.55,0,.88.02.88.02,4.54.02,6.72,1.39,7.22,1.85,1.67,1.43,2.53,4.87,1.91,9.9h0c-.6,4.88-4.17,5.19-4.83,5.4-.28.09-2.88.74-6.15.52,0,0-2.44,2.94-3.2,3.7-.12.12-.26.17-.35.14-.13-.03-.17-.19-.16-.41l.02-4.02C1.41,17.47,1.68,12.5,1.74,9.9c.05-2.6.54-4.74,2-6.17,1.96-1.77,5.47-2.02,7.11-2.03h0ZM11.22,4.3c-.17,0-.3.14-.3.3,0,.17.13.3.3.3,1.62.01,2.95.54,4.03,1.59,1.07,1.05,1.62,2.47,1.63,4.33,0,.17.14.3.31.3.17,0,.3-.14.3-.3-.01-1.98-.62-3.6-1.82-4.76-1.19-1.16-2.69-1.75-4.45-1.76h0ZM7.26,4.99c-.19-.03-.4,0-.62.12h-.01c-.43.25-.82.56-1.15.93,0,0,0,0,0,0-.27.32-.42.64-.46.95,0,.05-.01.09,0,.14,0,.14.02.27.07.4h.01c.14.49.47,1.29,1.2,2.61.42.77.9,1.5,1.45,2.19.27.34.56.67.87.98l.13.13c.31.31.64.6.98.87.69.54,1.42,1.03,2.19,1.45,1.33.73,2.13,1.07,2.6,1.21h.01c.13.06.27.08.4.08.05,0,.09,0,.14,0,.31-.04.63-.19.95-.46,0,0,0,0,0,0,.37-.33.68-.72.93-1.15h0c.23-.44.15-.85-.18-1.13,0,0-.7-.58-1.04-.83-.36-.26-.73-.49-1.11-.71-.51-.28-1.03-.11-1.25.17l-.45.56c-.23.28-.66.25-.66.25-3.12-.8-3.95-3.95-3.95-3.95,0,0-.04-.43.25-.66l.56-.45c.28-.22.46-.74.17-1.25-.22-.38-.45-.76-.71-1.11-.25-.34-.83-1.03-.83-1.03-.14-.16-.31-.26-.5-.3h0ZM11.75,5.87c-.16,0-.29.12-.3.28-.01.17.11.31.28.32,1.16.09,2.02.47,2.65,1.15.63.69.93,1.52.91,2.57,0,.17.13.31.3.31.17,0,.31-.13.31-.3.02-1.18-.33-2.19-1.07-2.99-.74-.81-1.78-1.25-3.05-1.35h-.03ZM12.21,7.5c-.16,0-.29.13-.3.29,0,.17.12.31.29.32.52.03.88.18,1.11.42.24.24.39.62.42,1.16.01.17.15.3.32.29.17,0,.3-.15.29-.32-.03-.64-.22-1.18-.58-1.56-.37-.38-.89-.57-1.52-.61h-.02Z"/></g></svg>