<?xml version="1.0" encoding="UTF-8"?><svg id="Layer_2" xmlns="http://www.w3.org/2000/svg" width="100%" height="100%" viewBox="0 0 24 18"><defs><style>.cls-1{fill:white;}</style></defs><g id="Layer_1-2"><path class="cls-1" d="M21.78,4.38c.51,1.18.03,2.64-1.11,3.11-2.16.89-3-1.3-3-1.3-.24-.55-.73-1.5-1.34-1.5-.2,0-.5,0-.94.84-.23.44-.43,1.18-.62,1.84l-.09.32c-.37-1.59-.82-3.45-1.54-4.82-.19-.38-.42-.74-.67-1.08.48-.57,1.07-1.02,1.74-1.34C14.88.15,15.61,0,16.33,0,17.38,0,19.1.34,20.56,2.23c.17.21.32.42.45.65.28.44.52.9.73,1.38l.04.11h0ZM.02,5.4c-.17-1.29.78-2.55,1.93-2.64,1.79-.16,2.36,1.39,2.46,1.89l.02.14c.07.44.29,1.84.48,2.74.08.4.24,1.01.35,1.42v.02s.03.09.03.09c.11.4.23.8.36,1.19.18.55.4,1.09.64,1.61.47.95.93,1.45,1.37,1.45.2,0,.51,0,.96-.88.28-.59.51-1.21.68-1.85.37,1.6.81,3.13,1.49,4.46.2.41.44.79.72,1.16-.48.57-1.07,1.02-1.74,1.34-.66.31-1.38.47-2.11.46-1.55,0-3.73-.7-5.34-4.01-.42-.92-.78-1.86-1.08-2.82-.28-.87-.51-1.76-.69-2.66-.08-.37-.15-.74-.22-1.11-.15-.8-.27-1.53-.32-2ZM22.07,2.76l-.2-.02h-.05c.22.39.42.8.6,1.22l.05.11c.32.76.35,1.61.07,2.39-.27.76-.82,1.39-1.55,1.75-.38.18-.8.28-1.23.28-.29,0-.58-.05-.85-.14-.3,1.18-.77,2.63-1.19,3.51s-.93,1.45-1.38,1.45c-.19,0-.5,0-.95-.88-.28-.59-.51-1.21-.68-1.85-.14-.52-.28-1.05-.4-1.57-.05-.2-.1-.4-.14-.6h0c-.41-1.79-.86-3.66-1.65-5.15-.27-.52-.6-1.01-.98-1.46-.48-.57-1.08-1.02-1.75-1.34C9.11.15,8.39,0,7.65,0,6.62,0,4.9.34,3.44,2.23c.47.22.87.56,1.16.98.3.43.5.93.57,1.46.08.56.26,1.65.47,2.69h0c.02.12.04.23.07.35.13-.34.25-.64.38-.95l.11-.27.13-.29c.24-.55.73-1.5,1.32-1.5.21,0,.51,0,.95.84.3.61.53,1.24.71,1.89.14.51.28,1.05.39,1.59.04.15.07.3.1.44v.03c.43,1.88.88,3.69,1.65,5.19.16.32.34.62.55.91.15.22.31.42.48.62,1.27,1.45,2.73,1.8,3.84,1.8,1.55,0,3.74-.7,5.35-4.01.82-1.7,1.51-4.21,1.77-5.48.26-1.27.45-2.42.53-3.11.04-.31.02-.62-.05-.92-.08-.3-.2-.58-.38-.82-.17-.24-.4-.45-.65-.61-.25-.15-.53-.26-.83-.3h0Z"/></g></svg>