<?xml version="1.0" encoding="UTF-8"?><svg id="Layer_2" xmlns="http://www.w3.org/2000/svg" width="100%" height="100%" viewBox="0 0 24 19.62"><defs><style>.cls-1{fill:currentColor;}</style></defs><g id="Layer_1-2"><path class="cls-1" d="M8.69,0C3.89,0,0,3.29,0,7.34c0,2.21,1.17,4.2,3,5.55.21.15.29.42.21.66l-.39,1.48c-.02.07-.05.14-.05.21,0,.16.13.3.29.3.06,0,.12-.02.17-.05l1.9-1.11c.21-.14.48-.17.72-.1.92.27,1.88.4,2.84.4.28,0,.54-.03.81-.05-.86-2.58.16-4.97,1.93-6.45,1.7-1.41,3.88-1.98,5.85-1.84C16.71,2.76,13.09,0,8.69,0ZM5.78,3.8c.64,0,1.16.53,1.16,1.18,0,.65-.52,1.17-1.16,1.18h0c-.65,0-1.17-.53-1.16-1.18,0,0,0,0,0,0,0-.65.52-1.18,1.16-1.18h0ZM11.6,3.8c.64,0,1.16.53,1.16,1.18,0,.65-.52,1.17-1.16,1.18h0c-.65,0-1.17-.53-1.16-1.18h0c0-.65.52-1.18,1.16-1.18ZM16.94,6.67c-1.8-.05-3.75.51-5.28,1.79-1.72,1.43-2.69,3.72-1.78,6.22.94,2.45,3.67,4.23,6.88,4.23.83,0,1.62-.12,2.36-.34.2-.06.42-.03.6.08l1.58.93s.09.04.14.05c.13,0,.24-.11.24-.25,0-.06-.02-.12-.04-.18l-.33-1.23c-.01-.05-.02-.1-.02-.16,0-.16.07-.31.2-.4,1.53-1.12,2.5-2.78,2.5-4.62,0-3.21-2.93-5.84-6.66-6.09h0c-.14-.01-.27-.03-.41-.03h0ZM14.41,9.94c.53,0,.97.44.97.98,0,.54-.43.98-.97.98h0c-.54,0-.97-.44-.97-.98h0c0-.54.43-.98.97-.98h0ZM19.25,9.94c.53,0,.97.44.97.98,0,.54-.43.98-.97.98h0c-.54,0-.97-.44-.97-.98h0c0-.54.43-.98.97-.98Z"/></g></svg>