<?xml version="1.0" encoding="UTF-8"?><svg id="Layer_2" xmlns="http://www.w3.org/2000/svg" width="100%" height="100%" viewBox="0 0 23.89 24"><defs><style>.cls-1{fill:white;}</style></defs><g id="Layer_1-2"><path class="cls-1" d="M17.42,14.38c-.3-.15-1.76-.87-2.03-.97-.27-.1-.47-.15-.67.15-.2.3-.77.97-.94,1.16-.17.2-.35.22-.64.07-.3-.15-1.26-.46-2.39-1.48-.88-.79-1.48-1.76-1.65-2.06-.17-.3-.02-.46.13-.61.13-.13.3-.35.45-.52.15-.17.2-.3.3-.5.1-.2.05-.37-.02-.52s-.67-1.61-.92-2.21c-.24-.58-.49-.5-.67-.51-.17,0-.37-.01-.57-.01s-.52.07-.79.37c-.27.3-1.04,1.02-1.04,2.48s1.07,2.88,1.21,3.07c.15.2,2.1,3.2,5.08,4.49.71.31,1.26.49,1.69.62.71.23,1.36.19,1.87.12.57-.08,1.76-.72,2.01-1.41.25-.69.25-1.29.17-1.41-.07-.12-.27-.2-.57-.35M11.99,21.79h0c-1.77,0-3.51-.48-5.03-1.38l-.36-.21-3.74.98,1-3.65-.23-.37c-.99-1.58-1.51-3.4-1.51-5.26,0-5.45,4.44-9.88,9.89-9.88,2.64,0,5.12,1.03,6.99,2.9,1.86,1.85,2.9,4.37,2.89,6.99,0,5.45-4.44,9.88-9.89,9.88M20.41,3.49C18.18,1.25,15.15,0,11.99,0,5.44,0,.1,5.34.1,11.89c0,2.1.55,4.14,1.59,5.94l-1.69,6.16,6.3-1.65c1.74.95,3.7,1.45,5.68,1.45h0c6.55,0,11.89-5.34,11.89-11.89,0-3.16-1.24-6.19-3.48-8.41Z"/></g></svg>