<?xml version="1.0" encoding="UTF-8"?><svg id="Layer_2" xmlns="http://www.w3.org/2000/svg" width="100%" height="100%" viewBox="0 0 751 751"><defs><style>.cls-1{fill:currentColor;}</style></defs><g id="Layer_1-2"><path class="cls-1" d="M375.5,111.12c-47.2-28.12-102.65-48.05-161.82-56.23l-2.3-.25c-1.75-.13-3.8-.2-5.85-.2-15.32,0-29.7,4-42.18,11.02l.43-.23C222.7,24.4,295.7,0,374.43,0h1.52c78.92,0,152.15,24.4,212.53,66.05l-1.25-.82c-11.95-6.8-26.28-10.83-41.55-10.83-2.12,0-4.23.08-6.3.23l.27-.02c-61.47,8.4-116.93,28.25-166.2,57.43l2.05-1.13v.22ZM114.35,107.2c-1.02.35-1.93.8-2.75,1.35l.05-.02C42.7,176.6,0,271.13,0,375.63c0,89.6,31.4,171.88,83.82,236.43l-.55-.7c-43.85-81.52,112-311.37,190.25-403.98-88.25-88.02-131.92-101.55-150.37-101.55-.25,0-.52-.02-.8-.02-2.87,0-5.62.52-8.15,1.5l.15-.05v-.05ZM477.58,207.37c78.22,92.65,234.18,322.7,190.12,404.02,51.88-63.85,83.3-146.12,83.3-235.75,0-104.52-42.72-199.05-111.67-267.1l-.05-.05c-.72-.52-1.57-.98-2.5-1.3l-.08-.02c-2.5-.9-5.4-1.4-8.4-1.4h-.4.02c-18.52,0-62.13,13.58-150.35,101.57v.03ZM128.35,658.15c65.68,57.65,152.32,92.85,247.2,92.85s181.52-35.17,247.62-93.2l-.43.37c58.73-59.82-135.05-272.53-247.25-357.25-112.07,84.75-306,297.43-247.15,357.25v-.02Z"/></g></svg>