<?xml version="1.0" encoding="UTF-8"?><svg id="Layer_2" xmlns="http://www.w3.org/2000/svg" width="100%" height="100%" viewBox="0 0 24 24"><defs><style>.cls-1{fill:white;}</style></defs><g id="Layer_1-2"><path class="cls-1" d="M12,0C5.38,0,0,5.38,0,12s5.38,12,12,12,12-5.38,12-12S18.62,0,12,0ZM12,19.1c-3.92,0-7.1-3.18-7.1-7.1s3.18-7.1,7.1-7.1,7.1,3.18,7.1,7.1-3.18,7.1-7.1,7.1ZM12,5.77c-3.43,0-6.23,2.8-6.23,6.23s2.8,6.23,6.23,6.23,6.23-2.8,6.23-6.23-2.8-6.23-6.23-6.23ZM9.68,15.54v-7.08l6.13,3.54-6.13,3.54Z"/></g></svg>