<?xml version="1.0" encoding="UTF-8"?><svg id="Layer_2" xmlns="http://www.w3.org/2000/svg" width="100%" height="100%" viewBox="0 0 24 16.91"><defs><style>.cls-1{fill:white;}</style></defs><g id="Layer_1-2"><path class="cls-1" d="M23.5,2.64c-.28-1.04-1.08-1.85-2.12-2.14-1.87-.51-9.38-.51-9.38-.51,0,0-7.51,0-9.38.51C1.59.79.78,1.6.5,2.64c-.5,1.88-.5,5.81-.5,5.81,0,0,0,3.93.5,5.81.28,1.04,1.08,1.85,2.12,2.14,1.87.5,9.38.5,9.38.5,0,0,7.51,0,9.38-.5,1.04-.28,1.85-1.1,2.12-2.14.5-1.88.5-5.81.5-5.81,0,0,0-3.93-.5-5.81ZM9.55,12.02v-7.14l6.27,3.57-6.27,3.57Z"/></g></svg>