<?xml version="1.0" encoding="UTF-8"?><svg id="Layer_2" xmlns="http://www.w3.org/2000/svg" width="100%" height="100%" viewBox="0 0 2500 1875.61"><defs><style>.cls-1{fill:white;}</style></defs><g id="Layer_1-2"><path class="cls-1" d="M2013.55,1686.4H486.45c-2.03,0-3.66,1.42-3.46,3.46v182.29c0,1.83,1.42,3.46,3.46,3.46h1527.1c1.83,0,3.46-1.63,3.46-3.46v-182.29c0-1.83-1.63-3.46-3.46-3.46Z"/><path class="cls-1" d="M2370.61,0H129.39C58.19,0,0,58.19,0,129.39v1364.75c0,71.21,58.19,129.39,129.39,129.39h2241.21c71.21,0,129.39-58.19,129.39-129.39V129.39c0-71.21-58.19-129.39-129.39-129.39ZM942.38,1158.04V440.27l615.23,360.11-615.23,357.67Z"/></g></svg>