<?xml version="1.0" encoding="UTF-8"?><svg id="Layer_2" xmlns="http://www.w3.org/2000/svg" width="100%" height="100%" viewBox="0 0 46.42 47.65"><defs><style>.cls-1{isolation:isolate;opacity:.12;}.cls-1,.cls-2{fill:currentColor;}</style></defs><g id="Layer_1-2"><path class="cls-2" d="M22.59,47.65c-.53,0-1.04,0-1.53-.02.49.01,1,.02,1.53.02Z"/><path class="cls-2" d="M14.9,46.93c-.32-.07-.64-.15-.95-.24.31.08.62.16.95.24Z"/><path class="cls-2" d="M17.66,47.39c-.42-.05-.82-.1-1.21-.17.39.06.79.12,1.21.17Z"/><path class="cls-2" d="M19.03,47.52c-.42-.03-.82-.07-1.21-.11.39.04.8.08,1.21.11Z"/><path class="cls-2" d="M12.59,46.27c-.31-.11-.62-.22-.91-.35.3.12.6.24.91.35Z"/><path class="cls-2" d="M20.72,47.61c-.48-.02-.95-.04-1.4-.07.45.03.92.05,1.4.07Z"/><path class="cls-2" d="M13.77,46.65c-.33-.09-.65-.19-.96-.3.31.11.63.21.96.3Z"/><path class="cls-2" d="M44.27,41.67c-.1.1-.18.21-.28.3.1-.1.19-.2.28-.3Z"/><path class="cls-2" d="M16.19,47.18c-.38-.06-.75-.13-1.11-.21.36.08.73.15,1.11.21Z"/><path class="cls-2" d="M46.11,39.37c-.39.58-.8,1.13-1.25,1.65.45-.52.86-1.08,1.25-1.65Z"/><path class="cls-1" d="M27.03,47.65h-4.4s-.03,0-.05,0c.02,0,.03,0,.05,0h4.4c6.07,0,9.61-.89,12.76-2.58,1.57-.83,2.98-1.87,4.2-3.09-1.22,1.22-2.62,2.26-4.2,3.09-3.15,1.69-6.69,2.58-12.76,2.58Z"/><path class="cls-1" d="M11.64,45.91s.02,0,.03.01c-.01,0-.02,0-.03-.01h0Z"/><path class="cls-1" d="M16.46,47.23c-.09-.01-.18-.03-.27-.04.09.02.18.03.27.04Z"/><path class="cls-1" d="M44.87,41.02c-.19.22-.4.43-.6.65.2-.21.41-.42.6-.65Z"/><path class="cls-1" d="M15.08,46.97c-.06-.01-.12-.03-.18-.04.06.01.12.03.18.04Z"/><path class="cls-1" d="M21.05,47.62c-.11,0-.23,0-.34-.01.11,0,.23,0,.34.01Z"/><path class="cls-1" d="M46.42,38.92c-.1.15-.21.3-.31.45.1-.15.21-.3.31-.45Z"/><path class="cls-1" d="M12.81,46.34c-.07-.03-.15-.05-.22-.08.07.03.15.05.22.08Z"/><path class="cls-1" d="M17.82,47.41c-.05,0-.1-.01-.15-.02.05,0,.1.01.15.02Z"/><path class="cls-1" d="M19.32,47.54c-.1,0-.19-.01-.28-.02.09,0,.19.02.28.02Z"/><path class="cls-1" d="M13.95,46.69c-.06-.02-.12-.03-.18-.05.06.02.12.03.18.05Z"/><path class="cls-2" d="M14.9,39.99c-2.06,1-4.97,1.66-7.29,1.41-.4-.04-.49-.19-.23-.44,1.64-1.64,2.68-4.43,1.6-6.03,0-.01-.02-.03-.03-.04C1.92,25.47,2.55,8.13,10.85.13c.05-.05.1-.09.14-.13-.38.17-.75.36-1.12.56-3.15,1.67-5.61,4.15-7.3,7.3S0,14.55,0,20.61v4.4c0,6.07.89,9.61,2.58,12.76,1.67,3.15,4.15,5.61,7.3,7.3.57.31,1.16.59,1.77.84.01,0,.02,0,.03.01.3.12.6.24.91.35.07.03.15.05.22.08.31.11.63.21.96.3.06.02.12.03.18.05.31.08.62.16.95.24.06.01.12.03.18.04.36.08.73.15,1.11.21.09.02.18.03.27.04.39.06.79.12,1.21.17.05,0,.1.01.15.02.39.04.8.08,1.21.11.09,0,.19.02.28.02.45.03.92.05,1.4.07.11,0,.23,0,.34.01.49.01,1,.02,1.53.02.02,0,.03,0,.05,0h4.4c6.07,0,9.61-.89,12.76-2.58,1.57-.83,2.98-1.87,4.2-3.09.1-.1.19-.2.28-.3.2-.21.41-.42.6-.65.43-.5.82-1.03,1.19-1.58-8.5,5.26-22.29,5.45-31.16.55Z"/><path class="cls-2" d="M20.4,14.81h-9.73v2.09h6.75l-6.65,8.25c-.21.3-.36.59-.36,1.23v.53h9.18c.45,0,.83-.38.83-.83v-1.12h-7.09l6.26-7.85c.09-.11.27-.32.34-.42l.04-.06c.36-.53.44-.99.44-1.54v-.28Z"/><path class="cls-2" d="M32.78,26.91h1.38v-12.09h-2.09v11.39c0,.38.3.7.7.7Z"/><path class="cls-2" d="M25.65,17.5c-2.62,0-4.74,2.12-4.74,4.74s2.12,4.74,4.74,4.74,4.74-2.12,4.74-4.74c.02-2.62-2.1-4.74-4.74-4.74ZM25.65,25.03c-1.54,0-2.79-1.25-2.79-2.79s1.25-2.79,2.79-2.79,2.79,1.25,2.79,2.79-1.23,2.79-2.79,2.79Z"/><path class="cls-2" d="M40.32,17.43c-2.64,0-4.78,2.14-4.78,4.78s2.14,4.78,4.78,4.78,4.78-2.14,4.78-4.78-2.14-4.78-4.78-4.78ZM40.32,25.03c-1.55,0-2.81-1.25-2.81-2.81s1.25-2.81,2.81-2.81,2.81,1.25,2.81,2.81-1.25,2.81-2.81,2.81Z"/><path class="cls-2" d="M29.29,26.91h1.12v-9.14h-1.95v8.32c0,.44.38.82.83.82Z"/></g></svg>