<?xml version="1.0" encoding="UTF-8"?><svg id="Layer_2" xmlns="http://www.w3.org/2000/svg" width="100%" height="100%" viewBox="0 0 14.06 24"><defs><style>.cls-1{fill:currentColor;}</style></defs><g id="Layer_1-2"><path class="cls-1" d="M8.59,24h-2.84c-.27,0-.48-.22-.48-.48v-2.76H.67c-.37,0-.67-.3-.67-.67v-2.23c0-.15.05-.29.14-.41L8.28,7.06H1.03c-.37,0-.67-.3-.67-.67v-2.48c0-.37.3-.67.67-.67h4.23V.48c0-.27.22-.48.48-.48h2.84c.27,0,.48.22.48.48v2.77h4.32c.37,0,.67.3.67.67v2.14c0,.15-.05.29-.14.41l-8.19,10.48h7.66c.37,0,.67.3.67.67v2.48c0,.37-.3.67-.67.67h-4.32v2.76c0,.27-.22.48-.48.48Z"/></g></svg>