<?xml version="1.0" encoding="UTF-8"?><svg id="Layer_2" xmlns="http://www.w3.org/2000/svg" width="100%" height="100%" viewBox="0 0 225.19 95.3"><defs><style>.cls-1{fill:currentColor;}</style></defs><g id="Layer_1-2"><path class="cls-1" d="M89.29,94.59H13.54c-5.01,0-9.76-2.63-12.07-7.12-2.63-5.13-1.67-11.29,2.38-15.33L56.55,19.5C39.6,17.53.46,28.21,0,.71h69.77c5.01,0,9.76,2.63,12.07,7.12,2.63,5.13,1.67,11.29-2.37,15.33l-52.7,52.65h43.71c10.4,0,18.81,8.4,18.81,18.79Z"/><path class="cls-1" d="M187.98,0c-10.85,0-20.61,4.68-27.28,12.18-20.98-25.16-64.96-7.77-63.87,25.08,0,0,0,58.04,0,58.04,27.97-.54,16.64-40.95,18.81-58.23.28-23.75,35.12-24.15,35.69-.45,0,0,0,39.89,0,39.89,0,10.39,8.41,18.79,18.81,18.79v-58.23c.29-23.76,35.12-24.14,35.69-.45,0,0,0,39.89,0,39.89,0,10.39,8.41,18.79,18.8,18.79-1.85-31.54,12.31-94.04-36.65-95.3Z"/></g></svg>